<svg aria-hidden="true" style="position: absolute; width: 0; height: 0; overflow: hidden;" version="1.1" xmlns="http://www.w3.org/2000/svg" xmlns:xlink="http://www.w3.org/1999/xlink">
<defs>
<symbol id="icon-moon" viewBox="0 0 20 24">
<title>moon</title>
<path d="M16.902 17.451c-0.482 0.080-0.978 0.121-1.473 0.121-4.969 0-9-4.031-9-9 0-1.701 0.496-3.362 1.393-4.781-3.563 1.058-6.107 4.326-6.107 8.21 0 4.728 3.844 8.571 8.571 8.571 2.585 0 5.009-1.179 6.616-3.121zM19.621 16.313c-1.674 3.629-5.344 5.973-9.335 5.973-5.665 0-10.286-4.621-10.286-10.286 0-5.558 4.353-10.071 9.897-10.272 0.375-0.013 0.683 0.201 0.817 0.522 0.147 0.335 0.054 0.723-0.201 0.964-1.527 1.393-2.371 3.295-2.371 5.357 0 4.018 3.268 7.286 7.286 7.286 1.058 0 2.076-0.228 3.054-0.683 0.335-0.147 0.71-0.080 0.964 0.174s0.321 0.643 0.174 0.964z"></path>
</symbol>
<symbol id="icon-reddit" viewBox="0 0 24 24">
<title>reddit</title>
<path d="M24 11.33c0 1.045-0.589 1.942-1.46 2.384 0.107 0.415 0.161 0.844 0.161 1.286 0 4.232-4.781 7.661-10.674 7.661-5.879 0-10.661-3.429-10.661-7.661 0-0.429 0.054-0.857 0.147-1.259-0.897-0.442-1.513-1.353-1.513-2.411 0-1.473 1.192-2.665 2.665-2.665 0.763 0 1.446 0.321 1.942 0.844 1.808-1.259 4.219-2.076 6.897-2.17l1.554-6.978c0.054-0.241 0.308-0.402 0.549-0.348l4.942 1.085c0.321-0.643 1.004-1.098 1.781-1.098 1.112 0 2.009 0.897 2.009 1.996 0 1.112-0.897 2.009-2.009 2.009-1.098 0-1.996-0.897-1.996-1.996l-4.473-0.991-1.393 6.321c2.692 0.080 5.129 0.884 6.951 2.143 0.482-0.509 1.165-0.817 1.915-0.817 1.473 0 2.665 1.192 2.665 2.665zM5.598 13.996c0 1.112 0.897 2.009 1.996 2.009 1.112 0 2.009-0.897 2.009-2.009 0-1.098-0.897-1.996-2.009-1.996-1.098 0-1.996 0.897-1.996 1.996zM16.446 18.75c0.201-0.201 0.201-0.496 0-0.696-0.188-0.188-0.496-0.188-0.683 0-0.804 0.817-2.531 1.098-3.763 1.098s-2.96-0.281-3.763-1.098c-0.188-0.188-0.496-0.188-0.683 0-0.201 0.188-0.201 0.496 0 0.696 1.272 1.272 3.723 1.366 4.446 1.366s3.174-0.094 4.446-1.366zM16.406 16.004c1.098 0 1.996-0.897 1.996-2.009 0-1.098-0.897-1.996-1.996-1.996-1.112 0-2.009 0.897-2.009 1.996 0 1.112 0.897 2.009 2.009 2.009z"></path>
</symbol>
<symbol id="icon-twitter" viewBox="0 0 22 24">
<title>twitter</title>
<path d="M21.696 5.464c-0.589 0.857-1.326 1.621-2.17 2.237 0.013 0.188 0.013 0.375 0.013 0.562 0 5.719-4.353 12.308-12.308 12.308-2.451 0-4.728-0.71-6.643-1.942 0.348 0.040 0.683 0.054 1.045 0.054 2.022 0 3.884-0.683 5.371-1.848-1.902-0.040-3.496-1.286-4.045-3 0.268 0.040 0.536 0.067 0.817 0.067 0.388 0 0.777-0.054 1.138-0.147-1.982-0.402-3.469-2.143-3.469-4.246v-0.054c0.576 0.321 1.246 0.522 1.955 0.549-1.165-0.777-1.929-2.103-1.929-3.603 0-0.804 0.214-1.54 0.589-2.183 2.129 2.625 5.33 4.339 8.92 4.527-0.067-0.321-0.107-0.656-0.107-0.991 0-2.384 1.929-4.326 4.326-4.326 1.246 0 2.371 0.522 3.161 1.366 0.978-0.188 1.915-0.549 2.746-1.045-0.321 1.004-1.004 1.848-1.902 2.384 0.871-0.094 1.714-0.335 2.491-0.67z"></path>
</symbol>
<symbol id="icon-github" viewBox="0 0 21 24">
<title>github</title>
<path d="M10.286 1.714c5.679 0 10.286 4.607 10.286 10.286 0 4.54-2.946 8.397-7.031 9.763-0.522 0.094-0.71-0.228-0.71-0.496 0-0.335 0.013-1.446 0.013-2.826 0-0.964-0.321-1.58-0.696-1.902 2.29-0.254 4.701-1.125 4.701-5.076 0-1.125-0.402-2.036-1.058-2.759 0.107-0.268 0.455-1.313-0.107-2.732-0.857-0.268-2.826 1.058-2.826 1.058-0.817-0.228-1.701-0.348-2.571-0.348s-1.754 0.121-2.571 0.348c0 0-1.969-1.326-2.826-1.058-0.563 1.42-0.214 2.464-0.107 2.732-0.656 0.723-1.058 1.634-1.058 2.759 0 3.937 2.397 4.821 4.688 5.076-0.295 0.268-0.562 0.723-0.656 1.379-0.589 0.268-2.089 0.723-2.987-0.857-0.563-0.978-1.58-1.058-1.58-1.058-1.004-0.013-0.067 0.629-0.067 0.629 0.67 0.308 1.138 1.5 1.138 1.5 0.603 1.835 3.469 1.219 3.469 1.219 0 0.857 0.013 1.661 0.013 1.915 0 0.268-0.188 0.589-0.71 0.496-4.085-1.366-7.031-5.223-7.031-9.763 0-5.679 4.607-10.286 10.286-10.286zM3.897 16.487c0.027-0.054-0.013-0.121-0.094-0.161-0.080-0.027-0.147-0.013-0.174 0.027-0.027 0.054 0.013 0.121 0.094 0.161 0.067 0.040 0.147 0.027 0.174-0.027zM4.313 16.942c0.054-0.040 0.040-0.134-0.027-0.214-0.067-0.067-0.161-0.094-0.214-0.040-0.054 0.040-0.040 0.134 0.027 0.214 0.067 0.067 0.161 0.094 0.214 0.040zM4.714 17.545c0.067-0.054 0.067-0.161 0-0.254-0.054-0.094-0.161-0.134-0.228-0.080-0.067 0.040-0.067 0.147 0 0.241s0.174 0.134 0.228 0.094zM5.277 18.107c0.054-0.054 0.027-0.174-0.054-0.254-0.094-0.094-0.214-0.107-0.268-0.040-0.067 0.054-0.040 0.174 0.054 0.254 0.094 0.094 0.214 0.107 0.268 0.040zM6.040 18.442c0.027-0.080-0.054-0.174-0.174-0.214-0.107-0.027-0.228 0.013-0.254 0.094s0.054 0.174 0.174 0.201c0.107 0.040 0.228 0 0.254-0.080zM6.884 18.509c0-0.094-0.107-0.161-0.228-0.147-0.121 0-0.214 0.067-0.214 0.147 0 0.094 0.094 0.161 0.228 0.147 0.121 0 0.214-0.067 0.214-0.147zM7.661 18.375c-0.013-0.080-0.121-0.134-0.241-0.121-0.121 0.027-0.201 0.107-0.188 0.201 0.013 0.080 0.121 0.134 0.241 0.107s0.201-0.107 0.188-0.188z"></path>
</symbol>
<symbol id="icon-linkedin" viewBox="0 0 21 24">
<title>linkedin</title>
<path d="M4.674 8.371v13.272h-4.42v-13.272h4.42zM4.955 4.272c0.013 1.272-0.951 2.29-2.491 2.29v0h-0.027c-1.487 0-2.438-1.018-2.438-2.29 0-1.299 0.991-2.29 2.491-2.29 1.513 0 2.451 0.991 2.464 2.29zM20.571 14.036v7.607h-4.406v-7.098c0-1.781-0.643-3-2.237-3-1.219 0-1.942 0.817-2.263 1.607-0.107 0.295-0.147 0.683-0.147 1.085v7.406h-4.406c0.054-12.027 0-13.272 0-13.272h4.406v1.929h-0.027c0.576-0.911 1.621-2.237 4.004-2.237 2.906 0 5.076 1.902 5.076 5.973z"></path>
</symbol>
<symbol id="icon-youtube" viewBox="0 0 24 24">
<title>youtube</title>
<path d="M9.522 15.107l6.482-3.348-6.482-3.388v6.737zM12 3.563c5.049 0 8.397 0.241 8.397 0.241 0.469 0.054 1.5 0.054 2.411 1.018 0 0 0.737 0.723 0.951 2.384 0.254 1.942 0.241 3.884 0.241 3.884v1.821s0.013 1.942-0.241 3.884c-0.214 1.647-0.951 2.384-0.951 2.384-0.911 0.951-1.942 0.951-2.411 1.004 0 0-3.348 0.254-8.397 0.254v0c-6.241-0.054-8.156-0.241-8.156-0.241-0.536-0.094-1.741-0.067-2.652-1.018 0 0-0.737-0.737-0.951-2.384-0.254-1.942-0.241-3.884-0.241-3.884v-1.821s-0.013-1.942 0.241-3.884c0.214-1.661 0.951-2.384 0.951-2.384 0.911-0.964 1.942-0.964 2.411-1.018 0 0 3.348-0.241 8.397-0.241v0z"></path>
</symbol>
<symbol id="icon-instagram" viewBox="0 0 21 24">
<title>instagram</title>
<path d="M13.714 12c0-1.888-1.54-3.429-3.429-3.429s-3.429 1.54-3.429 3.429 1.54 3.429 3.429 3.429 3.429-1.54 3.429-3.429zM15.563 12c0 2.92-2.357 5.277-5.277 5.277s-5.277-2.357-5.277-5.277 2.357-5.277 5.277-5.277 5.277 2.357 5.277 5.277zM17.009 6.509c0 0.683-0.549 1.232-1.232 1.232s-1.232-0.549-1.232-1.232 0.549-1.232 1.232-1.232 1.232 0.549 1.232 1.232zM10.286 3.563c-1.5 0-4.714-0.121-6.067 0.415-0.469 0.188-0.817 0.415-1.179 0.777s-0.589 0.71-0.777 1.179c-0.536 1.353-0.415 4.567-0.415 6.067s-0.121 4.714 0.415 6.067c0.188 0.469 0.415 0.817 0.777 1.179s0.71 0.589 1.179 0.777c1.353 0.536 4.567 0.415 6.067 0.415s4.714 0.121 6.067-0.415c0.469-0.188 0.817-0.415 1.179-0.777s0.589-0.71 0.777-1.179c0.536-1.353 0.415-4.567 0.415-6.067s0.121-4.714-0.415-6.067c-0.188-0.469-0.415-0.817-0.777-1.179s-0.71-0.589-1.179-0.777c-1.353-0.536-4.567-0.415-6.067-0.415zM20.571 12c0 1.42 0.013 2.826-0.067 4.246-0.080 1.647-0.455 3.107-1.661 4.313s-2.665 1.58-4.313 1.661c-1.42 0.080-2.826 0.067-4.246 0.067s-2.826 0.013-4.246-0.067c-1.647-0.080-3.107-0.455-4.313-1.661s-1.58-2.665-1.661-4.313c-0.080-1.42-0.067-2.826-0.067-4.246s-0.013-2.826 0.067-4.246c0.080-1.647 0.455-3.107 1.661-4.313s2.665-1.58 4.313-1.661c1.42-0.080 2.826-0.067 4.246-0.067s2.826-0.013 4.246 0.067c1.647 0.080 3.107 0.455 4.313 1.661s1.58 2.665 1.661 4.313c0.080 1.42 0.067 2.826 0.067 4.246z"></path>
</symbol>
<symbol id="icon-facebook" viewBox="0 0 21 24">
<title>facebook</title>
<path d="M19.433 1.714c0.629 0 1.138 0.509 1.138 1.138v18.295c0 0.629-0.509 1.138-1.138 1.138h-5.237v-7.969h2.665l0.402-3.107h-3.067v-1.982c0-0.897 0.241-1.5 1.54-1.5l1.634-0.013v-2.772c-0.281-0.040-1.259-0.121-2.384-0.121-2.371 0-4.004 1.446-4.004 4.098v2.29h-2.679v3.107h2.679v7.969h-9.844c-0.629 0-1.138-0.509-1.138-1.138v-18.295c0-0.629 0.509-1.138 1.138-1.138h18.295z"></path>
</symbol>
<symbol id="icon-pinterest" viewBox="0 0 17 24">
<title>pinterest</title>
<path d="M0 7.996c0-4.942 4.527-7.996 9.107-7.996 4.205 0 8.036 2.893 8.036 7.326 0 4.165-2.129 8.786-6.871 8.786-1.125 0-2.545-0.563-3.094-1.607-1.018 4.031-0.938 4.634-3.188 7.714l-0.188 0.067-0.121-0.134c-0.080-0.844-0.201-1.674-0.201-2.518 0-2.732 1.259-6.683 1.875-9.335-0.335-0.683-0.429-1.513-0.429-2.263 0-1.353 0.938-3.067 2.464-3.067 1.125 0 1.728 0.857 1.728 1.915 0 1.741-1.179 3.375-1.179 5.063 0 1.152 0.951 1.955 2.062 1.955 3.080 0 4.031-4.446 4.031-6.817 0-3.174-2.25-4.902-5.29-4.902-3.536 0-6.268 2.545-6.268 6.134 0 1.728 1.058 2.612 1.058 3.027 0 0.348-0.254 1.58-0.696 1.58-0.067 0-0.161-0.027-0.228-0.040-1.915-0.576-2.612-3.134-2.612-4.888z"></path>
</symbol>
<symbol id="icon-whatsapp" viewBox="0 0 21 24">
<title>whatsapp</title>
<path d="M13.192 13.045c0.228 0 2.411 1.138 2.504 1.299 0.027 0.067 0.027 0.147 0.027 0.201 0 0.335-0.107 0.71-0.228 1.018-0.308 0.75-1.554 1.232-2.317 1.232-0.643 0-1.969-0.563-2.545-0.83-1.915-0.871-3.107-2.357-4.259-4.058-0.509-0.75-0.964-1.674-0.951-2.598v-0.107c0.027-0.884 0.348-1.513 0.991-2.116 0.201-0.188 0.415-0.295 0.696-0.295 0.161 0 0.321 0.040 0.496 0.040 0.362 0 0.429 0.107 0.563 0.455 0.094 0.228 0.777 2.049 0.777 2.183 0 0.509-0.924 1.085-0.924 1.393 0 0.067 0.027 0.134 0.067 0.201 0.295 0.629 0.857 1.353 1.366 1.835 0.616 0.589 1.272 0.978 2.022 1.353 0.094 0.054 0.188 0.094 0.295 0.094 0.402 0 1.071-1.299 1.42-1.299zM10.473 20.143c4.634 0 8.411-3.777 8.411-8.411s-3.777-8.411-8.411-8.411-8.411 3.777-8.411 8.411c0 1.768 0.563 3.496 1.607 4.929l-1.058 3.121 3.241-1.031c1.366 0.897 2.987 1.393 4.621 1.393zM10.473 1.634c5.571 0 10.098 4.527 10.098 10.098s-4.527 10.098-10.098 10.098c-1.701 0-3.388-0.429-4.888-1.259l-5.585 1.795 1.821-5.424c-0.951-1.567-1.446-3.375-1.446-5.21 0-5.571 4.527-10.098 10.098-10.098z"></path>
</symbol>
<symbol id="icon-sunny" viewBox="0 0 24 24">
<title>sunny</title>
<path d="M12 18.141c-0.398 0-0.722 0.323-0.722 0.722v2.166c0 0.398 0.323 0.722 0.722 0.722s0.722-0.323 0.722-0.722v-2.166c0-0.398-0.323-0.722-0.722-0.722zM12 2.25c-0.398 0-0.722 0.323-0.722 0.722v2.166c0 0.398 0.323 0.722 0.722 0.722s0.722-0.323 0.722-0.722v-2.166c0-0.398-0.323-0.722-0.722-0.722zM5.859 12c0-0.398-0.323-0.722-0.722-0.722h-2.166c-0.398 0-0.722 0.323-0.722 0.722s0.323 0.722 0.722 0.722h2.166c0.398 0 0.722-0.323 0.722-0.722zM21.028 11.278h-2.166c-0.398 0-0.722 0.323-0.722 0.722s0.323 0.722 0.722 0.722h2.166c0.398 0 0.722-0.323 0.722-0.722s-0.323-0.722-0.722-0.722zM7.148 16.13c-0.192 0-0.375 0.075-0.511 0.211l-1.533 1.533c-0.136 0.136-0.211 0.319-0.211 0.511s0.075 0.375 0.211 0.511c0.136 0.136 0.319 0.211 0.511 0.211s0.375-0.075 0.511-0.211l1.533-1.533c0.281-0.281 0.281-0.741 0-1.022-0.136-0.136-0.319-0.211-0.511-0.211zM16.852 7.87c0.192 0 0.375-0.075 0.511-0.211l1.533-1.533c0.136-0.136 0.211-0.319 0.211-0.511s-0.075-0.375-0.211-0.511c-0.136-0.136-0.319-0.211-0.511-0.211s-0.375 0.075-0.511 0.211l-1.533 1.533c-0.136 0.136-0.211 0.319-0.211 0.511s0.075 0.375 0.211 0.511c0.136 0.136 0.319 0.211 0.511 0.211zM6.127 5.105c-0.136-0.136-0.319-0.211-0.511-0.211s-0.375 0.075-0.511 0.211c-0.136 0.136-0.211 0.319-0.211 0.511s0.075 0.375 0.211 0.511l1.533 1.533c0.136 0.136 0.319 0.211 0.511 0.211s0.375-0.075 0.511-0.211c0.136-0.136 0.211-0.319 0.211-0.511s-0.075-0.375-0.211-0.511l-1.533-1.533zM17.362 16.341c-0.136-0.136-0.319-0.211-0.511-0.211s-0.375 0.075-0.511 0.211c-0.281 0.281-0.281 0.741 0 1.022l1.533 1.533c0.136 0.136 0.319 0.211 0.511 0.211s0.375-0.075 0.511-0.211c0.136-0.136 0.211-0.319 0.211-0.511s-0.075-0.375-0.211-0.511l-1.533-1.533zM12 7.5c-2.48 0-4.5 2.020-4.5 4.5s2.020 4.5 4.5 4.5 4.5-2.020 4.5-4.5-2.020-4.5-4.5-4.5z"></path>
</symbol>
<symbol id="icon-user" viewBox="0 0 24 24">
<title>user</title>
<path d="M12 2.25c-5.039 0-9.183 3.821-9.694 8.723-0.037 0.337-0.056 0.68-0.056 1.027s0.019 0.689 0.056 1.027c0.511 4.904 4.654 8.723 9.694 8.723 5.386 0 9.75-4.364 9.75-9.75s-4.364-9.75-9.75-9.75zM18.366 17.536c-1.064-0.404-2.789-0.994-3.862-1.313-0.112-0.033-0.127-0.042-0.127-0.502 0-0.38 0.154-0.764 0.31-1.092 0.169-0.352 0.361-0.947 0.431-1.481 0.197-0.229 0.469-0.679 0.637-1.542 0.15-0.759 0.080-1.036-0.019-1.294-0.009-0.028-0.023-0.056-0.029-0.079-0.038-0.178 0.014-1.102 0.145-1.819 0.089-0.492-0.023-1.538-0.698-2.405-0.427-0.548-1.247-1.219-2.742-1.313h-0.82c-1.472 0.094-2.287 0.764-2.719 1.313-0.68 0.867-0.792 1.913-0.704 2.405 0.131 0.717 0.183 1.641 0.146 1.819-0.009 0.033-0.019 0.056-0.028 0.085-0.098 0.258-0.173 0.535-0.019 1.294 0.173 0.863 0.441 1.313 0.637 1.542 0.071 0.534 0.267 1.125 0.431 1.481 0.122 0.258 0.178 0.61 0.178 1.106 0 0.464-0.019 0.469-0.122 0.502-1.111 0.328-2.761 0.909-3.75 1.303-1.35-1.542-2.081-3.488-2.081-5.546 0-2.255 0.877-4.373 2.471-5.967s3.713-2.471 5.967-2.471c2.255 0 4.373 0.877 5.967 2.471s2.471 3.712 2.471 5.967c0 2.058-0.731 4.004-2.072 5.536z"></path>
</symbol>
<symbol id="icon-search" viewBox="0 0 24 24">
<title>search</title>
<path d="M16.639 15.641c-0.551 0.001-0.998 0.449-0.998 1 0 0.281 0.116 0.535 0.302 0.716l4.35 4.35c0.182 0.19 0.438 0.307 0.721 0.307 0.552 0 1-0.448 1-1 0-0.283-0.118-0.539-0.307-0.721l-0-0-4.35-4.35c-0.182-0.187-0.436-0.303-0.717-0.303-0.001 0-0.001 0-0.002 0h0zM11 2c-4.959 0-9 4.041-9 9s4.041 9 9 9c4.959 0 9-4.041 9-9s-4.041-9-9-9zM11 4c3.878 0 7 3.122 7 7s-3.122 7-7 7c-3.878 0-7-3.122-7-7s3.122-7 7-7z"></path>
</symbol>
<symbol id="icon-arrow-round" viewBox="0 0 24 24">
<title>arrow-round</title>
<path d="M16.327 10.144c-0.234 0.239-0.623 0.239-0.863 0.005l-2.855-2.845v10.842c0 0.333-0.272 0.605-0.609 0.605s-0.609-0.272-0.609-0.605v-10.842l-2.855 2.85c-0.239 0.234-0.623 0.23-0.863-0.005-0.234-0.239-0.234-0.619 0.005-0.858l3.891-3.862c0.056-0.052 0.117-0.094 0.192-0.127s0.155-0.047 0.234-0.047c0.159 0 0.309 0.061 0.427 0.173l3.891 3.862c0.244 0.23 0.248 0.614 0.014 0.853z"></path>
</symbol>
<symbol id="icon-send" viewBox="0 0 24 24">
<title>send</title>
<path d="M20.433 3.042l-17.208 7.5c-0.305 0.145-0.295 0.581 0.014 0.717l4.655 2.63c0.277 0.155 0.619 0.122 0.858-0.084l9.178-7.913c0.061-0.052 0.206-0.15 0.263-0.094 0.061 0.061-0.033 0.202-0.084 0.263l-7.941 8.944c-0.22 0.248-0.253 0.614-0.075 0.895l3.042 4.88c0.15 0.295 0.577 0.291 0.712-0.009l7.116-17.208c0.155-0.338-0.197-0.68-0.53-0.52z"></path>
</symbol>
<symbol id="icon-globe" viewBox="0 0 24 24">
<title>globe</title>
<path d="M12 2.25c-5.385 0-9.75 4.365-9.75 9.75s4.365 9.75 9.75 9.75c5.385 0 9.75-4.365 9.75-9.75s-4.365-9.75-9.75-9.75zM10.99 20.297c-1.85-0.222-3.561-1.050-4.899-2.387-1.578-1.578-2.448-3.677-2.448-5.909 0-2.010 0.705-3.911 1.997-5.422 0.033 0.399 0.115 0.827 0.094 1.133-0.077 1.115-0.187 1.813 0.466 2.754 0.254 0.367 0.317 0.892 0.441 1.316 0.121 0.415 0.605 0.633 0.938 0.888 0.673 0.516 1.317 1.116 2.031 1.57 0.471 0.3 0.765 0.449 0.627 1.024-0.111 0.462-0.142 0.747-0.381 1.159-0.073 0.126 0.275 0.934 0.391 1.050 0.351 0.351 0.7 0.674 1.083 0.99 0.594 0.491-0.058 1.128-0.341 1.834zM17.909 17.909c-1.202 1.202-2.705 1.992-4.339 2.301 0.232-0.573 0.644-1.081 1.026-1.376 0.333-0.257 0.749-0.75 0.923-1.141s0.404-0.729 0.636-1.088c0.331-0.511-0.817-1.281-1.188-1.443-0.837-0.363-1.467-0.854-2.211-1.377-0.53-0.373-1.606 0.195-2.204-0.066-0.819-0.358-1.495-0.98-2.207-1.516-0.735-0.554-0.699-1.199-0.699-2.015 0.576 0.021 1.395-0.159 1.777 0.304 0.121 0.146 0.535 0.799 0.813 0.567 0.227-0.19-0.168-0.949-0.244-1.128-0.235-0.549 0.535-0.763 0.928-1.136 0.514-0.486 1.616-1.248 1.529-1.596s-1.103-1.335-1.699-1.181c-0.089 0.023-0.876 0.848-1.028 0.978 0.004-0.269 0.008-0.539 0.012-0.808 0.003-0.17-0.317-0.345-0.302-0.454 0.037-0.277 0.809-0.78 1.001-1.001-0.134-0.084-0.593-0.478-0.732-0.42-0.336 0.14-0.716 0.237-1.052 0.377 0-0.117-0.014-0.226-0.031-0.334 0.615-0.28 1.33-0.495 2.078-0.611l0.046-0.006 0.66 0.265 0.466 0.553 0.465 0.48 0.407 0.131 0.646-0.609-0.167-0.435v-0.391c1.277 0.186 2.484 0.662 3.54 1.397-0.189 0.017-0.397 0.045-0.631 0.075-0.097-0.057-0.221-0.083-0.326-0.123 0.306 0.658 0.625 1.307 0.95 1.957 0.347 0.694 1.115 1.438 1.25 2.17 0.159 0.863 0.049 1.647 0.136 2.663 0.084 0.978 1.103 2.089 1.103 2.089s0.47 0.16 0.862 0.104c-0.365 1.443-1.112 2.766-2.192 3.846z"></path>
</symbol>
<symbol id="icon-star" viewBox="0 0 24 24">
<title>star</title>
<path d="M21.703 9h-6.895l-2.095-6.253c-0.103-0.305-0.389-0.497-0.712-0.497s-0.609 0.192-0.712 0.497l-2.095 6.253h-6.942c-0.412 0-0.75 0.337-0.75 0.75 0 0.042 0.005 0.089 0.014 0.127 0.009 0.164 0.084 0.347 0.314 0.53l5.667 3.994-2.175 6.323c-0.108 0.305 0 0.647 0.258 0.844 0.136 0.098 0.262 0.183 0.422 0.183 0.155 0 0.337-0.080 0.469-0.169l5.531-3.942 5.531 3.942c0.131 0.094 0.314 0.169 0.469 0.169 0.159 0 0.286-0.080 0.417-0.183 0.263-0.197 0.366-0.534 0.258-0.844l-2.175-6.323 5.62-4.031 0.136-0.117c0.122-0.131 0.244-0.309 0.244-0.502 0-0.413-0.384-0.75-0.797-0.75z"></path>
</symbol>
<symbol id="icon-link" viewBox="0 0 24 24">
<title>link</title>
<path d="M13.125 15.989l-0.056 0.005c-0.169 0.019-0.328 0.094-0.45 0.211l-3.028 3.028c-0.642 0.642-1.5 0.994-2.414 0.994s-1.772-0.352-2.414-0.994c-0.642-0.642-0.994-1.5-0.994-2.414s0.352-1.772 0.994-2.414l3.216-3.216c0.164-0.164 0.342-0.309 0.534-0.436 0.216-0.141 0.45-0.262 0.694-0.352 0.225-0.084 0.464-0.141 0.703-0.173 0.159-0.023 0.323-0.033 0.478-0.033 0.066 0 0.131 0.005 0.216 0.009 0.83 0.052 1.613 0.403 2.194 0.984 0.361 0.361 0.638 0.802 0.802 1.28 0.131 0.375 0.525 0.586 0.905 0.473 0.005 0 0.009-0.005 0.014-0.005s0.009 0 0.009-0.005c0.38-0.117 0.6-0.516 0.492-0.895-0.206-0.731-0.572-1.345-1.153-1.922-0.731-0.731-1.683-1.209-2.7-1.373-0.089-0.014-0.178-0.028-0.267-0.038-0.173-0.019-0.347-0.028-0.52-0.028-0.122 0-0.244 0.005-0.361 0.014-0.253 0.019-0.506 0.056-0.759 0.117-0.052 0.009-0.098 0.023-0.15 0.037-0.314 0.084-0.623 0.197-0.914 0.342-0.483 0.239-0.919 0.548-1.298 0.933l-3.216 3.216c-0.919 0.933-1.43 2.17-1.43 3.492s0.511 2.559 1.439 3.487c0.928 0.923 2.166 1.434 3.483 1.434 1.322 0 2.559-0.511 3.488-1.439l3.061-3.061c0.487-0.492 0.094-1.327-0.595-1.261z"></path>
<path d="M20.311 3.689c-0.928-0.928-2.166-1.439-3.483-1.439s-2.559 0.511-3.487 1.439l-2.986 2.986c-0.455 0.455-0.169 1.233 0.473 1.284 0.22 0.019 0.436-0.061 0.595-0.216l2.991-2.981c0.642-0.642 1.5-0.994 2.414-0.994s1.772 0.352 2.414 0.994c0.642 0.642 0.994 1.5 0.994 2.414s-0.352 1.772-0.994 2.414l-3.216 3.216c-0.164 0.164-0.342 0.309-0.534 0.436-0.216 0.141-0.45 0.262-0.694 0.352-0.225 0.084-0.464 0.141-0.703 0.173-0.159 0.023-0.323 0.033-0.478 0.033-0.066 0-0.136-0.005-0.216-0.009-0.83-0.052-1.613-0.403-2.194-0.984-0.342-0.342-0.6-0.75-0.769-1.195-0.136-0.361-0.52-0.558-0.895-0.459-0.417 0.108-0.661 0.548-0.53 0.961 0.211 0.656 0.567 1.214 1.111 1.758l0.009 0.009c0.792 0.792 1.847 1.294 2.967 1.411 0.173 0.019 0.347 0.028 0.52 0.028 0.122 0 0.244-0.005 0.366-0.014 0.305-0.023 0.609-0.075 0.905-0.15 0.314-0.084 0.623-0.197 0.914-0.342 0.483-0.239 0.919-0.548 1.298-0.933l3.216-3.216c0.928-0.928 1.439-2.166 1.439-3.487s-0.52-2.559-1.448-3.488z"></path>
</symbol>
<symbol id="icon-chat" viewBox="0 0 20 20">
<title>chat</title>
<path d="M15.651 11.67v-7.804c0-0.771-0.625-1.398-1.398-1.398h-12.232c-0.772-0.001-1.398 0.626-1.398 1.398v7.804c0 0.772 0.626 1.398 1.398 1.398h2.331v3.211l3.565-3.211h6.336c0.773 0 1.398-0.626 1.398-1.398zM17.978 5.536h-1.749c0 0 0 6.232 0 6.818s-0.76 1.339-1.346 1.339-6.841 0.034-6.841 0.034c0 0.772 0.626 1.241 1.398 1.241h2.693l3.514 3.189-0.004-3.189h2.335c0.773 0 1.398-0.469 1.398-1.241v-6.832c0-0.771-0.625-1.359-1.398-1.359z"></path>
</symbol>
<symbol id="icon-arrow" viewBox="0 0 24 24">
<title>arrow</title>
<path d="M7.406 8.578l4.594 4.594 4.594-4.594 1.406 1.406-6 6-6-6z"></path>
</symbol>
<symbol id="icon-close" viewBox="0 0 24 24">
<title>close</title>
<path d="M18.984 6.422l-5.578 5.578 5.578 5.578-1.406 1.406-5.578-5.578-5.578 5.578-1.406-1.406 5.578-5.578-5.578-5.578 1.406-1.406 5.578 5.578 5.578-5.578z"></path>
</symbol>
<symbol id="icon-favorite" viewBox="0 0 24 24">
<title>favorite</title>
<path d="M12 21.328l-1.453-1.313c-5.156-4.688-8.531-7.734-8.531-11.531 0-3.094 2.391-5.484 5.484-5.484 1.734 0 3.422 0.844 4.5 2.109 1.078-1.266 2.766-2.109 4.5-2.109 3.094 0 5.484 2.391 5.484 5.484 0 3.797-3.375 6.891-8.531 11.578z"></path>
</symbol>
<symbol id="icon-rss" viewBox="0 0 24 24">
<title>rss</title>
<path d="M3.984 10.078c5.484 0 9.938 4.453 9.938 9.938h-2.859c0-3.891-3.188-7.078-7.078-7.078v-2.859zM3.984 4.453c8.578 0 15.563 6.984 15.563 15.563h-2.813c0-7.031-5.719-12.75-12.75-12.75v-2.813zM3.984 17.813c0-1.219 0.984-2.156 2.203-2.156s2.156 0.938 2.156 2.156-0.938 2.203-2.156 2.203-2.203-0.984-2.203-2.203z"></path>
</symbol>
</defs>
</svg>
