<svg viewBox="0 0 912 250" xmlns="http://www.w3.org/2000/svg" fill-rule="evenodd" clip-rule="evenodd" stroke-linecap="round" stroke-linejoin="round" stroke-miterlimit="1.5"><path d="M4096.5 3294c3.98 0 12.19.79 13.64.5" fill="none" stroke="#6de04b" stroke-width="1.74" transform="matrix(-1.088 .29153 .3044 1.13605 4217.936 -4758.08)"/><path d="M4096.5 3294c.52.39 5.16.32 12 0" fill="none" stroke="#6de04b" stroke-width="2.09" transform="matrix(-.6528 .17492 .3044 1.13605 2439.32 -4264.709)"/><path d="M4096.5 3294c6.62-.43 10.48-.41 12 0" fill="none" stroke="#6de04b" stroke-width="1.91" transform="matrix(-.8704 .23322 .3044 1.13605 3328.633 -4511.39)"/><path d="M766.229 169.1c-.55-2.06.522-4 1.983-4.594a55.06 55.06 0 016.754-2.27c12.32-3.301 32.418-8.212 39.562-10.127 2.118-.567 3.952.58 4.695 3.401.721 2.745 1.117 4.725 2.53 9.83 2.233 8.07 5.018 18.103 5.975 22.491.274 1.254-.624 2.794-1.85 3.204-4.936 1.634-15.25 4.98-25.68 7.748-7.931 2.098-16.44 3.362-20.203 4.574-1.948.616-4.025.062-4.491-1.532-1.106-3.78-3.737-11.458-5.715-18.336-1.704-5.921-2.685-11.116-3.56-14.389z" fill="#fff"/><path d="M815.682 151.963l.092.002.095.015.088.004.093.016.09.016.089.017.087.017.09.03.086.018.087.03.085.032.084.032.083.032.081.032.083.045.083.046.08.046.08.047.076.047.076.047.077.06.073.05.075.06.072.062.072.062.072.076.068.063.07.076.067.076.067.077.064.078.063.078.064.091.059.08.061.091.058.093.058.093.055.093.056.107.052.095.053.107.051.109.05.108.047.11.048.122.043.11.045.124.043.123.036.113.042.137.037.126.035.126.132.506.126.495.123.495.12.482.243.991.129.521.134.546.143.571.15.597.162.634.18.696.193.734.1.38.109.403.113.417.12.442.125.454.129.466.858 3.102.438 1.589.445 1.614.44 1.602.44 1.602.428 1.578.208.77.209.77.203.758.2.746.195.733.187.708.186.709.176.67.173.672.164.633.157.621.15.597.145.584.134.546.122.51.117.496.105.46.05.216.044.205.013.064.01.052.009.065.004.053.007.066.005.066v.054l.002.068-.001.054-.001.068-.006.056-.004.069-.008.056-.01.057-.008.07-.013.057-.014.058-.011.07-.016.06-.018.058-.018.06-.02.059-.02.06-.023.06-.023.06-.024.06-.026.062-.03.048-.026.062-.03.062-.03.049-.03.062-.035.05-.032.062-.035.05-.038.051-.037.05-.038.052-.039.05-.04.052-.04.051-.04.052-.046.039-.042.052-.045.04-.043.051-.047.04-.048.04-.048.04-.049.04-.048.04-.05.04-.052.028-.05.04-.054.028-.05.041-.054.028-.055.028-.053.028-.055.028-.055.028-.058.016-.055.028-.059.016-.985.332-1.109.351-1.213.406-.65.202-.67.22-.696.227-.717.233-.743.226-.76.244-.78.25-.804.242-.817.26-.837.251-.849.268-.868.26-.879.276-.894.267-.907.27-.917.273-.927.275-.939.265-.944.28-.954.27-.96.27-.964.272-.485.13-.487.13-.486.13-.485.144-.488.13-.489.132-.487.13-.49.132-.374.087-.372.1-.373.099-.376.087-.372.1-.376.087-.372.1-.376.087-.375.087-.375.087-.373.086-.373.087-.372.086-.372.086-.743.159-.738.157-.732.155-.726.154-.717.152-.708.149-.7.147-1.371.272-1.32.273-.64.13-.624.127-.605.135-.593.118-.572.126-.554.122-.27.059-.265.057-.26.056-.252.068-.25.053-.24.065-.24.05-.23.062-.225.06-.218.059-.214.057-.206.055-.2.054-.195.052-.186.063-.178.062-.093.024-.092.025-.092.025-.09.024-.091.024-.095.012-.089.024-.093.012-.093.01-.088.024-.09.011-.096-.002-.088.01-.09.011-.091-.002-.088.01-.09-.003-.086.01-.088-.004-.087-.004-.087-.004-.088-.017-.085-.004-.086-.018-.083-.005-.084-.018-.082-.018-.08-.006-.08-.02-.079-.019-.082-.032-.077-.02-.074-.02-.078-.034-.072-.022-.074-.034-.073-.034-.07-.036-.066-.023-.072-.048-.065-.037-.064-.037-.062-.038-.06-.037-.063-.051-.06-.052-.055-.04-.056-.052-.055-.053-.052-.054-.05-.054-.048-.055-.046-.056-.044-.055-.042-.057-.041-.07-.037-.058-.035-.058-.036-.072-.033-.072-.028-.06-.029-.074-.025-.075-.023-.074-.108-.364-.117-.389-.126-.413-.132-.425-.14-.45-.145-.462-.154-.487-.158-.5-.34-1.06-.352-1.097-.373-1.16-.385-1.196-.398-1.248-.401-1.26-.203-.636-.204-.65-.204-.65-.205-.662-.202-.65-.203-.663-.2-.651-.2-.664-.195-.652-.194-.652-.19-.654-.186-.64-.158-.554-.155-.554-.15-.543-.143-.53-.144-.544-.135-.519-.134-.519-.132-.52-.127-.507-.125-.509-.121-.495-.12-.497-.115-.483-.11-.472-.112-.47-.11-.472-.205-.893-.199-.868-.194-.842-.185-.803-.09-.383-.086-.37-.088-.368-.087-.356-.084-.343-.082-.33-.086-.33-.083-.316-.023-.088-.023-.102-.02-.09-.018-.104-.014-.09-.013-.092-.01-.092-.011-.105-.007-.093-.004-.094-.003-.094-.002-.094.005-.083.002-.095.005-.096.01-.084.008-.097.012-.085.014-.085.016-.085.015-.099.018-.086.02-.087.025-.074.022-.087.025-.088.03-.076.027-.088.03-.076.033-.077.034-.077.036-.077.036-.077.037-.078.038-.078.043-.065.04-.079.044-.066.046-.066.047-.067.047-.067.048-.067.049-.067.049-.067.054-.056.054-.055.052-.068.056-.055.055-.056.06-.043.057-.056.058-.056.062-.044.062-.043.058-.057.066-.03.063-.045.063-.044.064-.044.066-.031.068-.032.067-.031.068-.032.067-.032.312-.124.326-.128.34-.132.354-.135.367-.14.188-.077.194-.065.198-.067.199-.08.204-.068.21-.07.212-.07.216-.072.22-.072.223-.074.223-.087.235-.063.234-.076.24-.077.242-.079.249-.067.25-.08.256-.069.257-.082.265-.071.268-.072.272-.073 1.177-.315 1.218-.327 1.26-.324 1.292-.332 1.318-.354 1.349-.347 1.37-.354 1.389-.359 1.407-.35 1.416-.365 1.426-.355 1.426-.369 2.851-.723 2.821-.716 5.434-1.36 2.549-.643 2.395-.615 1.13-.29 1.086-.263 1.027-.275.974-.248.913-.23.846-.227.782-.196.706-.19.099-.026.098-.026.1-.013.096-.026.097-.013.097-.012.096-.012.095-.012.096.001.096.002.09-.011.094.002zm-.152 2.004l-.044-.002-.044-.001-.042.011h-.049l-.045.012h-.05l-.05.013-.052.014-.053.014-.068.018-.7.188-.787.197-.85.228-.916.232-.975.247-1.033.264-1.083.276-1.134.29-2.399.603-2.547.655-5.433 1.361-2.82.715-2.85.723-1.43.356-1.42.367-1.414.366-1.407.35-1.387.358-1.368.353-1.347.347-1.32.34-1.285.344-1.256.323-1.214.326-1.172.314-.264.07-.26.07-.255.069-.249.08-.248.066-.24.078-.242.065-.234.076-.229.075-.23.061-.222.074-.219.072-.215.071-.211.07-.208.07-.206.068-.197.08-.197.066-.195.066-.19.065-.185.076-.181.062-.357.137-.341.132-.328.128-.315.125-.292.119-.03.008-.018.005-.017.018-.02.005-.022.006-.019.019-.022.006-.02.019-.021.019-.025.006-.023.02-.022.02-.023.02-.023.019-.024.02-.022.033-.025.02-.024.02-.021.033-.025.02-.022.033-.022.033-.022.033-.025.02-.021.033-.022.033-.02.033-.019.045-.02.033-.021.032-.02.033-.016.045-.02.032-.016.045-.015.045-.018.032-.013.044-.014.044-.012.044-.011.044-.013.044-.01.043-.01.043-.01.044-.008.042-.004.055-.007.043-.007.043-.002.054-.004.042v.054l-.002.041.001.054-.001.041.004.053.004.053.005.053.003.04.008.052.008.052.01.052.01.05.013.052.019.076.08.303.088.342.085.343.088.356.086.356.09.369.089.382.092.395.182.79.194.843.198.868.206.892.11.472.108.459.11.47.116.485.116.483.121.496.123.495.127.508.128.507.133.52.137.518.14.531.144.53.146.53.151.542.154.541.186.641.187.64.194.653.195.652.197.651.199.651.2.65.2.651.203.65.203.65.204.65.203.636.4 1.26.396 1.235.384 1.197.373 1.16.357 1.109.336 1.047.16.512.155.487.15.475.14.45.135.437.126.414.12.4.105.352.008.025.003.013h.001l.004.012h.002l.005.012.002-.001.005.012h.002l.006.012.003-.001.007.011.005-.001.008.011.01.011.011.01.008-.001.013.01.014.01.016.009.016.009.022.021.019.009.021.008.024.007.027.02.026.006.028.006.032.019.03.005.036.018.033.004.038.017.037.004.038.003.043.016.04.002.043.003.047.014.045.002h.046l.048.002h.253l.053-.001.054-.001.055-.001.053-.015.057-.001.058-.002.055-.015.054-.015.06-.002.055-.015.057-.015.057-.015.058-.016.059-.016.07-.019.185-.062.208-.056.207-.07.216-.057.221-.06.226-.06.23-.062.235-.063.24-.064.248-.053.249-.066.257-.056.261-.056.264-.07.27-.06.277-.06.56-.124.584-.115.596-.133.613-.123.625-.14.641-.132 1.323-.26 1.366-.284.7-.134.705-.148.714-.15.72-.153.727-.154.727-.168.738-.157.367-.085.367-.085.37-.085.368-.085.37-.086.37-.086.37-.085.368-.099.37-.085.37-.086.367-.098.365-.098.37-.085.365-.098.485-.13.484-.13.486-.13.485-.13.485-.13.48-.142.484-.13.481-.13.96-.27.954-.269.949-.268.939-.278.934-.264.923-.275.913-.271.902-.27.89-.265.875-.275.864-.258.85-.255.83-.263.818-.246.795-.254.778-.25.76-.23.738-.238.715-.233.691-.225.672-.208.644-.213 1.213-.392 1.102-.363.97-.328.016-.004.005-.002.006-.001.006-.002.008-.002.01-.003.01-.002.006-.016.012-.003.012-.003.01-.016.013-.004.015-.004.012-.017.015-.003.013-.017.013-.018.017-.004.015-.018.014-.017.014-.017.016-.018.014-.017.014-.018.016-.017.016-.018.014-.018.014-.017.012-.03.015-.018.015-.017.013-.017.008-.03.014-.017.01-.03.012-.016.012-.017.007-.03.01-.015.007-.03.009-.015.008-.016.005-.028.008-.016.002-.028.008-.015.005-.015.003-.015v-.027l.004-.014.003-.015.002-.014v-.027l.002-.014v-.013h.002l-.003-.014h.003l-.003-.013-.002-.013-.002-.013-.042-.192-.046-.204-.102-.447-.115-.484-.122-.509-.134-.546-.138-.56-.15-.596-.155-.608-.165-.646-.172-.659-.174-.67-.184-.696-.19-.72-.193-.721-.2-.746-.203-.758-.207-.77-.21-.77-.428-1.578-.435-1.59-.44-1.602-.445-1.614-.44-1.589-.857-3.101-.129-.467-.124-.454-.12-.442-.113-.416-.112-.417-.105-.392-.192-.734-.18-.696-.165-.647-.154-.609-.142-.571-.135-.546-.128-.521-.244-.991-.119-.483-.121-.482-.123-.482-.129-.493-.027-.101-.03-.1-.03-.1-.028-.088-.03-.087-.032-.086-.033-.086-.03-.073-.035-.086-.034-.072-.033-.072-.035-.072-.033-.059-.034-.059-.033-.058-.036-.058-.036-.059-.033-.045-.037-.058-.034-.045-.034-.045-.035-.044-.032-.033-.036-.044-.031-.032-.034-.032-.033-.032-.033-.032-.03-.019-.032-.032-.03-.019-.03-.019-.03-.019-.03-.019-.03-.019-.03-.019-.031-.019-.03-.019-.029-.006-.03-.018-.029-.006-.033-.019-.03-.005-.03-.006-.03-.005-.036-.018-.032-.005-.034-.004-.034-.004-.037-.004-.036-.004-.04-.003-.036.01-.04-.003z" fill="#00ccb3"/><path d="M401.371 1361.41c2.02 1.62 7.476 5.29 11.731 9.01 2.207 1.93 5.262 4.49 7.59 5.45.82.34 2.174.59 3.042.07 1.698-1.03 6.682-5.04 10.739-7.9 5.161-3.65 10.471-6.67 10.471-6.67" fill="none" stroke="#00ccb3" stroke-width="1.58" transform="matrix(-1.12757 .30213 .34984 1.30561 792.982 -1745.248)"/><g stroke-width="2" stroke-miterlimit="1"><path d="M761.204 64.73c-.78 0-8.09 2.2-10.49 2.79-2.83.71-13.23 5.33-11.98 8.3 1.25 2.97 10.29 3.21 14.07 3.5 9.11.69 15.15.62 23.85 2 3.88.62 11.2 1.94 9.34 6.54-2.26 5.56-23.03 11.27-27.12 12.8-6.42 2.39-20.32 4.29-27.91 6.18-3.7.92-16.23 4.36-19.88 4.36l-549.35 101.16c-34.78 7.14 15.06 13.58 8.78 20.5-6.48 7.14-50.06 7.61-53.49 15.47" fill="none" stroke="#6de04b"/><path d="M765.347 48.76c2.317-1.87 6.604-8.418 8.607-10.807 2.984-3.575 8.528-11.882 9.698-13.842 1.083-1.83 6.733-7.789 7.404-9.262.455-.985 7.96-11.494 11.008-12.626 4.33-1.611 9.966 1.224 11.324 4.942.209.557 1.247 2.839.75 3.587-1.12 1.705-2.122 4.046-3.576 5.773-1.77 2.103-6.33 7.955-8.234 10.708-2.12 3.06-20.757 28.163-23.377 29.607-3.961 2.176-7.543 4.284-11.772 5.453-1.548.428-3.608 1.985-5.023 2.488-.348.132-1.175-.737-1.153-.926.422-3.706 4.344-15.095 4.344-15.095z" fill="#fff" stroke="#00ccb3"/><path d="M762.153 59.407c1.014.115 4.423 1.73 4.302 2.794" fill="none" stroke="#6de04b"/><path d="M766 48.683c.056-.487 5.335 1.06 8.087 3.587 1.639 1.515 2.85 2.992 4.162 4.64m18.46-47.598c2.712.31 6.638 2.517 8.267 4.564.537.675 3.916 3.616 3.745 5.117m-16.199-5.266c6.4.729 10.475 5.238 13.53 9.078" fill="none" stroke="#00ccb3"/><path d="M770.457 50.025c.068-.596 3.963-5.195 4.892-6.639 1.366-2.099 6.041-8.602 6.849-9.859 1.941-3 3.87-5.528 6.12-8.23 1.06-1.269 7.905-9.508 7.942-9.836m-20.907 38.151c.042-.368 2.142-3.168 2.88-4.262 1.755-2.598 3.467-4.819 5.61-7.202 1.004-1.123 5.31-6.32 6.23-7.876.696-1.158 6.598-7.914 7.087-8.493 1.537-1.838 3.939-4.987 4.923-6.737" fill="none" stroke="#6de04b"/></g><g stroke-miterlimit="1"><path d="M127.8 97.25c-4.312.518-8.81 3.209-11.25 6.588-2.43 3.372-4.294 5.47-3.379 13.672 1.248 11.176 8.015 12.415 12.967 14.604 4.952 2.18 12.505.956 16.751-1.508 4.247-2.455 8.372-8.234 8.712-13.258.34-5.033-.859-13.291-6.67-16.914-4.797-2.99-12.407-3.752-17.132-3.184z" fill="#fff" stroke="#00ccb3" stroke-width="2.002"/><path d="M132.54 108.747c-.89 0-.526 1.612.155 1.126.267-.194.445-1.102.226-1.313-.178-.178-.502-.024-.502.13m6.349-1.6c-.559 0 .235 1.96.762 1.426.56-.576-.437-1.508-.437-1.248" fill="none" stroke="#71e150" stroke-width="2.002"/><path d="M1977.64 9237.83c.33 0 1.46.87 1.98 1 2.94.73 5.94 1.22 9.06 1.22 1.47 0 3.33.04 4.65-.68 2.48-1.35 5.55-2.55 7.56-4.59.71-.71 1.64-1.83 2.08-2.72.07-.14.42-.75.49-.75" fill="none" stroke="#71e150" stroke-width="2.68" transform="matrix(.67778 0 0 .81041 -1211.176 -7364.052)"/></g><path d="M883.25 93.491c3.653.732 12.775 1.034 17.552-.519 5.873-1.904 9.407-7.636 10.694-12.242 1.284-4.608-.41-11.39-2.977-15.427-2.569-4.023-8.012-6.9-12.434-8.756-4.39-1.85-9.613-2.58-14.092-2.409-4.414.171-9.427 1.165-12.785 3.435-3.355 2.256-6.17 6.193-7.35 10.144-1.175 3.936-.89 9.945.294 13.49 1.09 3.264 5.026 6.185 6.814 7.78 1.071.959 3.909 1.83 3.909 1.83.573-.106.293 1.684 0 3.11-.425 2.076-1.234 3.33-1.607 4.391-.52 1.477 1.808 1.773 2.061 1.684 2.054-.72 2.745-.813 5.165-2.205 2.662-1.54 3.795-3.258 4.755-4.306z" fill="#fff"/><path d="M883.489 54.106l.217.004.217.005.219.004.22.005.22.006.219.019.223.005.222.006.221.02.223.02.225.006.224.02.223.02.226.021.225.02.225.022.226.02.224.035.228.021.225.036.228.02.224.036.227.035.226.036.226.035.228.036.226.035.225.05.227.035.224.05.227.035.225.05.224.049.225.05.225.049.221.063.225.05.223.048.222.064.22.063.223.049.22.063.22.063.216.076.22.063.219.063.214.076.215.076.217.062.214.077.213.075.212.076.21.09.21.075.207.089.21.075.206.089.208.089.21.09.21.09.212.09.214.09.213.104.217.092.213.105.219.091.216.106.218.105.218.106.22.106.219.107.22.106.22.106.22.12.22.107.22.12.217.121.222.107.22.12.217.12.219.121.215.135.217.12.214.134.217.12.214.134.212.133.212.134.21.133.21.133.205.146.205.147.207.132.201.146.201.145.2.145.196.145.193.158.194.144.19.158.187.156.186.157.184.156.18.156.09.077.087.092.088.077.089.078.083.09.088.077.086.077.082.09.086.078.08.09.081.09.084.076.079.09.079.09.08.075.077.09.078.089.074.088.075.09.075.088.074.089.072.088.072.088.07.088.072.088.066.101.068.088.068.087.064.1.066.088.065.087.061.1.064.086.06.1.059.1.06.086.06.1.058.1.06.099.058.1.058.1.058.099.058.1.055.113.111.212.11.213.111.212.11.212.105.226.104.225.103.226.099.238.101.225.096.238.095.238.093.238.088.25.09.238.087.25.083.25.081.25.08.248.078.249.076.248.07.262.068.26.07.247.064.26.061.26.06.259.053.272.053.258.051.257.05.257.042.27.043.255.018.134.022.12.017.135.017.133.016.134.017.12.014.133.014.133.012.133.013.133.013.119.01.132.01.133.01.118.008.131.007.132.006.132.004.131.008.117.003.131.002.13.005.118v.376l-.003.13-.002.13-.002.114-.005.13-.007.128-.005.115-.008.128-.006.115-.01.128-.008.114-.014.127-.01.113-.015.127-.012.113-.018.127-.014.112-.016.113-.02.125-.018.112-.02.111-.02.112-.025.125-.023.11-.023.11-.025.111-.026.11-.027.11-.029.11-.03.109-.062.217-.065.217-.068.217-.074.23-.074.215-.079.228-.082.228-.082.214-.09.226-.091.226-.098.239-.097.224-.1.224-.105.223-.055.118-.055.118-.056.118-.054.104-.057.117-.06.117-.059.118-.056.103-.062.117-.062.116-.062.117-.06.102-.065.116-.065.116-.066.116-.068.115-.064.101-.07.116-.068.115-.07.114-.068.101-.073.114-.072.115-.074.114-.071.1-.075.113-.077.114-.074.099-.078.113-.078.113-.077.099-.082.112-.081.112-.08.099-.083.112-.084.111-.082.098-.086.111-.084.097-.085.097-.089.111-.086.097-.091.11-.088.096-.09.096-.094.11-.092.095-.092.096-.093.095-.098.109-.095.095-.096.094-.096.095-.098.094-.1.094-.1.093-.1.094-.102.093-.1.08-.104.092-.105.093-.106.092-.104.079-.108.092-.106.078-.109.091-.108.078-.112.091-.11.077-.11.077-.113.077-.115.09-.113.076-.116.076-.115.076-.117.075-.119.076-.118.075-.118.06-.121.075-.121.075-.12.06-.125.074-.122.06-.124.06-.128.073-.125.059-.126.059-.128.059-.129.058-.129.058-.13.058-.132.058-.13.044-.135.057-.135.057-.133.043-.135.043-.138.056-.136.042-.112.034-.115.032-.118.047-.117.032-.118.032-.12.031-.122.031-.123.03-.124.031-.126.03-.127.03-.129.03-.13.03-.131.028-.132.03-.13.014-.136.028-.136.028-.137.027-.138.028-.278.04-.28.04-.287.038-.291.051-.292.037-.294.022-.299.036-.301.035-.303.02-.306.034-.306.02-.309.018-.312.032-.31.005-.312.018-.313.017-.315.018-.313.003-.317.017-.312.004-.313.003-.313.004-.314.003-.311.004-.308-.01-.31.004-.305-.01-.305-.008-.302-.009-.3-.008-.298-.008-.296-.007-.29-.02-.29-.007-.284-.019-.28-.018-.278-.018-.273-.017-.27-.016-.261-.028-.259-.028-.256-.013-.248-.026-.244-.025-.234-.037-.234-.022-.223-.035-.221-.02-.211-.032-.205-.03-.199-.03-.189-.041-.184-.027-.174-.038-.09.096-.093.11-.094.11-.094.109-.196.232-.208.243-.106.121-.111.135-.116.134-.118.133-.122.132-.125.132-.132.144-.136.144-.14.143-.147.141-.073.07-.077.07-.076.07-.08.07-.082.083-.082.069-.082.069-.088.082-.084.068-.09.081-.09.067-.093.081-.093.066-.096.08-.096.066-.1.08-.1.064-.104.079-.106.078-.104.063-.11.078-.111.076-.114.076-.116.076-.114.062-.12.075-.122.074-.124.074-.22.125-.215.127-.204.114-.193.102-.189.103-.178.091-.175.092-.165.079-.162.08-.154.067-.152.068-.149.069-.146.069-.14.056-.139.056-.139.056-.137.057-.135.043-.137.056-.136.043-.139.056-.138.042-.287.096-.622.21-.34.113-.183.061-.19.074-.012-.003-.018.01-.018-.003-.022.01-.024-.006-.028.009h-.132l-.075-.017-.085-.004-.087-.02-.098-.006-.097-.022-.05-.011-.052-.011-.052-.012-.052-.011-.051-.026-.054-.012-.053-.012-.052-.026-.054-.011-.052-.026-.05-.026-.055-.012-.05-.025-.05-.026-.05-.025-.05-.026-.045-.039-.048-.025-.047-.024-.042-.039-.041-.038-.045-.024-.038-.037-.038-.038-.036-.036-.03-.05-.033-.037-.029-.05-.028-.035-.023-.048-.01-.031-.012-.017-.009-.031-.01-.017-.008-.03-.01-.017-.005-.03-.006-.03-.004-.03-.008-.017-.004-.03-.002-.029-.002-.03v-.028l-.002-.03v-.028l.001-.029.002-.028.002-.029.007-.042.004-.028.005-.028.005-.028.01-.04.008-.028.01-.041.009-.027.013-.04.035-.094.04-.107.042-.107.04-.092.045-.106.05-.12.095-.21.213-.474.112-.25.054-.118.056-.132.06-.146.056-.133.055-.132.057-.147.055-.147.055-.147.056-.161.054-.162.053-.162.05-.162.05-.163.049-.178.046-.177.047-.193.02-.082.02-.097.022-.096.02-.097.056-.277.053-.278.026-.139.025-.139.023-.14.024-.139.001-.014.053-.003-.053.003.016-.112.022-.14.017-.127.018-.14.015-.127.012-.128.009-.114.007-.114.005-.114.005-.115v-.102l-.003-.043-.003-.045v-.058l-.004-.044-.005-.044-.006-.03-.006-.045-.008-.03-.006-.046-.01-.03-.01-.032-.01-.031-.01-.031-.016-.018-.012-.032-.015-.017-.016-.019-.017-.018-.017-.018-.021-.005-.018-.018-.022-.005-.022-.005-.024-.005-.026.009-.027.008-.125-.042-.143-.046-.191-.07-.231-.08-.129-.043-.136-.045-.14-.06-.15-.047-.152-.062-.155-.063-.16-.065-.163-.064-.163-.065-.163-.08-.163-.079-.164-.065-.162-.079-.077-.046-.081-.032-.076-.046-.076-.045-.077-.032-.074-.045-.072-.045-.071-.045-.07-.044-.068-.044-.067-.044-.065-.043-.063-.043-.06-.042-.06-.042-.058-.041-.053-.041-.05-.055-.173-.153-.187-.157-.195-.173-.206-.176-.439-.371-.23-.196-.237-.197-.241-.212-.247-.213-.248-.229-.252-.229-.126-.114-.127-.115-.129-.115-.127-.115-.126-.129-.128-.115-.126-.129-.124-.129-.13-.115-.123-.128-.125-.13-.124-.128-.12-.142-.121-.128-.122-.128-.117-.141-.12-.128-.115-.141-.116-.127-.113-.14-.11-.14-.109-.14-.106-.14-.103-.152-.101-.138-.1-.138-.097-.152-.096-.137-.09-.15-.088-.15-.045-.067-.04-.081-.044-.068-.039-.08-.041-.068-.038-.08-.04-.067-.037-.08-.037-.066-.035-.08-.035-.08-.035-.066-.032-.08-.032-.079-.03-.079-.032-.065-.03-.078-.026-.079-.028-.078-.025-.078-.054-.17-.054-.172-.054-.17-.052-.172-.048-.184-.048-.184-.045-.198-.047-.184-.043-.197-.042-.198-.04-.197-.042-.197-.04-.197-.034-.21-.034-.21-.034-.21-.032-.21-.032-.21-.027-.222-.03-.21-.025-.222-.023-.222-.023-.222-.02-.221-.02-.222-.018-.22-.014-.235-.017-.221-.011-.234-.013-.22-.008-.233-.01-.22-.004-.232-.004-.232-.001-.232v-.231l-.002-.218.003-.23.006-.23.007-.23.008-.23.011-.23.01-.214.015-.228.017-.228.018-.228.018-.213.022-.226.022-.212.028-.226.026-.211.03-.21.032-.225.034-.21.035-.209.035-.195.041-.207.041-.208.043-.194.048-.206.047-.192.05-.192.052-.19.052-.177.057-.19.061-.19.059-.175.063-.188.068-.188.067-.188.069-.173.073-.186.074-.186.079-.185.079-.186.08-.17.082-.185.085-.183.089-.183.09-.183.089-.169.094-.181.096-.182.098-.18.097-.168.102-.18.103-.18.104-.165.107-.178.106-.165.112-.178.11-.164.116-.177.113-.163.12-.177.118-.161.118-.162.122-.162.122-.16.126-.161.125-.16.128-.16.13-.16.128-.146.134-.158.132-.145.135-.158.135-.144.136-.144.14-.143.141-.156.14-.129.14-.142.146-.142.146-.142.142-.127.146-.127.147-.127.152-.14.15-.126.148-.112.153-.126.154-.125.152-.111.154-.111.154-.11.156-.111.158-.11.16-.11.158-.095.165-.108.165-.094.169-.108.17-.092.172-.093.173-.092.177-.091.178-.091.18-.09.18-.077.185-.09.184-.075.19-.088.187-.074.19-.074.195-.088.19-.059.195-.073.196-.072.199-.072.199-.072.199-.058.203-.07.201-.058.203-.056.208-.07.204-.057.207-.055.207-.056.21-.055.207-.041.21-.055.209-.041.213-.055.21-.04.211-.04.216-.054.212-.04.214-.04.21-.026.216-.04.213-.039.214-.025.215-.04.213-.025.217-.04.213-.025.215-.025.214-.025.214-.025.214-.025.212-.012.213-.025.214-.025.211-.011.21-.012.214-.025.21-.012.21-.012.209-.012.207-.012.206.002.21-.011.214-.011.212.003.214-.01.213.003.214.004.219-.01zm-.42 2.005h-.202l-.2-.002-.202.014h-.196l-.2.014h-.195l-.198.015-.197.014h-.195l-.2.015-.199.013-.2.014-.202.028-.2.014-.2.014-.203.027-.2.014-.204.028-.199.014-.202.028-.203.027-.2.028-.203.028-.2.028-.205.042-.2.029-.202.042-.198.028-.202.043-.196.029-.2.043-.199.043-.198.043-.196.044-.196.043-.194.044-.193.045-.196.058-.19.045-.19.045-.19.06-.19.059-.185.046-.187.06-.185.06-.182.062-.182.06-.18.063-.177.062-.177.062-.176.077-.171.063-.17.064-.171.078-.166.065-.165.08-.162.065-.161.08-.16.08-.156.082-.152.068-.152.082-.149.083-.148.084-.143.084-.141.085-.14.085-.135.086-.137.1-.133.086-.133.086-.137.1-.134.101-.134.1-.136.116-.13.1-.132.102-.133.116-.132.115-.13.116-.13.116-.13.117-.127.116-.129.131-.124.117-.128.131-.125.132-.12.118-.124.132-.122.132-.12.133-.122.147-.118.133-.118.147-.115.134-.116.148-.112.135-.113.149-.113.148-.11.15-.105.136-.106.15-.106.15-.104.15-.105.166-.1.151-.099.152-.097.152-.095.153-.096.167-.092.153-.09.154-.092.168-.086.155-.088.168-.082.156-.081.156-.082.17-.077.156-.075.157-.077.172-.071.158-.073.172-.067.159-.066.159-.064.16-.064.173-.06.16-.058.161-.056.162-.053.162-.051.162-.05.162-.047.164-.042.15-.046.178-.04.164-.039.166-.039.179-.037.18-.035.18-.033.181-.032.195-.029.182-.029.197-.027.196-.026.197-.023.197-.02.198-.02.199-.018.213-.017.199-.015.213-.012.2-.012.214-.01.215-.006.201-.007.216-.005.216-.001.202-.001.217v.217l.001.217.006.204.005.218.005.218.01.205.01.22.013.205.012.22.015.205.017.207.019.206.02.207.021.207.021.208.023.207.027.194.028.194.026.209.03.194.03.195.034.181.032.195.036.182.036.181.037.182.037.182.04.168.041.168.042.168.04.168.044.155.045.154.044.155.048.14.047.14.016.062.02.048.018.062.021.048.023.048.02.063.026.049.022.063.026.049.023.063.029.05.026.063.029.05.03.05.03.064.03.065.032.05.031.065.035.051.034.05.07.132.075.118.077.118.08.119.082.12.086.12.091.106.091.122.094.122.095.122.098.123.1.123.102.124.106.11.105.124.11.111.107.125.114.112.11.125.115.112.112.126.116.113.118.112.117.113.12.113.117.113.12.113.118.113.12.113.117.113.242.212.238.212.24.197.233.21.232.196.226.195.439.371.21.177.203.175.196.173.174.154.025.035.02.004.02.019.026.02.03.021.034.022.039.023.038.038.044.024.049.025.05.026.051.04.057.027.058.027.058.041.062.029.063.028.062.028.135.073.14.06.138.074.143.06.144.06.145.062.145.046.14.06.138.06.136.044.13.043.121.055.115.04.214.076.175.053.023.005.09.02.023.005.118.026.114.04.023.005.116.04.113.053.02.005.108.053.105.066.02.004.093.064.09.064.017.018.08.075.077.075.017.018.13.145.072.073.108.154.086.164.071.132.054.141.046.126.036.11.03.107.024.107.016.105.017.09.012.09.01.089.006.088.004.088.004.087.003.088.001.145-.004.158-.009.157-.01.157-.014.156-.012.142-.018.155-.02.155-.02.155-.023.154-.024.154-.025.153-.026.154-.027.153-.028.153-.056.291-.059.291-.023.111-.024.11-.024.11-.026.11-.051.207-.054.205-.057.204-.059.204-.06.19-.06.189-.06.175-.066.188-.063.174-.062.16-.064.16-.063.16-.065.158-.061.146-.063.145-.062.146-.086.184.345-.113.278-.097.13-.044.127-.045.125-.044.121-.046.12-.046.116-.032.122-.06.12-.046.12-.046.125-.06.127-.058.132-.058.138-.07.143-.07.148-.07.157-.08.163-.08.172-.093.183-.104.19-.103.2-.115.212-.127.11-.063.102-.05.103-.064.101-.064.099-.065.099-.065.095-.066.093-.066.09-.053.09-.067.09-.067.083-.054.086-.068.085-.068.079-.055.08-.069.078-.055.078-.07.073-.056.077-.07.07-.057.071-.056.072-.071.068-.058.07-.071.065-.058.065-.058.06-.06.13-.13.12-.118.118-.119.118-.133.111-.12.11-.12.107-.122.106-.121.104-.122.099-.108.205-.244.202-.245.1-.109.105-.121.105-.122.098-.108.132-.13.144-.128.152-.096.164-.095.172-.077.177-.063.18-.032.187-.032.185-.002.185.012.186.026.166.022.16.035.171.024.178.039.187.026.196.029.206.016.21.032.214.033.225.02.231.022.236.024.242.024.246.025.255.013.255.027.263.015.267.015.271.016.274.017.278.018.283.004.283.02.288.005.291.006.292.007.295.007.295.007.298.007.301-.006.3.008.301-.005.304-.006.302-.006.304-.005.302-.006.3-.006.304-.02.3-.007.3-.02.3-.02.298-.022.292-.008.293-.023.294-.036.287-.024.285-.024.283-.039.278-.025.276-.04.27-.028.267-.043.263-.043.26-.044.124-.016.127-.03.121-.017.122-.016.123-.031.121-.031.116-.018.12-.032.112-.018.115-.033.11-.019.112-.033.106-.02.108-.034.107-.035.1-.021.103-.035.097-.022.099-.037.092-.023.118-.046.114-.033.117-.046.112-.034.115-.047.113-.047.113-.047.108-.035.112-.047.11-.048.112-.062.108-.049.107-.049.106-.049.109-.063.105-.049.107-.063.104-.05.105-.063.105-.064.1-.05.103-.064.102-.065.101-.064.1-.065.1-.065.099-.065.099-.065.097-.065.096-.066.099-.08.094-.065.095-.066.096-.08.093-.067.095-.08.093-.08.09-.068.092-.08.092-.082.088-.067.09-.082.09-.081.087-.082.088-.082.087-.082.086-.083.085-.082.085-.083.084-.083.087-.096.08-.084.083-.083.084-.097.08-.084.077-.084.083-.098.076-.084.08-.098.077-.085.078-.098.074-.085.077-.099.076-.099.072-.085.075-.1.07-.085.072-.1.073-.1.072-.1.067-.086.07-.1.068-.101.069-.101.067-.1.068-.102.062-.087.066-.101.065-.102.063-.102.063-.102.062-.102.062-.102.06-.102.06-.103.06-.103.058-.102.055-.09.057-.103.057-.103.054-.104.055-.103.055-.104.053-.104.052-.104.052-.105.051-.104.05-.105.051-.104.045-.092.097-.21.093-.21.09-.213.085-.198.082-.199.081-.213.077-.2.073-.202.07-.201.068-.202.065-.203.06-.189.06-.204.055-.19.023-.082.025-.096.02-.082.022-.097.02-.082.021-.097.02-.097.015-.083.019-.097.017-.098.016-.098.015-.097.013-.099.015-.098.011-.099.015-.112.01-.1.01-.098.01-.1.01-.113.006-.1.006-.1.007-.114.005-.1.005-.115.003-.1.003-.115.004-.115v-.102l.001-.115.001-.116-.004-.102v-.116l-.002-.116-.004-.116-.006-.103-.005-.117-.005-.117-.006-.117-.008-.117-.007-.118-.01-.117-.008-.118-.014-.104-.011-.119-.012-.118-.013-.118-.013-.12-.013-.118-.016-.119-.016-.12-.016-.118-.017-.12-.016-.12-.04-.24-.04-.24-.044-.24-.048-.229-.049-.242-.05-.242-.053-.244-.059-.23-.058-.244-.064-.23-.06-.246-.069-.232-.07-.232-.07-.233-.073-.233-.075-.233-.078-.22-.078-.234-.082-.22-.083-.222-.085-.22-.087-.222-.09-.208-.089-.222-.092-.209-.093-.208-.094-.21-.097-.194-.098-.195-.099-.196-.098-.195-.1-.196-.052-.083-.052-.084-.05-.098-.052-.084-.05-.097-.052-.084-.053-.084-.053-.084-.051-.084-.052-.084-.05-.083-.053-.07-.05-.083-.054-.07-.053-.084-.057-.07-.054-.084-.057-.07-.057-.086-.06-.07-.061-.072-.059-.085-.062-.072-.064-.072-.065-.072-.062-.086-.067-.073-.067-.072-.067-.073-.068-.073-.067-.087-.07-.073-.072-.074-.07-.073-.074-.074-.073-.074-.074-.074-.075-.075-.075-.074-.08-.061-.078-.075-.078-.075-.078-.075-.078-.06-.164-.153-.165-.137-.168-.139-.169-.152-.172-.14-.18-.126-.176-.14-.18-.14-.184-.128-.183-.142-.188-.128-.19-.129-.192-.129-.193-.129-.194-.13-.195-.13-.198-.13-.201-.116-.198-.13-.204-.118-.204-.117-.205-.118-.205-.117-.206-.118-.206-.118-.207-.117-.21-.105-.209-.118-.21-.104-.208-.118-.21-.104-.21-.105-.211-.104-.21-.104-.213-.09-.21-.104-.208-.104-.207-.103-.211-.09-.209-.09-.205-.103-.207-.089-.207-.089-.205-.088-.204-.089-.202-.087-.199-.088-.195-.071-.189-.085-.193-.072-.195-.072-.197-.072-.196-.072-.198-.073-.197-.072-.2-.073-.202-.059-.2-.073-.204-.06-.203-.059-.205-.06-.207-.06-.205-.059-.206-.06-.208-.06-.209-.046-.21-.046-.208-.06-.211-.047-.21-.046-.212-.047-.212-.046-.21-.047-.213-.046-.213-.033-.212-.047-.214-.032-.215-.033-.211-.047-.214-.032-.214-.033-.213-.033-.214-.032-.216-.019-.212-.032-.215-.018-.213-.033-.214-.018-.214-.018-.21-.032-.212-.018-.213-.018-.211-.017-.214-.004-.21-.017-.209-.017-.211-.003-.207-.017-.21-.003-.206-.016-.208-.003-.207-.002-.206-.002-.205-.001-.203-.002h-.202z" fill="#00ccb3"/><path d="M882.129 70.053c.566-1.343 1.513-2.685 3.88-2.648 2.11.029 3.53 1.711 3.733 2.977.184 1.165-.141 2.521-1.083 3.59-.89 1.016-2.256 1.967-2.86 2.85-.494.723-.691 1.901-.782 2.48m-.649 5.038l.17-.922" stroke-width="2.006" fill="none" stroke="#69d530" stroke-miterlimit="1"/><path d="M28.214 185.837c2.682-.046 5.852 1.003 10.018 1.403 5.277.533 9.633.508 11.682 1.047 1.458.39 6.024-1.987 6.728-6.1.773-4.517.871-5.857 1.533-12.76.555-5.821 2.489-13.515 2.624-17.38.146-4.172-4.812-7.474-6.312-7.63-2.92-.305-5.434-.208-9.096-.675-5.805-.76-13.226-2.182-20.108-2.9-4.752-.495-12.352-.758-15.547-1.09-1.5-.157-2.467-.104-3.64.85-1.17.955-2.45 2.719-2.605 4.206-.285 2.739-1.473 10.408-1.866 14.178-.818 7.844-.936 12.702-1.53 18.4a5.696 5.696 0 001.24 4.162 5.673 5.673 0 003.828 2.074c4.114.428 8.368.735 8.368.735s.297 6.423.073 9.253c-.152 1.932 2.606 1.844 2.972 1.626 4.892-2.891 9.182-8.39 11.638-9.4z" fill="#fff"/><path d="M8.82 139.69l.125-.004.124.013.129-.004.13.014.133.014.136.014.14.014.312.033.336.035.36.02.38.04.403.025.423.027.439.029.455.03.47.032.487.034 1.005.053 2.12.119 1.093.062 1.097.08.553.024.545.04.544.04.54.038.532.039.526.038.518.037.507.035.494.052.484.033.469.049.454.047.322.034.325.034.324.034.326.034.325.033.326.051.328.035.326.034.655.085.658.086.655.102.66.086.658.086.656.102.657.086.656.102.654.103.652.102.648.102.647.101 1.284.203 1.267.2 1.249.198 1.23.18.602.097.596.096.591.096.583.078.576.077.565.093.559.075.548.075.34.035.335.035.328.034.319.05.318.017.31.032.305.032.3.031.298.014.292.013.287.03.285.013.282.012.277.03.55.022 1.075.044.528.038.265.01.265.011.262.027.265.01.266.012.265.027.269.011.268.028.27.028.272.029.036.003.037.004.04.004.038.004.04.021.042.005.044.004.042.022.092.027.095.027.098.044.106.028.105.045.11.046.112.063.115.063.12.047.121.064.12.08.128.065.125.082.13.081.131.083.133.082.132.099.134.082.135.1.136.1.134.116.135.1.136.116.135.117.136.116.135.117.134.117.132.133.066.058.064.075.066.058.065.075.066.059.062.074.065.058.062.075.063.075.06.075.062.075.062.057.061.075.06.075.059.074.059.075.057.074.058.074.056.075.054.09.056.075.054.074.052.074.052.09.051.074.053.074.047.09.049.09.047.074.046.09.047.074.044.09.042.09.044.072.04.09.039.09.039.09.037.088.039.073.035.089.034.089.032.089.03.088.028.106.029.088.027.088.027.089.023.088.023.087.02.105.02.088.019.087.017.104.015.087.011.104.013.087.008.103.01.087.007.103.004.086.003.103v.102l.001.086-.003.102-.008.187-.009.187-.014.204-.015.186-.016.204-.02.22-.024.22-.024.219-.025.22-.028.219-.03.236-.031.236-.035.253-.035.235-.037.253-.038.252-.04.252-.042.27-.085.52-.092.537-.096.554-.097.554-.102.57-.212 1.175-.215 1.174-.108.604-.107.604-.108.604-.104.604-.1.588-.102.604-.048.303-.05.302-.046.303-.044.286-.045.303-.042.286-.043.303-.04.287-.039.286-.038.287-.036.286-.035.287-.033.287-.03.27-.03.288-.026.27-.223 2.336-.097 1.015-.089.914-.084.845-.04.39-.038.371-.039.372-.039.355-.036.338-.04.338-.038.32-.04.338-.039.304-.04.32-.044.32-.041.303-.048.337-.045.32-.049.32-.052.336-.054.353-.057.353-.061.37-.063.387-.068.403-.07.402-.016.101-.02.1-.018.084-.023.1-.022.1-.025.084-.025.1-.026.082-.028.1-.029.082-.03.1-.032.082-.03.082-.037.099-.034.082-.036.081-.036.082-.04.098-.039.082-.04.081-.04.081-.043.081-.043.081-.044.081-.045.08-.046.082-.048.08-.048.08-.05.08-.047.064-.051.08-.052.08-.051.063-.053.08-.055.08-.053.063-.054.08-.057.062-.056.08-.056.062-.057.063-.06.079-.057.062-.058.062-.06.063-.06.062-.061.062-.062.062-.06.062-.062.062-.063.061-.064.062-.063.062-.064.061-.065.062-.063.045-.065.061-.065.062-.065.044-.066.062-.065.044-.065.045-.066.061-.067.045-.133.105-.132.09-.133.088-.133.089-.133.088-.133.072-.134.088-.132.072-.13.072-.132.072-.127.055-.128.055-.128.055-.126.055-.124.055-.12.04-.12.038-.117.039-.116.04-.114.039-.056.01-.054.012-.053.012-.055.011-.052.012-.051.012-.051-.006-.05.012-.05.012-.048-.005-.048.012-.046-.005-.047.013-.044-.005-.046.012-.043-.004-.042-.005-.041-.004-.04-.004-.038-.004-.04-.004-.037-.004-.035-.004-.034-.02-.097-.028-.104-.01-.103-.028-.107-.028-.112-.012-.114-.03-.117-.011-.12-.03-.125-.013-.125-.03-.13-.014-.134-.013-.136-.015-.139-.014-.14-.015-.145-.015-.3-.031-.307-.032-.319-.033-.333-.018-.34-.035-.351-.02-.362-.02-.372-.022-.77-.046-.807-.05-.84-.054-.432-.028-.439-.028-.448-.03-.452-.047-.462-.031-.47-.032-.473-.05-.48-.032-.487-.051-.49-.051-.198-.004-.19-.037-.192-.02-.19-.02-.19-.02-.187-.019-.185-.036-.185-.02-.184-.019-.181-.036-.36-.054-.354-.054-.35-.054-.344-.053-.34-.07-.335-.051-.329-.069-.645-.118-.627-.117-.305-.066-.304-.049-.3-.048-.293-.048-.29-.047-.288-.047-.282-.047-.14-.014-.138-.032-.14-.014-.137-.015-.136-.014-.136-.014-.134-.014-.134-.014-.133-.014-.132-.014-.133.004-.129-.014-.129-.013-.13.003-.128-.013-.128.004-.127.004-.126.004-.056.01-.06.029-.059.028-.06.028-.061.045-.061.027-.062.028-.063.045-.063.027-.063.045-.064.045-.065.027-.066.044-.065.045-.068.044-.068.061-.137.089-.14.105-.14.105-.146.121-.145.105-.15.12-.151.139-.154.12-.155.138-.158.138-.159.137-.164.154-.163.136-.166.154-.34.306-.345.323-.357.339-.733.693-.377.353-.382.354-.39.352-.198.184-.2.185-.199.167-.203.184-.205.184-.206.183-.206.184-.206.166-.212.183-.21.166-.212.183-.215.183-.213.166-.217.165-.216.166-.22.182-.218.148-.222.165-.221.165-.225.164-.11.074-.113.074-.111.074-.112.073-.115.074-.112.074-.114.073-.113.074-.114.073-.115.074-.113.057-.116.073-.018.015-.02-.002-.028.014-.029.014-.032.014-.033-.003-.039.013-.04.012-.041-.004-.046.012-.048.013-.05-.006-.05.012-.053-.005-.056.011-.056-.006-.06.011-.059-.006-.061-.007-.063.011-.065-.007-.062-.006-.067-.007-.064-.007-.068-.007-.066-.007-.068-.007-.068-.007-.068-.024-.068-.007-.066-.024-.068-.007-.068-.025-.065-.023-.066-.024-.066-.024-.063-.024-.064-.024-.063-.023-.06-.04-.06-.024-.058-.04-.056-.04-.054-.04-.054-.04-.051-.04-.026-.02-.023-.019-.022-.036-.024-.02-.024-.02-.02-.036-.022-.02-.022-.019-.019-.036-.02-.019-.017-.036-.02-.019-.017-.036-.015-.036-.017-.019-.015-.035-.014-.036-.013-.036-.012-.035-.012-.035-.013-.019-.01-.035-.01-.035-.007-.052-.008-.035-.007-.035-.007-.035-.005-.035-.003-.051-.003-.035-.002-.051-.001-.035.002-.05-.002-.035.004-.05.002-.035.01-.136.011-.152.007-.136.008-.153.007-.153.007-.153.006-.17.004-.154.01-.34.006-.359.003-.358.003-.376v-.752l-.002-.393-.005-.377-.006-.394-.007-.376-.007-.377-.009-.377-.009-.36-.008-.36-.02-.668-.02-.6-.02-.532-.015-.446-.014-.326-.013-.275-.19-.02-.539-.039-.834-.07-.511-.036-.568-.042-.615-.047-.655-.051-.692-.072-.722-.058-.744-.06-.757-.08-.77-.08-.385-.04-.386-.04-.071-.008-.07-.007-.07-.007-.07-.008-.069-.007-.068-.024-.07-.007-.07-.008-.067-.024-.07-.007-.066-.024-.07-.007-.066-.024-.068-.024-.066-.024-.068-.008-.066-.024-.066-.023-.065-.024-.066-.024-.064-.024-.065-.024-.066-.024-.064-.024-.063-.023-.063-.041-.064-.024-.063-.024-.061-.04-.063-.024-.061-.04-.061-.024-.061-.04-.061-.024-.06-.04-.059-.04-.06-.04-.059-.024-.057-.04-.058-.04-.057-.04-.056-.04-.058-.04-.056-.04-.056-.04-.052-.058-.055-.04-.055-.04-.053-.04-.052-.056-.053-.04-.053-.04-.05-.056-.051-.04-.05-.056-.05-.039-.05-.056-.046-.057-.048-.056-.049-.04-.046-.055-.047-.056-.044-.056-.046-.056-.044-.056-.042-.056-.044-.056-.042-.055-.04-.056-.041-.055-.04-.056-.04-.055-.039-.055-.035-.072-.037-.056-.037-.055-.034-.072-.034-.054-.035-.055-.032-.072-.033-.055-.03-.071-.032-.055-.03-.054-.027-.071-.029-.072-.027-.054-.027-.071-.027-.054-.023-.07-.024-.072-.025-.054-.022-.07-.022-.07-.02-.071-.022-.054-.018-.07-.019-.07-.016-.07-.019-.054-.015-.07-.015-.07-.015-.07-.013-.07-.014-.069-.011-.07-.01-.069-.012-.07-.008-.069-.008-.069-.009-.07-.006-.068-.007-.07-.004-.068-.005-.069-.005-.069-.002-.068-.003-.069v-.205l.003-.085.002-.068.004-.068.003-.068.006-.068.005-.068.007-.068.055-.54.051-.525.05-.525.047-.525.045-.508.044-.525.041-.508.043-.525.038-.51.04-.525.076-1.034.075-1.07.075-1.068.08-1.102.083-1.137.043-.576.045-.594.05-.61.048-.61.053-.627.054-.626.058-.66.06-.661.064-.677.067-.694.071-.71.074-.727.04-.372.044-.388.048-.406.05-.422.055-.438.058-.456.06-.455.062-.489.067-.488.064-.49.14-1.01.142-1.028.143-1.027.283-2.022.13-.943.123-.893.058-.438.054-.405.05-.388.048-.37.044-.355.038-.32.035-.304.03-.27.007-.068.01-.068.011-.067.012-.067.016-.084.015-.067.018-.066.02-.083.02-.067.022-.083.022-.066.024-.066.026-.083.027-.065.03-.082.027-.066.032-.082.031-.065.035-.082.032-.065.036-.082.036-.064.038-.082.037-.064.038-.065.041-.08.041-.065.043-.08.04-.065.045-.08.045-.065.046-.08.044-.064.047-.063.05-.08.045-.064.05-.063.048-.064.05-.08.05-.063.052-.063.05-.063.052-.063.053-.063.051-.063.055-.063.053-.063.053-.062.054-.063.055-.063.053-.046.056-.062.055-.063.054-.045.056-.063.055-.045.056-.063.055-.045.056-.063.055-.045.054-.046.055-.046.056-.045.055-.046.054-.045.055-.046.054-.045.053-.029.055-.046.052-.028.055-.046.053-.029.052-.028.055-.046.051-.029.053-.028.053-.029.052-.029.053-.028.051-.03.053-.028.051-.012.053-.028.053-.029.052-.012.053-.028.051-.012.053-.012.054-.028.051-.012.053-.012.053-.011.054-.029.055-.011.052-.012.055-.011.054-.011.053.005.054-.011.057-.012.054-.011.054.006.114-.023.114-.005.116-.005.117-.005.119-.004.12.012zm-.21 1.995l-.076.009-.07-.007-.064.01-.068.01-.022-.002-.027-.003-.027.014-.026-.003-.024-.002-.025.014-.024-.002-.024.015-.022-.003-.022.015-.022-.002-.022.014-.02-.002-.023.015-.018-.002-.023.015-.02-.002-.022.015-.024.014-.02-.002-.024.015-.022.014-.024.015-.026.015-.024.014-.025.015-.027.014-.028.014-.027.014-.027.015-.03.03-.031.014-.031.014-.033.031-.034.03-.034.014-.035.03-.036.031-.038.03-.037.03-.038.031-.04.047-.04.03-.04.03-.04.047-.04.03-.042.047-.043.047-.039.03-.042.047-.041.047-.043.047-.041.047-.043.046-.04.047-.042.047-.04.047-.041.047-.041.047-.04.048-.039.047-.041.064-.04.047-.037.047-.037.048-.04.064-.036.048-.035.047-.036.065-.035.047-.034.048-.034.065-.032.048-.031.048-.03.048-.032.065-.029.048-.029.049-.027.065-.026.049-.026.048-.024.049-.024.049-.022.049-.02.049-.021.049-.019.05-.017.049-.015.032-.018.05-.013.05-.014.032-.012.05-.01.033-.01.034-.01.05-.008.033-.007.034-.004.016-.005.034-.005.034-.004.033-.03.27-.036.322-.039.32-.044.355-.049.388-.05.387-.056.422-.058.421-.124.91-.131.943-.283 2.021-.143 1.028-.14 1.01-.138 1.012-.068.505-.065.49-.063.471-.057.456-.058.455-.053.422-.05.422-.048.405-.042.371-.039.355-.072.71-.07.71-.068.694-.064.677-.06.66-.057.644-.053.627-.051.61-.05.61-.048.61-.045.576-.043.577-.084 1.136-.079 1.103-.074 1.069-.077 1.068-.077 1.052-.04.525-.038.509-.041.525-.043.526-.045.525-.046.525-.048.525-.05.524-.052.542-.053.524-.005.05-.004.051-.004.051-.001.034-.004.051-.002.051-.002.051.002.035-.002.05.003.035v.052l.002.051.003.035.001.05.004.053.005.034.003.052.006.035.005.051.007.035.007.052.006.052.009.035.006.052.01.036.009.052.011.035.009.052.013.036.01.052.012.035.011.053.016.036.011.052.016.036.015.036.013.052.017.036.017.036.015.053.018.036.019.036.017.053.018.036.02.037.02.053.02.036.021.037.022.036.022.037.02.053.024.037.024.036.023.037.024.037.025.036.026.037.025.037.027.037.027.037.027.037.027.037.029.037.027.037.029.037.03.038.029.037.03.037.033.02.03.038.03.037.033.038.032.02.032.038.034.02.034.038.032.038.034.02.034.038.035.02.034.039.036.02.037.021.034.038.037.021.036.038.037.021.037.021.04.021.035.038.039.021.037.021.04.021.038.021.04.022.04.02.039.022.04.021.04.022.04.02.041.022.04.022.043.004.041.021.04.022.043.021.043.005.042.021.04.021.045.005.042.022.044.004.043.022.044.004.042.022.045.004.042.022.046.005.044.004.044.022.044.005.044.004.046.005.046.005.044.004.044.022.046.005.051.005.377.04.38.04.765.062.753.078.737.06.715.074.688.055.653.051.611.047.56.058.509.036.829.07.533.038.19.003.206.021.202.055.197.072.188.088.178.104.168.12.152.136.136.167.121.167.102.181.08.197.064.194.04.21.02.207.014.275.013.343.018.429.019.532.02.617.02.686.008.36.01.36.01.376.006.377.007.394.006.393.003.394.004.393v.769l-.003.393-.004.376-.005.358-.01.358-.006.17-.005.17-.008.17-.007.17-.008.154-.003.05.01.002.03.003.033.003.03.003.034-.013.03.003.028.003.014.001.032-.014.104-.074.102-.058.104-.074.102-.058.102-.075.103-.058.104-.074.102-.075.1-.058.208-.15.206-.149.205-.15.206-.166.205-.15.202-.149.205-.167.203-.166.203-.167.2-.167.202-.167.201-.167.198-.168.2-.167.197-.184.198-.168.196-.184.194-.168.193-.168.194-.185.384-.353.378-.353.372-.338.732-.692.36-.339.352-.322.347-.323.172-.153.172-.153.169-.153.17-.153.167-.154.168-.136.165-.136.165-.137.166-.137.163-.136.164-.12.165-.137.164-.12.158-.102.087-.06.083-.06.084-.059.082-.043.085-.06.085-.059.083-.042.087-.06.085-.042.087-.042.089-.06.09-.041.089-.042.092-.042.093-.041.075-.027.184-.066.187-.049.194-.03.194-.015.139-.002.151-.002.151-.001.152-.001.147.015.152-.001.15.015.15.016.152-.001.149.015.15.016.149.015.151.016.15.016.15.016.15.032.151.016.153.016.3.048.303.049.304.049.306.049.307.066.31.05.31.066.628.116.642.119.325.05.326.069.33.051.335.052.337.07.34.052.347.053.174.018.175.019.174.035.179.019.178.018.179.019.18.036.181.019.182.019.185.019.48.05.478.033.47.049.468.031.462.031.452.048.448.03.444.028.435.029.428.027.836.053.807.05.773.046.375.022.367.039.359.02.35.02.341.035.333.018.324.033.313.033.158.016.153.016.15.016.149.016.144.032.146.015.143.015.14.031.14.015.136.031.136.015.134.03.132.032.131.03.13.03.014.002.014.002.017.002.022-.015.02.002.026-.015.024.003.025.003.03-.014.025-.015.07-.01.07-.027.074-.026.078-.026.08-.026.087-.042.089-.025.09-.042.094-.041.097-.059.097-.04.1-.059.1-.058.103-.057.102-.058.104-.075.102-.057.106-.075.104-.074.105-.075.05-.046.05-.029.052-.046.053-.045.051-.046.05-.03.05-.045.052-.046.05-.046.05-.046.05-.046.05-.047.047-.046.05-.046.047-.046.048-.047.046-.046.048-.046.046-.047.046-.063.046-.047.044-.046.043-.047.044-.064.043-.047.043-.047.042-.064.041-.047.041-.064.04-.047.039-.047.04-.064.037-.048.037-.064.036-.048.036-.064.034-.048.036-.064.033-.048.032-.065.033-.065.03-.048.031-.065.031-.066.028-.048.029-.065.027-.066.024-.049.026-.065.026-.066.024-.066.022-.049.022-.066.02-.066.022-.066.017-.05.019-.066.019-.066.015-.067.016-.067.015-.067.014-.067.014-.066.012-.068.068-.403.066-.386.062-.386.06-.353.055-.353.056-.353.049-.32.048-.32.046-.32.043-.302.044-.32.04-.304.04-.303.04-.321.036-.304.039-.32.038-.338.037-.338.037-.338.039-.372.039-.372.038-.39.083-.828.089-.913.097-1.016.225-2.352.026-.27.03-.288.033-.304.034-.287.035-.287.038-.303.037-.287.04-.303.044-.303.042-.304.043-.286.046-.303.047-.302.047-.303.049-.303.05-.319.1-.605.103-.604.106-.604.11-.621.107-.604.11-.604.213-1.174.21-1.157.102-.57.097-.555.096-.554.089-.52.085-.521.04-.252.038-.253.037-.235.036-.252.035-.236.03-.22.031-.235.03-.22.026-.219.023-.202.025-.22.02-.186.019-.203.016-.186.012-.17.013-.186.007-.154.008-.17v-.05l.002-.069-.002-.051-.001-.069-.003-.052-.004-.068-.006-.052-.005-.07-.008-.051-.007-.07-.012-.052-.01-.052-.011-.07-.014-.052-.011-.07-.017-.053-.015-.07-.017-.053-.017-.07-.02-.053-.02-.07-.022-.054-.023-.054-.022-.07-.026-.055-.023-.07-.029-.055-.025-.07-.03-.055-.029-.071-.03-.055-.034-.055-.03-.071-.036-.055-.034-.072-.035-.055-.037-.055-.036-.072-.039-.055-.04-.056-.039-.072-.04-.056-.043-.056-.042-.072-.044-.056-.044-.056-.046-.056-.044-.073-.047-.056-.047-.056-.048-.057-.049-.056-.049-.056-.049-.057-.05-.056-.051-.057-.051-.056-.053-.057-.052-.057-.053-.057-.052-.056-.054-.057-.053-.057-.052-.04-.112-.114-.112-.097-.11-.114-.115-.08-.112-.097-.112-.098-.113-.097-.112-.08-.114-.08-.111-.08-.11-.08-.109-.08-.109-.062-.103-.08-.103-.061-.102-.062-.098-.045-.095-.06-.092-.045-.086-.043-.084-.043-.076-.042-.073-.024-.064-.041-.06-.024-.052-.005-.041-.021-.04-.004h-.002l-.002-.001-.226-.024-.255-.026-.256-.027-.254-.026-.256-.01-.253-.026-.257-.01-.256-.01-.257-.026-.258-.01-.527-.02-1.073-.062-.558-.023-.285-.013-.289-.013-.29-.03-.298-.014-.302-.015-.306-.032-.314-.015-.316-.033-.323-.034-.328-.034-.334-.035-.342-.036-.348-.036-.352-.054-.558-.075-.568-.076-.574-.077-.58-.078-.588-.095-.595-.096-.603-.08-.606-.098-1.23-.196-1.251-.199-1.267-.2-1.282-.202-.644-.102-.647-.101-.65-.085-.65-.102-.65-.102-.652-.102-.652-.085-.652-.102-.65-.085-.651-.085-.65-.085-.648-.085-.323-.033-.32-.051-.322-.033-.32-.034-.322-.033-.317-.05-.318-.034-.316-.033-.442-.046-.46-.03-.472-.05-.486-.033-.5-.052-.51-.036-.519-.038-.528-.038-.534-.038-.54-.04-.545-.022-.546-.04-1.096-.063-1.09-.062-2.12-.119-1.008-.07-.49-.034-.475-.016-.46-.03-.446-.03-.426-.044-.411-.026-.392-.024-.37-.039-.352-.036-.323-.017-.133-.014-.119-.012-.113-.012-.107-.011-.102-.01-.099.006-.09-.01-.085-.008-.08.009z" fill="#00ccb3"/><path d="M110 2513c7.094-1.76 19.725 1.45 26 0" fill="none" stroke="#71e150" stroke-width="1.7" transform="matrix(1.12503 .11728 -.12705 1.21878 211.364 -2919.284)"/><path d="M110 2513c4.669-.7 11.032-.24 25.602.26" fill="none" stroke="#71e150" stroke-width="1.86" transform="matrix(.89065 .09285 -.12705 1.21878 235.88 -2904.406)"/></svg>