<?xml version="1.0" encoding="UTF-8" standalone="no"?>
<!DOCTYPE svg PUBLIC "-//W3C//DTD SVG 1.1//EN" "http://www.w3.org/Graphics/SVG/1.1/DTD/svg11.dtd">
<svg width="100%" height="100%" viewBox="0 0 912 250" version="1.1" xmlns="http://www.w3.org/2000/svg" xmlns:xlink="http://www.w3.org/1999/xlink" xml:space="preserve" xmlns:serif="http://www.serif.com/" style="fill-rule:evenodd;clip-rule:evenodd;stroke-linecap:round;stroke-linejoin:round;stroke-miterlimit:1.5;">
    <g transform="matrix(1,0,0,1,-1681.54,-11501.7)">
        <g transform="matrix(0.871849,0,0,0.871849,145.796,3587.85)">
            <g transform="matrix(-1.24793,0.334383,0.349148,1.30304,6599.4,3619.63)">
                <path d="M4096.5,3294C4100.48,3294 4108.69,3294.79 4110.14,3294.5" style="fill:none;stroke:rgb(109,224,75);stroke-width:1.74px;"/>
            </g>
            <g transform="matrix(-0.74876,0.20063,0.349148,1.30304,4559.35,4185.52)">
                <path d="M4096.5,3294C4097.02,3294.39 4101.66,3294.32 4108.5,3294" style="fill:none;stroke:rgb(109,224,75);stroke-width:2.09px;"/>
            </g>
            <g transform="matrix(-0.998347,0.267506,0.349148,1.30304,5579.38,3902.58)">
                <path d="M4096.5,3294C4103.12,3293.57 4106.98,3293.59 4108.5,3294" style="fill:none;stroke:rgb(109,224,75);stroke-width:1.91px;"/>
            </g>
            <g transform="matrix(-1.36138,0.364781,0.388315,1.44921,2721.3,7147.79)">
                <path d="M445.398,1353C445.397,1351.37 444.145,1350.15 442.871,1350C441.453,1349.83 439.548,1349.66 437.084,1349.66C426.704,1349.66 409.871,1350.01 403.852,1350.01C402.068,1350.01 400.868,1351.22 400.878,1353.45C400.889,1355.62 400.995,1357.16 400.959,1361.21C400.904,1367.61 400.828,1375.57 401,1379C401.049,1379.98 402.079,1380.94 403.129,1381C407.353,1381.23 416.166,1381.66 424.947,1381.64C431.624,1381.62 438.579,1380.87 441.792,1381.02C443.453,1381.09 444.969,1380.27 445,1379C445.073,1375.99 445.524,1369.8 445.63,1364.33C445.722,1359.62 445.399,1355.59 445.398,1353Z" style="fill:white;"/>
                <path d="M402.914,1350.13L402.842,1350.15L402.771,1350.18L402.702,1350.2L402.633,1350.23L402.565,1350.26L402.499,1350.29L402.434,1350.32L402.369,1350.36L402.306,1350.39L402.244,1350.43L402.184,1350.47L402.124,1350.51L402.066,1350.55L402.009,1350.59L401.953,1350.64L401.898,1350.69L401.845,1350.74L401.792,1350.79L401.742,1350.84L401.692,1350.89L401.644,1350.95L401.597,1351L401.551,1351.06L401.507,1351.12L401.464,1351.18L401.423,1351.25L401.383,1351.31L401.344,1351.38L401.307,1351.45L401.271,1351.52L401.237,1351.59L401.204,1351.66L401.173,1351.74L401.143,1351.81L401.114,1351.89L401.088,1351.97L401.062,1352.05L401.039,1352.13L401.017,1352.22L400.996,1352.3L400.977,1352.39L400.96,1352.48L400.944,1352.57L400.93,1352.66L400.918,1352.76L400.907,1352.85L400.898,1352.95L400.89,1353.05L400.885,1353.14L400.881,1353.25L400.879,1353.35L400.878,1353.45L400.881,1353.85L400.886,1354.24L400.893,1354.63L400.9,1355.01L400.918,1355.79L400.927,1356.2L400.936,1356.63L400.944,1357.08L400.952,1357.55L400.958,1358.05L400.963,1358.6L400.966,1359.18L400.967,1359.48L400.967,1359.8L400.966,1360.13L400.964,1360.48L400.962,1360.84L400.959,1361.21L400.938,1363.67L400.928,1364.93L400.918,1366.21L400.91,1367.48L400.902,1368.75L400.897,1370L400.896,1370.61L400.894,1371.22L400.894,1371.82L400.894,1372.41L400.895,1372.99L400.897,1373.55L400.9,1374.11L400.903,1374.64L400.908,1375.17L400.913,1375.67L400.92,1376.16L400.928,1376.63L400.937,1377.09L400.947,1377.52L400.958,1377.92L400.971,1378.31L400.985,1378.67L400.992,1378.84L401,1379L401.003,1379.05L401.007,1379.09L401.013,1379.14L401.021,1379.18L401.029,1379.23L401.039,1379.28L401.05,1379.32L401.063,1379.37L401.076,1379.41L401.091,1379.46L401.107,1379.5L401.125,1379.55L401.143,1379.59L401.163,1379.63L401.184,1379.68L401.206,1379.72L401.229,1379.76L401.253,1379.81L401.278,1379.85L401.304,1379.89L401.331,1379.93L401.359,1379.97L401.388,1380.01L401.418,1380.05L401.449,1380.09L401.481,1380.13L401.514,1380.17L401.547,1380.2L401.581,1380.24L401.617,1380.28L401.652,1380.31L401.689,1380.35L401.726,1380.38L401.765,1380.42L401.803,1380.45L401.843,1380.48L401.883,1380.51L401.924,1380.54L401.965,1380.57L402.007,1380.6L402.049,1380.63L402.092,1380.66L402.136,1380.68L402.18,1380.71L402.224,1380.73L402.269,1380.76L402.314,1380.78L402.36,1380.8L402.406,1380.82L402.453,1380.84L402.499,1380.86L402.547,1380.88L402.594,1380.89L402.642,1380.91L402.69,1380.92L402.738,1380.94L402.786,1380.95L402.835,1380.96L402.883,1380.97L402.932,1380.98L402.981,1380.99L403.03,1380.99L403.079,1381L403.129,1381L403.973,1381.05L404.919,1381.09L405.958,1381.15L406.511,1381.17L407.085,1381.2L407.679,1381.23L408.292,1381.26L408.924,1381.28L409.573,1381.31L410.239,1381.34L410.921,1381.36L411.618,1381.39L412.329,1381.41L413.053,1381.44L413.79,1381.46L414.539,1381.49L415.298,1381.51L416.068,1381.53L416.846,1381.55L417.633,1381.57L418.427,1381.58L419.228,1381.6L420.035,1381.61L420.846,1381.62L421.661,1381.63L422.07,1381.63L422.48,1381.63L422.89,1381.63L423.301,1381.64L423.712,1381.64L424.124,1381.64L424.535,1381.64L424.947,1381.64L425.26,1381.63L425.573,1381.63L425.887,1381.63L426.201,1381.62L426.515,1381.62L426.829,1381.61L427.142,1381.61L427.456,1381.6L427.769,1381.59L428.082,1381.58L428.394,1381.57L428.705,1381.56L429.016,1381.55L429.326,1381.54L429.944,1381.51L430.557,1381.48L431.165,1381.45L431.768,1381.42L432.364,1381.39L432.952,1381.36L433.533,1381.33L434.668,1381.26L435.763,1381.2L436.293,1381.17L436.811,1381.14L437.315,1381.12L437.806,1381.09L438.282,1381.07L438.743,1381.05L438.968,1381.04L439.188,1381.03L439.405,1381.02L439.617,1381.02L439.824,1381.01L440.027,1381.01L440.226,1381L440.42,1381L440.609,1381L440.793,1381L440.973,1381L441.147,1381L441.316,1381L441.48,1381L441.639,1381.01L441.792,1381.02L441.87,1381.02L441.948,1381.02L442.025,1381.02L442.102,1381.02L442.178,1381.02L442.255,1381.01L442.33,1381.01L442.406,1381L442.481,1380.99L442.555,1380.99L442.629,1380.98L442.703,1380.96L442.775,1380.95L442.848,1380.94L442.919,1380.92L442.99,1380.91L443.06,1380.89L443.13,1380.88L443.198,1380.86L443.266,1380.84L443.333,1380.82L443.399,1380.79L443.465,1380.77L443.529,1380.74L443.593,1380.72L443.655,1380.69L443.716,1380.66L443.777,1380.64L443.836,1380.61L443.894,1380.58L443.952,1380.54L444.008,1380.51L444.062,1380.48L444.116,1380.44L444.168,1380.41L444.219,1380.37L444.269,1380.33L444.317,1380.29L444.364,1380.26L444.41,1380.21L444.454,1380.17L444.496,1380.13L444.537,1380.09L444.577,1380.05L444.615,1380L444.651,1379.95L444.686,1379.91L444.719,1379.86L444.751,1379.81L444.781,1379.76L444.809,1379.71L444.835,1379.66L444.859,1379.61L444.882,1379.56L444.903,1379.51L444.921,1379.45L444.938,1379.4L444.953,1379.35L444.966,1379.29L444.977,1379.23L444.986,1379.18L444.993,1379.12L444.997,1379.06L445,1379L445.008,1378.71L445.018,1378.4L445.03,1378.07L445.044,1377.73L445.059,1377.37L445.076,1377L445.095,1376.61L445.114,1376.21L445.157,1375.36L445.203,1374.48L445.252,1373.55L445.303,1372.59L445.353,1371.59L445.403,1370.58L445.428,1370.07L445.452,1369.55L445.475,1369.03L445.497,1368.5L445.519,1367.98L445.539,1367.45L445.558,1366.93L445.576,1366.4L445.592,1365.88L445.607,1365.36L445.619,1364.84L445.63,1364.33L445.638,1363.89L445.643,1363.45L445.646,1363.02L445.647,1362.6L445.646,1362.17L445.643,1361.76L445.639,1361.35L445.633,1360.94L445.626,1360.54L445.617,1360.14L445.608,1359.75L445.597,1359.36L445.586,1358.98L445.574,1358.61L445.562,1358.24L445.549,1357.87L445.522,1357.17L445.496,1356.49L445.471,1355.83L445.447,1355.2L445.437,1354.9L445.427,1354.61L445.419,1354.32L445.412,1354.04L445.406,1353.77L445.401,1353.51L445.399,1353.25L445.398,1353L445.397,1352.93L445.394,1352.85L445.39,1352.78L445.383,1352.7L445.375,1352.63L445.366,1352.56L445.354,1352.49L445.341,1352.41L445.327,1352.34L445.31,1352.27L445.293,1352.2L445.274,1352.13L445.253,1352.07L445.231,1352L445.207,1351.93L445.182,1351.87L445.155,1351.8L445.128,1351.74L445.099,1351.68L445.068,1351.62L445.036,1351.55L445.003,1351.49L444.969,1351.43L444.934,1351.38L444.898,1351.32L444.86,1351.26L444.821,1351.21L444.781,1351.15L444.741,1351.1L444.699,1351.05L444.656,1351L444.612,1350.95L444.567,1350.9L444.522,1350.85L444.475,1350.8L444.428,1350.76L444.38,1350.71L444.331,1350.67L444.281,1350.63L444.23,1350.59L444.179,1350.55L444.127,1350.51L444.075,1350.47L444.022,1350.43L443.968,1350.4L443.914,1350.37L443.859,1350.33L443.803,1350.3L443.748,1350.27L443.691,1350.25L443.635,1350.22L443.578,1350.19L443.52,1350.17L443.462,1350.15L443.404,1350.12L443.346,1350.11L443.287,1350.09L443.228,1350.07L443.169,1350.05L443.11,1350.04L443.05,1350.03L442.991,1350.02L442.931,1350.01L442.871,1350L442.6,1349.97L442.317,1349.94L442.022,1349.91L441.715,1349.88L441.397,1349.85L441.233,1349.83L441.067,1349.82L440.897,1349.81L440.724,1349.79L440.549,1349.78L440.37,1349.77L440.188,1349.76L440.003,1349.75L439.815,1349.74L439.624,1349.73L439.43,1349.71L439.232,1349.71L439.032,1349.7L438.828,1349.69L438.621,1349.68L438.411,1349.68L438.198,1349.67L437.982,1349.67L437.762,1349.66L437.539,1349.66L437.313,1349.66L437.084,1349.66L436.092,1349.66L435.066,1349.66L434.008,1349.67L432.922,1349.68L431.811,1349.68L430.678,1349.69L429.526,1349.7L428.359,1349.71L427.179,1349.73L425.989,1349.74L424.793,1349.76L423.595,1349.77L421.201,1349.8L418.833,1349.83L414.275,1349.9L412.136,1349.93L410.124,1349.95L409.174,1349.96L408.265,1349.98L407.4,1349.98L406.582,1349.99L405.816,1350L405.103,1350L404.447,1350.01L403.852,1350.01L403.769,1350.01L403.686,1350.01L403.605,1350.02L403.524,1350.02L403.445,1350.03L403.366,1350.04L403.288,1350.05L403.211,1350.06L403.136,1350.08L403.061,1350.1L402.987,1350.11L402.914,1350.13ZM403.456,1351.58L403.49,1351.57L403.524,1351.56L403.56,1351.56L403.598,1351.55L403.636,1351.55L403.676,1351.54L403.718,1351.54L403.761,1351.54L403.806,1351.54L403.863,1351.54L404.453,1351.54L405.113,1351.53L405.829,1351.53L406.598,1351.52L407.417,1351.51L408.284,1351.5L409.194,1351.49L410.146,1351.48L412.159,1351.45L414.299,1351.43L418.857,1351.36L421.224,1351.33L423.617,1351.3L424.815,1351.28L426.009,1351.27L427.198,1351.26L428.377,1351.24L429.543,1351.23L430.693,1351.22L431.825,1351.21L432.934,1351.2L434.017,1351.2L435.072,1351.19L436.095,1351.19L437.082,1351.19L437.305,1351.19L437.524,1351.19L437.739,1351.19L437.951,1351.2L438.16,1351.2L438.366,1351.21L438.569,1351.21L438.769,1351.22L438.965,1351.23L439.158,1351.23L439.349,1351.24L439.536,1351.25L439.72,1351.26L439.901,1351.27L440.079,1351.28L440.255,1351.29L440.427,1351.31L440.596,1351.32L440.763,1351.33L440.926,1351.34L441.087,1351.36L441.243,1351.37L441.552,1351.4L441.848,1351.43L442.133,1351.46L442.407,1351.49L442.661,1351.52L442.686,1351.52L442.702,1351.52L442.719,1351.53L442.736,1351.53L442.754,1351.53L442.773,1351.54L442.792,1351.54L442.812,1351.55L442.832,1351.56L442.853,1351.56L442.875,1351.57L442.897,1351.58L442.919,1351.59L442.941,1351.6L442.964,1351.61L442.988,1351.63L443.012,1351.64L443.035,1351.65L443.059,1351.67L443.083,1351.68L443.107,1351.7L443.131,1351.72L443.155,1351.74L443.179,1351.75L443.203,1351.77L443.227,1351.79L443.25,1351.81L443.274,1351.84L443.297,1351.86L443.32,1351.88L443.343,1351.9L443.365,1351.93L443.387,1351.95L443.409,1351.98L443.43,1352.01L443.451,1352.03L443.471,1352.06L443.491,1352.09L443.51,1352.12L443.528,1352.15L443.547,1352.18L443.564,1352.21L443.581,1352.24L443.598,1352.27L443.613,1352.3L443.628,1352.34L443.643,1352.37L443.657,1352.4L443.67,1352.44L443.682,1352.47L443.693,1352.51L443.704,1352.54L443.714,1352.58L443.724,1352.61L443.732,1352.65L443.74,1352.69L443.747,1352.73L443.753,1352.76L443.758,1352.8L443.762,1352.84L443.766,1352.88L443.768,1352.92L443.769,1352.96L443.77,1353.02L443.771,1353.26L443.774,1353.53L443.779,1353.8L443.785,1354.08L443.792,1354.36L443.8,1354.65L443.81,1354.95L443.821,1355.26L443.844,1355.88L443.869,1356.54L443.896,1357.22L443.922,1357.92L443.935,1358.29L443.947,1358.65L443.959,1359.02L443.97,1359.4L443.981,1359.78L443.99,1360.17L443.998,1360.56L444.005,1360.96L444.011,1361.36L444.016,1361.77L444.018,1362.18L444.019,1362.6L444.018,1363.02L444.015,1363.44L444.01,1363.87L444.003,1364.3L443.992,1364.81L443.98,1365.32L443.965,1365.84L443.949,1366.36L443.931,1366.88L443.912,1367.4L443.892,1367.92L443.871,1368.44L443.849,1368.96L443.826,1369.48L443.802,1370L443.777,1370.51L443.728,1371.52L443.677,1372.51L443.627,1373.47L443.578,1374.4L443.531,1375.29L443.488,1376.13L443.469,1376.54L443.45,1376.93L443.433,1377.31L443.417,1377.67L443.403,1378.02L443.391,1378.35L443.381,1378.67L443.373,1378.95L443.372,1378.97L443.372,1378.98L443.371,1378.98L443.371,1378.99L443.37,1378.99L443.369,1378.99L443.368,1379L443.367,1379L443.366,1379L443.365,1379.01L443.363,1379.01L443.361,1379.02L443.358,1379.02L443.355,1379.03L443.351,1379.03L443.347,1379.04L443.341,1379.05L443.335,1379.06L443.328,1379.06L443.32,1379.07L443.311,1379.08L443.301,1379.09L443.29,1379.1L443.277,1379.12L443.264,1379.13L443.249,1379.14L443.232,1379.15L443.215,1379.17L443.196,1379.18L443.175,1379.19L443.154,1379.21L443.131,1379.22L443.107,1379.24L443.082,1379.25L443.055,1379.27L443.027,1379.28L442.998,1379.29L442.967,1379.31L442.936,1379.32L442.903,1379.33L442.869,1379.35L442.834,1379.36L442.798,1379.37L442.761,1379.38L442.723,1379.39L442.684,1379.4L442.644,1379.41L442.604,1379.42L442.562,1379.43L442.52,1379.44L442.477,1379.45L442.434,1379.46L442.389,1379.46L442.344,1379.47L442.298,1379.48L442.252,1379.48L442.206,1379.48L442.159,1379.49L442.112,1379.49L442.064,1379.49L442.016,1379.49L441.967,1379.49L441.918,1379.49L441.858,1379.49L441.7,1379.48L441.525,1379.48L441.347,1379.47L441.165,1379.47L440.979,1379.47L440.789,1379.47L440.595,1379.47L440.397,1379.47L440.195,1379.47L439.989,1379.48L439.779,1379.48L439.565,1379.49L439.348,1379.5L439.126,1379.5L438.901,1379.51L438.671,1379.52L438.204,1379.54L437.721,1379.57L437.225,1379.59L436.717,1379.62L436.196,1379.64L435.664,1379.67L434.57,1379.74L433.436,1379.8L432.858,1379.84L432.272,1379.87L431.679,1379.9L431.081,1379.93L430.477,1379.96L429.87,1379.98L429.257,1380.01L428.951,1380.02L428.644,1380.03L428.336,1380.04L428.028,1380.05L427.719,1380.06L427.41,1380.07L427.101,1380.08L426.792,1380.08L426.483,1380.09L426.174,1380.1L425.865,1380.1L425.557,1380.1L425.249,1380.11L424.941,1380.11L424.532,1380.11L424.124,1380.11L423.715,1380.11L423.306,1380.11L422.898,1380.11L422.491,1380.1L422.083,1380.1L421.677,1380.1L420.866,1380.09L420.059,1380.08L419.257,1380.07L418.46,1380.05L417.67,1380.04L416.887,1380.02L416.112,1380L415.346,1379.98L414.59,1379.96L413.845,1379.93L413.111,1379.91L412.389,1379.89L411.681,1379.86L410.987,1379.84L410.308,1379.81L409.644,1379.78L408.998,1379.76L408.368,1379.73L407.757,1379.7L407.166,1379.67L406.594,1379.65L406.043,1379.62L405.007,1379.57L404.064,1379.52L403.233,1379.47L403.219,1379.47L403.215,1379.47L403.21,1379.47L403.205,1379.47L403.198,1379.47L403.19,1379.47L403.182,1379.47L403.173,1379.46L403.163,1379.46L403.153,1379.46L403.142,1379.45L403.131,1379.45L403.118,1379.45L403.105,1379.44L403.093,1379.44L403.079,1379.43L403.065,1379.42L403.051,1379.42L403.035,1379.41L403.021,1379.4L403.006,1379.39L402.99,1379.38L402.975,1379.37L402.96,1379.36L402.944,1379.35L402.928,1379.34L402.913,1379.33L402.898,1379.32L402.883,1379.3L402.867,1379.29L402.852,1379.28L402.838,1379.27L402.825,1379.25L402.811,1379.24L402.797,1379.22L402.784,1379.21L402.771,1379.2L402.759,1379.18L402.748,1379.17L402.736,1379.15L402.726,1379.14L402.716,1379.13L402.706,1379.11L402.697,1379.1L402.689,1379.08L402.68,1379.07L402.673,1379.06L402.667,1379.05L402.661,1379.03L402.655,1379.02L402.65,1379.01L402.645,1379L402.642,1378.99L402.639,1378.98L402.635,1378.97L402.633,1378.96L402.631,1378.96L402.63,1378.95L402.628,1378.95L402.627,1378.94L402.627,1378.94L402.626,1378.93L402.626,1378.93L402.625,1378.92L402.618,1378.77L402.611,1378.61L402.597,1378.26L402.585,1377.88L402.574,1377.48L402.564,1377.05L402.555,1376.61L402.547,1376.14L402.541,1375.66L402.535,1375.15L402.531,1374.63L402.527,1374.1L402.525,1373.55L402.523,1372.98L402.522,1372.41L402.522,1371.82L402.522,1371.22L402.523,1370.61L402.525,1370L402.53,1368.75L402.537,1367.49L402.546,1366.22L402.555,1364.94L402.566,1363.68L402.587,1361.22L402.59,1360.85L402.592,1360.49L402.593,1360.14L402.594,1359.81L402.594,1359.48L402.594,1359.17L402.591,1358.59L402.586,1358.04L402.579,1357.53L402.572,1357.05L402.563,1356.6L402.554,1356.17L402.545,1355.76L402.528,1354.98L402.52,1354.6L402.514,1354.22L402.509,1353.84L402.506,1353.45L402.506,1353.37L402.508,1353.29L402.511,1353.21L402.515,1353.14L402.52,1353.07L402.527,1353L402.535,1352.93L402.543,1352.87L402.553,1352.8L402.564,1352.74L402.575,1352.68L402.587,1352.62L402.601,1352.57L402.615,1352.52L402.629,1352.47L402.645,1352.42L402.661,1352.37L402.677,1352.33L402.694,1352.28L402.711,1352.24L402.729,1352.2L402.747,1352.16L402.765,1352.13L402.784,1352.09L402.802,1352.06L402.822,1352.03L402.841,1352L402.86,1351.97L402.879,1351.95L402.898,1351.92L402.918,1351.9L402.937,1351.88L402.957,1351.86L402.976,1351.84L402.996,1351.82L403.016,1351.8L403.036,1351.78L403.056,1351.76L403.077,1351.75L403.097,1351.73L403.118,1351.72L403.14,1351.7L403.162,1351.69L403.185,1351.68L403.208,1351.67L403.232,1351.65L403.256,1351.64L403.282,1351.63L403.308,1351.62L403.336,1351.61L403.364,1351.6L403.394,1351.59L403.425,1351.59L403.456,1351.58Z" style="fill:rgb(0,204,179);"/>
            </g>
            <g transform="matrix(-1.29331,0.346542,0.401259,1.49752,2671.02,7075.31)">
                <path d="M401.371,1361.41C403.391,1363.03 408.847,1366.7 413.102,1370.42C415.309,1372.35 418.364,1374.91 420.692,1375.87C421.512,1376.21 422.866,1376.46 423.734,1375.94C425.432,1374.91 430.416,1370.9 434.473,1368.04C439.634,1364.39 444.944,1361.37 444.944,1361.37" style="fill:none;stroke:rgb(0,204,179);stroke-width:1.58px;"/>
            </g>
        </g>
        <g transform="matrix(1,0,0,1,-195.116,2379.68)">
            <path d="M2637.86,9186.75C2637.08,9186.75 2629.77,9188.95 2627.37,9189.54C2624.54,9190.25 2614.14,9194.87 2615.39,9197.84C2616.64,9200.81 2625.68,9201.05 2629.46,9201.34C2638.57,9202.03 2644.61,9201.96 2653.31,9203.34C2657.19,9203.96 2664.51,9205.28 2662.65,9209.88C2660.39,9215.44 2639.62,9221.15 2635.53,9222.68C2629.11,9225.07 2615.21,9226.97 2607.62,9228.86C2603.92,9229.78 2591.39,9233.22 2587.74,9233.22L2038.39,9334.38C2003.61,9341.52 2053.45,9347.96 2047.17,9354.88C2040.69,9362.02 1997.11,9362.49 1993.68,9370.35" style="fill:none;stroke:rgb(109,224,75);stroke-width:2px;stroke-miterlimit:1;"/>
            <g transform="matrix(0.993588,0.113062,-0.113062,0.993588,1055.24,-239.201)">
                <path d="M2640.5,9170.24C2642.59,9168.12 2646.11,9161.13 2647.83,9158.53C2650.39,9154.64 2654.96,9145.76 2655.9,9143.68C2656.77,9141.74 2661.71,9135.18 2662.21,9133.64C2662.55,9132.61 2668.82,9121.32 2671.72,9119.85C2675.84,9117.76 2681.76,9119.94 2683.53,9123.48C2683.8,9124.01 2685.09,9126.16 2684.68,9126.96C2683.76,9128.78 2683.03,9131.22 2681.78,9133.1C2680.26,9135.39 2676.39,9141.72 2674.81,9144.67C2673.05,9147.95 2657.37,9175 2654.93,9176.73C2651.24,9179.34 2647.92,9181.84 2643.85,9183.48C2642.36,9184.08 2640.49,9185.86 2639.14,9186.52C2638.81,9186.69 2637.89,9185.92 2637.89,9185.73C2637.89,9182 2640.5,9170.24 2640.5,9170.24Z" style="fill:white;stroke:rgb(0,204,179);stroke-width:2px;stroke-miterlimit:1;"/>
            </g>
            <g transform="matrix(0.993588,0.113062,-0.113062,0.993588,1055.24,-239.201)">
                <path d="M2638.53,9181.18C2639.55,9181.18 2643.12,9182.4 2643.12,9183.47" style="fill:none;stroke:rgb(109,224,75);stroke-width:2px;stroke-miterlimit:1;"/>
            </g>
            <g transform="matrix(0.993588,0.113062,-0.113062,0.993588,1055.24,-239.201)">
                <path d="M2641.14,9170.09C2641.14,9169.6 2646.56,9170.54 2649.58,9172.74C2651.38,9174.06 2652.75,9175.39 2654.24,9176.88" style="fill:none;stroke:rgb(0,204,179);stroke-width:2px;stroke-miterlimit:1;"/>
            </g>
            <g transform="matrix(0.993588,0.113062,-0.113062,0.993588,1055.24,-239.201)">
                <path d="M2667.2,9127.5C2669.93,9127.5 2674.08,9129.25 2675.93,9131.1C2676.54,9131.71 2680.23,9134.25 2680.23,9135.76" style="fill:none;stroke:rgb(0,204,179);stroke-width:2px;stroke-miterlimit:1;"/>
            </g>
            <g transform="matrix(0.993588,0.113062,-0.113062,0.993588,1055.24,-239.201)">
                <path d="M2663.54,9132.36C2669.98,9132.36 2674.54,9136.38 2678.01,9139.85" style="fill:none;stroke:rgb(0,204,179);stroke-width:2px;stroke-miterlimit:1;"/>
            </g>
            <g transform="matrix(0.993588,0.113062,-0.113062,0.993588,1055.24,-239.201)">
                <path d="M2645.72,9170.92C2645.72,9170.32 2649.07,9165.31 2649.83,9163.77C2650.95,9161.53 2654.86,9154.54 2655.52,9153.2C2657.11,9150 2658.74,9147.27 2660.67,9144.33C2661.58,9142.95 2667.45,9133.99 2667.45,9133.66" style="fill:none;stroke:rgb(109,224,75);stroke-width:2px;stroke-miterlimit:1;"/>
            </g>
            <g transform="matrix(0.993588,0.113062,-0.113062,0.993588,1055.24,-239.201)">
                <path d="M2650.99,9173.93C2650.99,9173.56 2652.76,9170.54 2653.37,9169.37C2654.82,9166.59 2656.27,9164.19 2658.13,9161.58C2659,9160.35 2662.69,9154.7 2663.43,9153.05C2663.99,9151.82 2669.09,9144.44 2669.51,9143.81C2670.83,9141.81 2672.86,9138.41 2673.64,9136.56" style="fill:none;stroke:rgb(109,224,75);stroke-width:2px;stroke-miterlimit:1;"/>
            </g>
        </g>
        <g transform="matrix(0.562526,0,0,0.562526,707.959,6431.77)">
            <g transform="matrix(1.44067,0,0,1.44067,-904.721,-4079.7)">
                <path d="M1987.02,9207.78C1981.7,9208.42 1976.15,9211.74 1973.14,9215.91C1970.14,9220.07 1967.84,9222.66 1968.97,9232.78C1970.51,9246.57 1978.86,9248.1 1984.97,9250.8C1991.08,9253.49 2000.4,9251.98 2005.64,9248.94C2010.88,9245.91 2015.97,9238.78 2016.39,9232.58C2016.81,9226.37 2015.33,9216.18 2008.16,9211.71C2002.24,9208.02 1992.85,9207.08 1987.02,9207.78Z" style="fill:white;stroke:rgb(0,204,179);stroke-width:2.47px;stroke-miterlimit:1;"/>
            </g>
            <g transform="matrix(1.44067,0,0,1.44067,-895.241,-4082.73)">
                <path d="M1986.29,9224.07C1985.19,9224.07 1985.64,9226.06 1986.48,9225.46C1986.81,9225.22 1987.03,9224.1 1986.76,9223.84C1986.54,9223.62 1986.14,9223.81 1986.14,9224" style="fill:none;stroke:rgb(113,225,80);stroke-width:2.47px;stroke-miterlimit:1;"/>
            </g>
            <g transform="matrix(1.44067,0,0,1.44067,-894.485,-4084.61)">
                <path d="M1993.45,9223.33C1992.76,9223.33 1993.74,9225.75 1994.39,9225.09C1995.08,9224.38 1993.85,9223.23 1993.85,9223.55" style="fill:none;stroke:rgb(113,225,80);stroke-width:2.47px;stroke-miterlimit:1;"/>
            </g>
            <g transform="matrix(1.20489,0,0,1.44067,-422.371,-4078.25)">
                <path d="M1977.64,9237.83C1977.97,9237.83 1979.1,9238.7 1979.62,9238.83C1982.56,9239.56 1985.56,9240.05 1988.68,9240.05C1990.15,9240.05 1992.01,9240.09 1993.33,9239.37C1995.81,9238.02 1998.88,9236.82 2000.89,9234.78C2001.6,9234.07 2002.53,9232.95 2002.97,9232.06C2003.04,9231.92 2003.39,9231.31 2003.46,9231.31" style="fill:none;stroke:rgb(113,225,80);stroke-width:2.68px;stroke-miterlimit:1;"/>
            </g>
        </g>
        <g transform="matrix(0.839001,0.167746,-0.167746,0.839001,2434.11,3578.72)">
            <g transform="matrix(-1.65892,-0.0321824,-0.0320292,1.65103,2744.17,6958.28)">
                <path d="M430.736,1340.47C428.112,1340.42 421.791,1339.24 418.74,1337.44C414.988,1335.23 413.425,1330.73 413.238,1327.35C413.052,1323.97 415.245,1319.54 417.622,1317.14C419.999,1314.75 424.179,1313.59 427.502,1312.98C430.803,1312.37 434.506,1312.66 437.561,1313.46C440.572,1314.25 443.87,1315.7 445.836,1317.78C447.802,1319.85 449.143,1323 449.356,1325.91C449.568,1328.81 448.462,1332.92 447.11,1335.19C445.866,1337.28 442.716,1338.7 441.244,1339.53C440.362,1340.03 438.278,1340.2 438.278,1340.2C437.9,1340.04 437.821,1341.32 437.807,1342.35C437.785,1343.85 438.151,1344.84 438.247,1345.63C438.381,1346.73 436.735,1346.58 436.574,1346.48C435.27,1345.67 434.809,1345.5 433.355,1344.17C431.757,1342.7 431.238,1341.34 430.736,1340.47Z" style="fill:white;"/>
                <path d="M436.537,1313.21L436.387,1313.18L436.237,1313.15L436.086,1313.12L435.934,1313.09L435.781,1313.06L435.628,1313.04L435.474,1313.01L435.32,1312.98L435.165,1312.96L435.009,1312.94L434.853,1312.91L434.696,1312.89L434.539,1312.87L434.381,1312.85L434.223,1312.83L434.065,1312.81L433.906,1312.79L433.747,1312.78L433.587,1312.76L433.427,1312.75L433.267,1312.73L433.107,1312.72L432.946,1312.71L432.785,1312.7L432.624,1312.69L432.462,1312.68L432.301,1312.67L432.139,1312.67L431.977,1312.66L431.816,1312.66L431.654,1312.65L431.492,1312.65L431.33,1312.65L431.168,1312.65L431.006,1312.65L430.844,1312.66L430.682,1312.66L430.521,1312.66L430.359,1312.67L430.198,1312.68L430.037,1312.68L429.876,1312.69L429.715,1312.7L429.555,1312.72L429.394,1312.73L429.234,1312.74L429.075,1312.76L428.916,1312.78L428.757,1312.79L428.598,1312.81L428.44,1312.83L428.283,1312.85L428.125,1312.88L427.969,1312.9L427.813,1312.93L427.657,1312.95L427.502,1312.98L427.346,1313.01L427.188,1313.04L427.029,1313.07L426.87,1313.1L426.709,1313.13L426.547,1313.17L426.384,1313.2L426.221,1313.24L426.057,1313.27L425.892,1313.31L425.726,1313.35L425.56,1313.39L425.393,1313.43L425.226,1313.47L425.059,1313.51L424.891,1313.55L424.722,1313.6L424.554,1313.64L424.385,1313.69L424.217,1313.74L424.048,1313.78L423.879,1313.83L423.711,1313.88L423.542,1313.93L423.374,1313.99L423.206,1314.04L423.039,1314.1L422.871,1314.15L422.704,1314.21L422.538,1314.27L422.372,1314.33L422.207,1314.39L422.043,1314.45L421.879,1314.52L421.716,1314.59L421.554,1314.65L421.393,1314.72L421.233,1314.79L421.074,1314.86L420.917,1314.93L420.76,1315.01L420.605,1315.08L420.45,1315.16L420.298,1315.24L420.146,1315.32L419.996,1315.4L419.848,1315.48L419.775,1315.52L419.701,1315.57L419.629,1315.61L419.556,1315.65L419.485,1315.7L419.413,1315.74L419.342,1315.78L419.272,1315.83L419.201,1315.87L419.132,1315.92L419.063,1315.97L418.994,1316.01L418.926,1316.06L418.858,1316.11L418.791,1316.15L418.725,1316.2L418.658,1316.25L418.593,1316.3L418.528,1316.35L418.463,1316.4L418.399,1316.45L418.336,1316.5L418.273,1316.55L418.211,1316.6L418.149,1316.65L418.088,1316.71L418.028,1316.76L417.968,1316.81L417.909,1316.87L417.85,1316.92L417.792,1316.97L417.735,1317.03L417.678,1317.08L417.622,1317.14L417.566,1317.2L417.511,1317.25L417.455,1317.31L417.4,1317.37L417.344,1317.43L417.289,1317.49L417.234,1317.55L417.179,1317.61L417.124,1317.67L417.069,1317.74L416.96,1317.87L416.852,1318L416.744,1318.13L416.636,1318.26L416.53,1318.4L416.424,1318.54L416.319,1318.68L416.215,1318.83L416.111,1318.97L416.009,1319.12L415.908,1319.27L415.808,1319.42L415.709,1319.58L415.611,1319.73L415.514,1319.89L415.419,1320.05L415.325,1320.21L415.232,1320.37L415.141,1320.53L415.051,1320.69L414.963,1320.86L414.877,1321.03L414.792,1321.19L414.708,1321.36L414.627,1321.53L414.547,1321.7L414.469,1321.88L414.393,1322.05L414.319,1322.22L414.246,1322.39L414.176,1322.57L414.108,1322.74L414.075,1322.83L414.042,1322.91L414.01,1323L413.978,1323.09L413.947,1323.18L413.917,1323.26L413.887,1323.35L413.857,1323.44L413.829,1323.53L413.8,1323.62L413.773,1323.7L413.746,1323.79L413.719,1323.88L413.694,1323.96L413.669,1324.05L413.644,1324.14L413.62,1324.23L413.597,1324.32L413.574,1324.4L413.552,1324.49L413.531,1324.58L413.51,1324.66L413.49,1324.75L413.471,1324.84L413.453,1324.92L413.435,1325.01L413.417,1325.1L413.401,1325.18L413.385,1325.27L413.37,1325.36L413.356,1325.44L413.342,1325.53L413.329,1325.61L413.317,1325.7L413.305,1325.78L413.295,1325.87L413.285,1325.95L413.276,1326.04L413.267,1326.12L413.26,1326.21L413.253,1326.29L413.247,1326.37L413.242,1326.46L413.237,1326.54L413.234,1326.62L413.231,1326.7L413.229,1326.79L413.228,1326.87L413.227,1326.95L413.228,1327.03L413.229,1327.11L413.231,1327.19L413.234,1327.27L413.238,1327.35L413.248,1327.51L413.26,1327.67L413.274,1327.83L413.29,1328L413.308,1328.16L413.328,1328.33L413.35,1328.5L413.374,1328.66L413.401,1328.83L413.43,1329L413.461,1329.18L413.494,1329.35L413.529,1329.52L413.567,1329.69L413.587,1329.78L413.607,1329.87L413.628,1329.96L413.649,1330.04L413.671,1330.13L413.694,1330.22L413.717,1330.31L413.74,1330.39L413.765,1330.48L413.79,1330.57L413.815,1330.66L413.841,1330.74L413.868,1330.83L413.895,1330.92L413.923,1331.01L413.952,1331.1L413.981,1331.18L414.011,1331.27L414.041,1331.36L414.072,1331.45L414.103,1331.53L414.136,1331.62L414.168,1331.71L414.202,1331.8L414.236,1331.88L414.27,1331.97L414.306,1332.06L414.342,1332.14L414.378,1332.23L414.415,1332.32L414.453,1332.4L414.492,1332.49L414.531,1332.58L414.571,1332.66L414.611,1332.75L414.652,1332.84L414.694,1332.92L414.736,1333.01L414.779,1333.09L414.823,1333.17L414.867,1333.26L414.912,1333.34L414.958,1333.43L415.004,1333.51L415.051,1333.59L415.099,1333.68L415.148,1333.76L415.197,1333.84L415.246,1333.92L415.297,1334.01L415.348,1334.09L415.4,1334.17L415.452,1334.25L415.505,1334.33L415.559,1334.41L415.614,1334.49L415.669,1334.57L415.725,1334.65L415.782,1334.72L415.839,1334.8L415.897,1334.88L415.956,1334.96L416.016,1335.03L416.076,1335.11L416.137,1335.18L416.198,1335.26L416.261,1335.33L416.324,1335.41L416.388,1335.48L416.452,1335.55L416.518,1335.62L416.584,1335.7L416.65,1335.77L416.718,1335.84L416.786,1335.91L416.855,1335.98L416.925,1336.05L416.995,1336.12L417.067,1336.18L417.139,1336.25L417.211,1336.32L417.285,1336.38L417.359,1336.45L417.434,1336.51L417.51,1336.57L417.587,1336.64L417.664,1336.7L417.742,1336.76L417.821,1336.82L417.901,1336.88L417.981,1336.94L418.062,1337L418.144,1337.06L418.227,1337.11L418.311,1337.17L418.395,1337.23L418.48,1337.28L418.566,1337.33L418.653,1337.39L418.74,1337.44L418.812,1337.48L418.886,1337.52L418.96,1337.57L419.036,1337.61L419.112,1337.65L419.19,1337.69L419.269,1337.73L419.349,1337.77L419.43,1337.81L419.512,1337.85L419.595,1337.89L419.679,1337.93L419.764,1337.97L419.85,1338.01L419.936,1338.05L420.024,1338.08L420.113,1338.12L420.202,1338.16L420.292,1338.2L420.383,1338.24L420.568,1338.31L420.755,1338.38L420.946,1338.45L421.139,1338.53L421.334,1338.6L421.533,1338.66L421.733,1338.73L421.935,1338.8L422.14,1338.86L422.346,1338.93L422.553,1338.99L422.763,1339.05L422.973,1339.12L423.185,1339.17L423.397,1339.23L423.61,1339.29L423.824,1339.35L424.039,1339.4L424.254,1339.46L424.468,1339.51L424.683,1339.56L424.898,1339.61L425.113,1339.66L425.327,1339.71L425.54,1339.75L425.753,1339.8L425.964,1339.84L426.175,1339.88L426.384,1339.92L426.592,1339.96L426.798,1340L427.003,1340.04L427.205,1340.07L427.406,1340.11L427.604,1340.14L427.8,1340.17L427.993,1340.2L428.184,1340.23L428.372,1340.26L428.556,1340.28L428.738,1340.3L428.916,1340.33L429.091,1340.35L429.262,1340.37L429.429,1340.38L429.593,1340.4L429.752,1340.41L429.907,1340.43L430.057,1340.44L430.203,1340.45L430.344,1340.46L430.48,1340.46L430.611,1340.47L430.736,1340.47L430.784,1340.55L430.831,1340.64L430.879,1340.73L430.927,1340.82L431.027,1341.01L431.133,1341.21L431.188,1341.31L431.244,1341.42L431.303,1341.53L431.364,1341.64L431.428,1341.75L431.494,1341.86L431.563,1341.98L431.635,1342.1L431.71,1342.22L431.789,1342.34L431.829,1342.4L431.871,1342.46L431.913,1342.52L431.957,1342.58L432.001,1342.65L432.047,1342.71L432.093,1342.77L432.141,1342.84L432.189,1342.9L432.239,1342.97L432.29,1343.03L432.342,1343.1L432.396,1343.16L432.45,1343.23L432.506,1343.29L432.563,1343.36L432.621,1343.42L432.681,1343.49L432.742,1343.56L432.804,1343.62L432.868,1343.69L432.933,1343.76L433,1343.83L433.068,1343.9L433.137,1343.96L433.208,1344.03L433.281,1344.1L433.355,1344.17L433.488,1344.29L433.616,1344.41L433.739,1344.52L433.857,1344.62L433.971,1344.72L434.08,1344.81L434.186,1344.9L434.288,1344.98L434.387,1345.06L434.483,1345.13L434.577,1345.2L434.669,1345.27L434.759,1345.34L434.847,1345.4L434.934,1345.46L435.021,1345.52L435.107,1345.58L435.193,1345.63L435.279,1345.69L435.366,1345.74L435.453,1345.8L435.542,1345.85L435.725,1345.96L436.121,1346.2L436.338,1346.33L436.454,1346.4L436.574,1346.48L436.582,1346.48L436.593,1346.49L436.606,1346.49L436.62,1346.5L436.637,1346.5L436.655,1346.51L436.697,1346.52L436.746,1346.53L436.8,1346.53L436.859,1346.54L436.922,1346.54L436.99,1346.55L437.06,1346.55L437.097,1346.55L437.134,1346.55L437.171,1346.55L437.209,1346.55L437.248,1346.54L437.287,1346.54L437.325,1346.54L437.365,1346.53L437.404,1346.53L437.443,1346.52L437.482,1346.51L437.521,1346.51L437.56,1346.5L437.598,1346.49L437.636,1346.48L437.674,1346.47L437.711,1346.45L437.748,1346.44L437.784,1346.43L437.819,1346.41L437.853,1346.39L437.887,1346.38L437.919,1346.36L437.951,1346.34L437.981,1346.32L438.01,1346.29L438.038,1346.27L438.065,1346.24L438.09,1346.22L438.113,1346.19L438.125,1346.17L438.135,1346.16L438.146,1346.14L438.156,1346.13L438.166,1346.11L438.175,1346.1L438.183,1346.08L438.192,1346.06L438.199,1346.04L438.207,1346.03L438.214,1346.01L438.22,1345.99L438.226,1345.97L438.231,1345.95L438.236,1345.93L438.24,1345.91L438.244,1345.89L438.247,1345.87L438.25,1345.85L438.252,1345.82L438.253,1345.8L438.254,1345.78L438.255,1345.76L438.254,1345.73L438.253,1345.71L438.252,1345.68L438.25,1345.66L438.247,1345.63L438.237,1345.56L438.226,1345.48L438.213,1345.4L438.2,1345.33L438.185,1345.25L438.169,1345.16L438.135,1345L438.06,1344.64L438.021,1344.45L438.002,1344.36L437.983,1344.26L437.964,1344.15L437.946,1344.05L437.928,1343.95L437.911,1343.84L437.895,1343.73L437.88,1343.62L437.866,1343.5L437.853,1343.38L437.841,1343.26L437.831,1343.14L437.822,1343.02L437.815,1342.89L437.81,1342.76L437.807,1342.62L437.806,1342.56L437.806,1342.49L437.806,1342.42L437.807,1342.35L437.81,1342.15L437.816,1341.95L437.819,1341.85L437.823,1341.75L437.828,1341.65L437.833,1341.55L437.834,1341.54L437.798,1341.53L437.834,1341.54L437.84,1341.46L437.846,1341.36L437.854,1341.27L437.863,1341.17L437.872,1341.08L437.883,1340.99L437.894,1340.91L437.906,1340.83L437.92,1340.75L437.934,1340.67L437.95,1340.6L437.958,1340.57L437.967,1340.54L437.976,1340.5L437.985,1340.47L437.995,1340.44L438.004,1340.42L438.015,1340.39L438.025,1340.37L438.036,1340.34L438.047,1340.32L438.059,1340.3L438.071,1340.28L438.083,1340.26L438.096,1340.25L438.109,1340.23L438.122,1340.22L438.136,1340.21L438.15,1340.2L438.165,1340.19L438.18,1340.19L438.195,1340.18L438.211,1340.18L438.227,1340.18L438.244,1340.18L438.261,1340.19L438.278,1340.2L438.37,1340.19L438.476,1340.18L438.618,1340.16L438.789,1340.14L438.884,1340.13L438.984,1340.12L439.09,1340.1L439.2,1340.09L439.314,1340.07L439.43,1340.05L439.55,1340.03L439.672,1340.01L439.794,1339.99L439.918,1339.96L440.042,1339.93L440.165,1339.91L440.288,1339.88L440.348,1339.86L440.409,1339.85L440.468,1339.83L440.527,1339.81L440.585,1339.8L440.643,1339.78L440.699,1339.76L440.755,1339.74L440.81,1339.72L440.863,1339.7L440.916,1339.68L440.967,1339.66L441.017,1339.64L441.065,1339.62L441.112,1339.6L441.158,1339.58L441.201,1339.56L441.244,1339.53L441.386,1339.45L441.538,1339.37L441.699,1339.28L441.867,1339.19L442.225,1339L442.413,1338.9L442.606,1338.8L442.804,1338.69L443.006,1338.58L443.211,1338.46L443.419,1338.34L443.523,1338.28L443.628,1338.22L443.734,1338.16L443.839,1338.1L443.945,1338.03L444.051,1337.97L444.157,1337.9L444.262,1337.83L444.368,1337.77L444.473,1337.7L444.578,1337.63L444.683,1337.56L444.787,1337.48L444.89,1337.41L444.993,1337.34L445.095,1337.26L445.197,1337.19L445.297,1337.11L445.396,1337.04L445.495,1336.96L445.592,1336.88L445.688,1336.8L445.782,1336.72L445.876,1336.63L445.967,1336.55L446.057,1336.47L446.146,1336.38L446.233,1336.3L446.318,1336.21L446.401,1336.12L446.442,1336.08L446.482,1336.03L446.522,1335.99L446.561,1335.94L446.6,1335.9L446.638,1335.85L446.676,1335.81L446.713,1335.76L446.749,1335.72L446.785,1335.67L446.821,1335.62L446.855,1335.58L446.889,1335.53L446.923,1335.48L446.956,1335.43L446.988,1335.39L447.02,1335.34L447.05,1335.29L447.081,1335.24L447.11,1335.19L447.173,1335.08L447.236,1334.97L447.299,1334.86L447.361,1334.75L447.422,1334.63L447.483,1334.51L447.544,1334.38L447.604,1334.26L447.663,1334.13L447.722,1334L447.78,1333.87L447.838,1333.74L447.895,1333.61L447.951,1333.47L448.006,1333.33L448.061,1333.19L448.115,1333.05L448.169,1332.91L448.221,1332.76L448.273,1332.62L448.324,1332.47L448.374,1332.32L448.423,1332.17L448.471,1332.02L448.518,1331.87L448.564,1331.72L448.609,1331.56L448.654,1331.41L448.697,1331.25L448.739,1331.1L448.78,1330.94L448.82,1330.79L448.858,1330.63L448.896,1330.47L448.932,1330.31L448.967,1330.15L449.001,1330L449.034,1329.84L449.065,1329.68L449.095,1329.52L449.124,1329.36L449.151,1329.2L449.177,1329.05L449.201,1328.89L449.224,1328.73L449.246,1328.57L449.266,1328.42L449.285,1328.26L449.302,1328.11L449.317,1327.95L449.331,1327.8L449.343,1327.65L449.354,1327.49L449.363,1327.34L449.37,1327.19L449.376,1327.05L449.379,1326.9L449.382,1326.75L449.382,1326.61L449.38,1326.46L449.377,1326.32L449.372,1326.18L449.365,1326.04L449.356,1325.91L449.345,1325.77L449.332,1325.63L449.318,1325.5L449.303,1325.36L449.285,1325.22L449.267,1325.08L449.246,1324.95L449.224,1324.81L449.201,1324.67L449.175,1324.53L449.149,1324.39L449.12,1324.26L449.091,1324.12L449.06,1323.98L449.027,1323.84L448.993,1323.7L448.957,1323.57L448.92,1323.43L448.881,1323.29L448.841,1323.15L448.8,1323.02L448.757,1322.88L448.713,1322.74L448.667,1322.61L448.62,1322.47L448.572,1322.34L448.522,1322.2L448.471,1322.07L448.418,1321.93L448.365,1321.8L448.31,1321.66L448.253,1321.53L448.196,1321.4L448.137,1321.27L448.077,1321.14L448.015,1321.01L447.953,1320.88L447.889,1320.75L447.824,1320.62L447.758,1320.5L447.69,1320.37L447.621,1320.25L447.552,1320.12L447.481,1320L447.409,1319.88L447.335,1319.76L447.261,1319.63L447.185,1319.52L447.109,1319.4L447.031,1319.28L446.952,1319.16L446.873,1319.05L446.792,1318.94L446.71,1318.83L446.627,1318.71L446.543,1318.6L446.458,1318.5L446.372,1318.39L446.285,1318.28L446.197,1318.18L446.108,1318.08L446.019,1317.98L445.928,1317.88L445.836,1317.78L445.743,1317.68L445.648,1317.59L445.551,1317.49L445.452,1317.4L445.352,1317.3L445.249,1317.21L445.145,1317.12L445.04,1317.03L444.932,1316.94L444.823,1316.85L444.713,1316.76L444.6,1316.68L444.487,1316.59L444.372,1316.51L444.255,1316.42L444.137,1316.34L444.018,1316.26L443.897,1316.17L443.775,1316.1L443.652,1316.02L443.528,1315.94L443.402,1315.86L443.276,1315.78L443.148,1315.71L443.019,1315.63L442.889,1315.56L442.758,1315.49L442.626,1315.41L442.494,1315.34L442.36,1315.27L442.226,1315.2L442.09,1315.13L441.954,1315.07L441.818,1315L441.68,1314.94L441.542,1314.87L441.404,1314.81L441.264,1314.75L441.124,1314.68L440.984,1314.62L440.843,1314.56L440.702,1314.51L440.56,1314.45L440.419,1314.39L440.276,1314.34L440.134,1314.28L439.991,1314.23L439.848,1314.17L439.705,1314.12L439.561,1314.07L439.418,1314.02L439.274,1313.97L439.131,1313.92L438.987,1313.88L438.844,1313.83L438.701,1313.78L438.557,1313.74L438.414,1313.7L438.271,1313.65L438.129,1313.61L437.986,1313.57L437.844,1313.53L437.703,1313.49L437.561,1313.46L437.418,1313.42L437.273,1313.38L437.127,1313.35L436.981,1313.31L436.834,1313.28L436.686,1313.25L436.537,1313.21ZM436.522,1314.66L436.661,1314.69L436.799,1314.72L436.936,1314.76L437.071,1314.79L437.206,1314.83L437.34,1314.86L437.474,1314.9L437.608,1314.94L437.742,1314.97L437.877,1315.01L438.012,1315.05L438.147,1315.09L438.282,1315.14L438.418,1315.18L438.553,1315.22L438.689,1315.27L438.824,1315.31L438.96,1315.36L439.095,1315.4L439.23,1315.45L439.365,1315.5L439.499,1315.55L439.634,1315.6L439.768,1315.65L439.902,1315.71L440.035,1315.76L440.168,1315.82L440.3,1315.87L440.432,1315.93L440.563,1315.98L440.694,1316.04L440.824,1316.1L440.954,1316.16L441.082,1316.22L441.21,1316.28L441.337,1316.34L441.463,1316.4L441.589,1316.47L441.713,1316.53L441.837,1316.59L441.959,1316.66L442.08,1316.73L442.201,1316.79L442.32,1316.86L442.438,1316.93L442.554,1317L442.67,1317.07L442.784,1317.14L442.897,1317.21L443.009,1317.28L443.119,1317.36L443.227,1317.43L443.334,1317.5L443.44,1317.58L443.544,1317.65L443.646,1317.73L443.747,1317.8L443.846,1317.88L443.944,1317.96L444.039,1318.04L444.133,1318.11L444.225,1318.19L444.315,1318.27L444.404,1318.35L444.49,1318.43L444.574,1318.51L444.657,1318.59L444.737,1318.67L444.816,1318.76L444.895,1318.84L444.973,1318.92L445.052,1319.01L445.129,1319.1L445.206,1319.19L445.282,1319.29L445.357,1319.38L445.432,1319.47L445.506,1319.57L445.579,1319.67L445.651,1319.77L445.723,1319.87L445.794,1319.97L445.864,1320.07L445.933,1320.18L446.001,1320.28L446.069,1320.39L446.135,1320.5L446.2,1320.6L446.265,1320.71L446.329,1320.82L446.391,1320.93L446.453,1321.05L446.514,1321.16L446.573,1321.28L446.632,1321.39L446.689,1321.51L446.746,1321.62L446.801,1321.74L446.856,1321.86L446.909,1321.98L446.961,1322.09L447.011,1322.21L447.061,1322.33L447.11,1322.45L447.157,1322.58L447.203,1322.7L447.248,1322.82L447.292,1322.94L447.334,1323.06L447.375,1323.19L447.415,1323.31L447.454,1323.43L447.491,1323.56L447.527,1323.68L447.562,1323.81L447.595,1323.93L447.627,1324.05L447.658,1324.18L447.687,1324.3L447.715,1324.42L447.742,1324.55L447.767,1324.67L447.791,1324.8L447.813,1324.92L447.834,1325.04L447.854,1325.16L447.872,1325.29L447.889,1325.41L447.904,1325.53L447.918,1325.65L447.93,1325.77L447.941,1325.89L447.951,1326.01L447.958,1326.13L447.964,1326.24L447.969,1326.37L447.972,1326.49L447.973,1326.61L447.973,1326.74L447.971,1326.87L447.968,1327L447.963,1327.13L447.956,1327.27L447.948,1327.4L447.938,1327.54L447.927,1327.68L447.915,1327.82L447.901,1327.96L447.885,1328.1L447.868,1328.24L447.849,1328.39L447.83,1328.53L447.808,1328.68L447.786,1328.82L447.762,1328.97L447.736,1329.12L447.71,1329.26L447.682,1329.41L447.653,1329.56L447.623,1329.7L447.591,1329.85L447.558,1330L447.524,1330.15L447.489,1330.29L447.453,1330.44L447.416,1330.59L447.378,1330.73L447.339,1330.88L447.298,1331.02L447.257,1331.17L447.215,1331.31L447.172,1331.45L447.128,1331.59L447.083,1331.73L447.037,1331.87L446.991,1332.01L446.944,1332.15L446.896,1332.28L446.847,1332.41L446.798,1332.55L446.748,1332.68L446.698,1332.81L446.647,1332.93L446.595,1333.06L446.543,1333.18L446.491,1333.3L446.438,1333.42L446.385,1333.54L446.332,1333.65L446.278,1333.76L446.224,1333.87L446.171,1333.98L446.117,1334.08L446.063,1334.18L446.009,1334.28L445.955,1334.37L445.901,1334.46L445.881,1334.5L445.86,1334.53L445.838,1334.57L445.816,1334.6L445.793,1334.63L445.77,1334.67L445.745,1334.7L445.72,1334.74L445.695,1334.77L445.669,1334.81L445.642,1334.84L445.614,1334.88L445.587,1334.91L445.558,1334.94L445.528,1334.98L445.498,1335.02L445.468,1335.05L445.437,1335.09L445.405,1335.12L445.374,1335.15L445.306,1335.23L445.237,1335.3L445.166,1335.37L445.093,1335.44L445.018,1335.51L444.941,1335.58L444.862,1335.64L444.781,1335.71L444.698,1335.78L444.614,1335.85L444.528,1335.92L444.441,1335.99L444.352,1336.06L444.262,1336.12L444.171,1336.19L444.079,1336.25L443.986,1336.32L443.891,1336.38L443.796,1336.45L443.7,1336.51L443.604,1336.58L443.507,1336.64L443.409,1336.7L443.311,1336.76L443.212,1336.82L443.114,1336.88L443.014,1336.94L442.916,1337L442.816,1337.06L442.719,1337.12L442.52,1337.23L442.324,1337.34L442.129,1337.44L441.937,1337.55L441.748,1337.65L441.563,1337.75L441.205,1337.94L441.034,1338.03L440.867,1338.12L440.706,1338.21L440.563,1338.29L440.541,1338.31L440.527,1338.31L440.51,1338.32L440.489,1338.33L440.465,1338.34L440.438,1338.35L440.408,1338.36L440.376,1338.38L440.342,1338.39L440.305,1338.4L440.266,1338.41L440.225,1338.43L440.182,1338.44L440.138,1338.45L440.092,1338.47L440.045,1338.48L439.997,1338.49L439.95,1338.5L439.846,1338.53L439.741,1338.55L439.635,1338.58L439.527,1338.6L439.419,1338.62L439.31,1338.64L439.203,1338.65L439.098,1338.67L438.994,1338.69L438.894,1338.7L438.798,1338.71L438.706,1338.73L438.621,1338.74L438.462,1338.76L438.334,1338.77L438.317,1338.77L438.252,1338.77L438.236,1338.77L438.151,1338.77L438.066,1338.78L438.05,1338.78L437.964,1338.79L437.878,1338.81L437.863,1338.81L437.781,1338.83L437.699,1338.86L437.685,1338.86L437.611,1338.89L437.539,1338.92L437.525,1338.93L437.458,1338.97L437.394,1339.01L437.38,1339.02L437.268,1339.1L437.208,1339.14L437.11,1339.23L437.026,1339.33L436.957,1339.41L436.899,1339.5L436.848,1339.58L436.807,1339.65L436.77,1339.72L436.737,1339.79L436.71,1339.86L436.685,1339.92L436.663,1339.98L436.643,1340.04L436.625,1340.1L436.609,1340.16L436.593,1340.22L436.578,1340.28L436.555,1340.38L436.534,1340.49L436.516,1340.6L436.499,1340.71L436.485,1340.82L436.472,1340.92L436.461,1341.03L436.451,1341.14L436.442,1341.25L436.434,1341.36L436.427,1341.47L436.421,1341.58L436.416,1341.69L436.411,1341.8L436.407,1341.91L436.402,1342.12L436.398,1342.33L436.397,1342.41L436.397,1342.49L436.397,1342.57L436.398,1342.65L436.402,1342.8L436.408,1342.95L436.416,1343.1L436.426,1343.25L436.438,1343.39L436.451,1343.53L436.466,1343.66L436.483,1343.8L436.5,1343.93L436.518,1344.05L436.538,1344.17L436.557,1344.29L436.578,1344.41L436.598,1344.52L436.619,1344.63L436.64,1344.74L436.671,1344.88L436.451,1344.75L436.274,1344.64L436.191,1344.59L436.111,1344.54L436.032,1344.49L435.955,1344.44L435.88,1344.39L435.805,1344.35L435.73,1344.29L435.655,1344.24L435.579,1344.19L435.502,1344.13L435.423,1344.07L435.341,1344.01L435.257,1343.94L435.169,1343.87L435.078,1343.8L434.982,1343.72L434.882,1343.64L434.778,1343.55L434.668,1343.45L434.552,1343.35L434.432,1343.24L434.306,1343.12L434.24,1343.06L434.177,1343.01L434.116,1342.95L434.056,1342.89L433.998,1342.83L433.94,1342.77L433.884,1342.71L433.83,1342.65L433.776,1342.6L433.724,1342.54L433.673,1342.48L433.624,1342.43L433.575,1342.37L433.527,1342.31L433.481,1342.26L433.436,1342.2L433.391,1342.15L433.348,1342.09L433.306,1342.04L433.264,1341.98L433.224,1341.93L433.184,1341.88L433.145,1341.82L433.107,1341.77L433.07,1341.71L433.034,1341.66L432.998,1341.61L432.965,1341.56L432.896,1341.45L432.831,1341.35L432.768,1341.25L432.707,1341.14L432.649,1341.04L432.592,1340.94L432.536,1340.84L432.482,1340.74L432.429,1340.64L432.377,1340.55L432.273,1340.35L432.171,1340.15L432.119,1340.06L432.065,1339.96L432.011,1339.86L431.96,1339.77L431.889,1339.66L431.809,1339.55L431.719,1339.46L431.621,1339.37L431.514,1339.29L431.402,1339.22L431.283,1339.17L431.159,1339.12L431.032,1339.09L430.903,1339.07L430.771,1339.06L430.654,1339.05L430.538,1339.05L430.417,1339.04L430.289,1339.04L430.156,1339.03L430.017,1339.02L429.873,1339L429.724,1338.99L429.571,1338.98L429.413,1338.96L429.251,1338.94L429.085,1338.92L428.915,1338.9L428.742,1338.88L428.565,1338.85L428.385,1338.83L428.202,1338.8L428.016,1338.77L427.827,1338.74L427.636,1338.71L427.442,1338.68L427.247,1338.64L427.049,1338.61L426.85,1338.57L426.649,1338.53L426.447,1338.49L426.243,1338.45L426.039,1338.41L425.833,1338.37L425.627,1338.32L425.42,1338.28L425.213,1338.23L425.005,1338.18L424.798,1338.13L424.59,1338.08L424.383,1338.03L424.177,1337.98L423.971,1337.92L423.766,1337.87L423.562,1337.81L423.359,1337.75L423.158,1337.69L422.958,1337.64L422.76,1337.58L422.563,1337.51L422.369,1337.45L422.177,1337.39L421.988,1337.32L421.801,1337.26L421.617,1337.19L421.436,1337.13L421.258,1337.06L421.084,1336.99L420.912,1336.92L420.829,1336.89L420.746,1336.85L420.665,1336.82L420.584,1336.79L420.504,1336.75L420.425,1336.71L420.348,1336.68L420.271,1336.64L420.196,1336.61L420.122,1336.57L420.049,1336.54L419.977,1336.5L419.907,1336.47L419.838,1336.43L419.77,1336.39L419.704,1336.36L419.639,1336.32L419.575,1336.29L419.513,1336.25L419.453,1336.22L419.379,1336.17L419.305,1336.13L419.232,1336.08L419.16,1336.04L419.088,1335.99L419.017,1335.94L418.947,1335.89L418.878,1335.85L418.808,1335.8L418.74,1335.75L418.672,1335.69L418.605,1335.64L418.539,1335.59L418.473,1335.54L418.408,1335.48L418.343,1335.43L418.279,1335.37L418.215,1335.32L418.152,1335.26L418.09,1335.2L418.028,1335.15L417.967,1335.09L417.907,1335.03L417.847,1334.97L417.788,1334.91L417.729,1334.85L417.671,1334.79L417.613,1334.73L417.556,1334.67L417.5,1334.61L417.444,1334.54L417.389,1334.48L417.334,1334.42L417.28,1334.35L417.226,1334.29L417.173,1334.22L417.121,1334.15L417.069,1334.09L417.018,1334.02L416.967,1333.95L416.917,1333.89L416.867,1333.82L416.818,1333.75L416.77,1333.68L416.722,1333.61L416.675,1333.54L416.628,1333.47L416.582,1333.4L416.536,1333.33L416.491,1333.26L416.446,1333.18L416.403,1333.11L416.359,1333.04L416.316,1332.96L416.274,1332.89L416.233,1332.82L416.191,1332.74L416.151,1332.67L416.111,1332.59L416.071,1332.52L416.032,1332.44L415.994,1332.37L415.956,1332.29L415.919,1332.21L415.882,1332.14L415.846,1332.06L415.81,1331.99L415.776,1331.91L415.741,1331.83L415.707,1331.75L415.674,1331.68L415.641,1331.6L415.609,1331.52L415.577,1331.44L415.546,1331.36L415.515,1331.28L415.485,1331.21L415.455,1331.13L415.426,1331.05L415.398,1330.97L415.37,1330.89L415.343,1330.81L415.316,1330.73L415.29,1330.65L415.264,1330.57L415.239,1330.49L415.214,1330.41L415.19,1330.34L415.166,1330.26L415.143,1330.18L415.121,1330.1L415.099,1330.02L415.077,1329.94L415.056,1329.86L415.036,1329.78L415.016,1329.7L414.997,1329.62L414.978,1329.54L414.959,1329.46L414.942,1329.39L414.907,1329.23L414.875,1329.07L414.845,1328.91L414.817,1328.76L414.791,1328.61L414.767,1328.45L414.745,1328.3L414.725,1328.15L414.707,1328L414.691,1327.85L414.677,1327.7L414.664,1327.56L414.654,1327.41L414.645,1327.27L414.642,1327.21L414.639,1327.14L414.638,1327.08L414.637,1327.01L414.636,1326.95L414.636,1326.88L414.637,1326.81L414.639,1326.75L414.641,1326.68L414.644,1326.61L414.648,1326.54L414.652,1326.47L414.658,1326.4L414.663,1326.33L414.67,1326.26L414.677,1326.18L414.685,1326.11L414.693,1326.04L414.702,1325.97L414.712,1325.89L414.723,1325.82L414.734,1325.75L414.746,1325.67L414.758,1325.6L414.772,1325.52L414.785,1325.45L414.8,1325.37L414.815,1325.29L414.831,1325.22L414.847,1325.14L414.864,1325.06L414.882,1324.99L414.9,1324.91L414.919,1324.83L414.939,1324.75L414.959,1324.68L414.98,1324.6L415.001,1324.52L415.023,1324.44L415.046,1324.36L415.069,1324.28L415.093,1324.2L415.117,1324.12L415.142,1324.05L415.168,1323.97L415.194,1323.89L415.221,1323.81L415.248,1323.73L415.275,1323.65L415.304,1323.57L415.333,1323.49L415.362,1323.41L415.392,1323.33L415.421,1323.25L415.484,1323.09L415.549,1322.93L415.615,1322.77L415.683,1322.62L415.753,1322.46L415.825,1322.3L415.898,1322.14L415.973,1321.99L416.05,1321.83L416.129,1321.68L416.208,1321.52L416.29,1321.37L416.373,1321.22L416.457,1321.07L416.542,1320.92L416.629,1320.77L416.716,1320.63L416.805,1320.48L416.895,1320.34L416.986,1320.2L417.078,1320.06L417.171,1319.92L417.265,1319.79L417.359,1319.65L417.454,1319.52L417.55,1319.39L417.646,1319.26L417.742,1319.14L417.839,1319.02L417.937,1318.9L418.034,1318.78L418.133,1318.66L418.181,1318.61L418.229,1318.56L418.278,1318.5L418.327,1318.45L418.376,1318.39L418.425,1318.34L418.474,1318.29L418.523,1318.24L418.571,1318.19L418.619,1318.14L418.666,1318.09L418.713,1318.05L418.76,1318L418.808,1317.96L418.857,1317.91L418.907,1317.87L418.957,1317.82L419.007,1317.78L419.059,1317.73L419.111,1317.69L419.164,1317.65L419.217,1317.6L419.271,1317.56L419.326,1317.52L419.381,1317.48L419.437,1317.43L419.494,1317.39L419.551,1317.35L419.608,1317.31L419.666,1317.27L419.725,1317.22L419.785,1317.18L419.845,1317.14L419.905,1317.1L419.967,1317.06L420.028,1317.02L420.09,1316.98L420.153,1316.94L420.216,1316.9L420.28,1316.87L420.345,1316.83L420.41,1316.79L420.475,1316.75L420.538,1316.72L420.674,1316.64L420.808,1316.57L420.945,1316.5L421.084,1316.42L421.224,1316.35L421.366,1316.29L421.509,1316.22L421.654,1316.15L421.8,1316.09L421.947,1316.02L422.096,1315.96L422.246,1315.9L422.398,1315.84L422.55,1315.78L422.703,1315.72L422.857,1315.66L423.013,1315.6L423.169,1315.55L423.325,1315.49L423.483,1315.44L423.641,1315.39L423.8,1315.34L423.959,1315.29L424.118,1315.24L424.278,1315.19L424.438,1315.14L424.599,1315.1L424.76,1315.05L424.92,1315.01L425.081,1314.96L425.242,1314.92L425.402,1314.88L425.563,1314.84L425.723,1314.8L425.883,1314.77L426.043,1314.73L426.202,1314.69L426.36,1314.65L426.519,1314.62L426.676,1314.59L426.833,1314.55L426.989,1314.52L427.145,1314.49L427.299,1314.46L427.453,1314.43L427.605,1314.4L427.755,1314.37L427.9,1314.35L428.043,1314.32L428.187,1314.3L428.332,1314.28L428.478,1314.26L428.624,1314.24L428.771,1314.22L428.918,1314.2L429.066,1314.18L429.214,1314.17L429.363,1314.15L429.512,1314.14L429.661,1314.13L429.811,1314.12L429.962,1314.11L430.112,1314.1L430.263,1314.09L430.415,1314.08L430.566,1314.08L430.718,1314.08L430.87,1314.07L431.022,1314.07L431.174,1314.07L431.326,1314.07L431.479,1314.07L431.631,1314.07L431.784,1314.07L431.936,1314.08L432.089,1314.08L432.241,1314.09L432.394,1314.1L432.546,1314.1L432.698,1314.11L432.85,1314.12L433.002,1314.13L433.154,1314.14L433.305,1314.16L433.456,1314.17L433.607,1314.19L433.758,1314.2L433.908,1314.22L434.058,1314.24L434.207,1314.25L434.356,1314.27L434.505,1314.29L434.653,1314.31L434.801,1314.34L434.948,1314.36L435.094,1314.38L435.24,1314.41L435.385,1314.43L435.53,1314.46L435.674,1314.48L435.817,1314.51L435.96,1314.54L436.102,1314.57L436.243,1314.6L436.383,1314.63L436.522,1314.66Z" style="fill:rgb(0,204,179);"/>
            </g>
            <g transform="matrix(1.31861,0.528922,-0.528922,1.31861,3157.96,2418.19)">
                <path d="M989.501,4693.89C989.286,4692.71 989.335,4691.36 990.981,4690.32C992.448,4689.39 994.182,4689.91 994.892,4690.69C995.543,4691.41 995.929,4692.49 995.762,4693.65C995.606,4694.75 995.093,4696.02 995.075,4696.9C995.06,4697.62 995.454,4698.52 995.652,4698.96" style="fill:none;stroke:rgb(105,213,48);stroke-width:1.65px;stroke-miterlimit:1;"/>
                <path d="M997.472,4702.72L997.174,4702.01" style="fill:none;stroke:rgb(105,213,48);stroke-width:1.65px;stroke-miterlimit:1;"/>
            </g>
        </g>
        <g transform="matrix(1.45579,0,0,1.45579,-1084.58,-1862.95)">
            <g transform="matrix(-1.16682,-0.121637,-0.121058,1.16127,2582.39,7803.95)">
                <path d="M429.111,1340.12C427.552,1339.93 425.642,1340.35 423.192,1340.33C420.086,1340.32 417.551,1340.04 416.325,1340.23C415.452,1340.37 412.937,1338.7 412.777,1336.25C412.601,1333.56 412.625,1332.77 412.659,1328.69C412.689,1325.25 412.03,1320.63 412.186,1318.36C412.354,1315.91 415.442,1314.28 416.325,1314.28C418.044,1314.28 419.502,1314.49 421.663,1314.44C425.09,1314.35 429.498,1313.97 433.55,1313.97C436.347,1313.97 440.789,1314.28 442.67,1314.28C443.553,1314.28 444.113,1314.37 444.738,1315C445.362,1315.63 446,1316.74 446,1317.62C446,1319.24 446.226,1323.8 446.226,1326.03C446.226,1330.67 446,1333.52 446,1336.89C446,1337.77 445.649,1338.62 445.025,1339.25C444.4,1339.88 443.553,1340.23 442.67,1340.23C440.248,1340.23 437.752,1340.15 437.752,1340.15C437.752,1340.15 437.189,1343.89 437.148,1345.56C437.119,1346.7 435.518,1346.48 435.318,1346.33C432.645,1344.34 430.48,1340.86 429.111,1340.12Z" style="fill:white;"/>
                <path d="M443.207,1314.3L443.135,1314.29L443.062,1314.29L442.987,1314.28L442.91,1314.28L442.832,1314.28L442.752,1314.28L442.67,1314.28L442.486,1314.28L442.288,1314.28L442.077,1314.27L441.853,1314.27L441.617,1314.26L441.369,1314.25L441.112,1314.24L440.845,1314.23L440.569,1314.22L440.284,1314.21L439.695,1314.18L438.453,1314.12L437.813,1314.09L437.169,1314.07L436.846,1314.05L436.526,1314.04L436.207,1314.03L435.89,1314.02L435.578,1314.01L435.269,1314L434.965,1313.99L434.668,1313.98L434.377,1313.98L434.093,1313.97L433.817,1313.97L433.55,1313.97L433.36,1313.97L433.169,1313.97L432.978,1313.97L432.786,1313.97L432.595,1313.97L432.402,1313.98L432.209,1313.98L432.017,1313.98L431.63,1313.99L431.242,1314L430.854,1314.02L430.465,1314.03L430.076,1314.04L429.688,1314.06L429.3,1314.07L428.912,1314.09L428.525,1314.11L428.139,1314.13L427.755,1314.15L427.372,1314.17L426.612,1314.21L425.862,1314.25L425.123,1314.29L424.396,1314.32L424.039,1314.34L423.686,1314.36L423.336,1314.38L422.992,1314.39L422.652,1314.4L422.317,1314.42L421.987,1314.43L421.663,1314.44L421.463,1314.44L421.266,1314.44L421.073,1314.44L420.884,1314.45L420.698,1314.44L420.515,1314.44L420.336,1314.44L420.159,1314.44L419.985,1314.43L419.814,1314.42L419.645,1314.42L419.478,1314.41L419.313,1314.4L419.15,1314.4L418.828,1314.38L418.2,1314.34L417.89,1314.33L417.735,1314.32L417.58,1314.31L417.426,1314.31L417.271,1314.3L417.115,1314.29L416.959,1314.29L416.802,1314.28L416.644,1314.28L416.485,1314.28L416.325,1314.28L416.304,1314.28L416.282,1314.28L416.259,1314.28L416.236,1314.28L416.212,1314.29L416.187,1314.29L416.161,1314.29L416.135,1314.3L416.08,1314.31L416.023,1314.32L415.963,1314.34L415.9,1314.35L415.836,1314.37L415.769,1314.39L415.7,1314.42L415.629,1314.45L415.557,1314.47L415.482,1314.5L415.407,1314.54L415.329,1314.57L415.251,1314.61L415.171,1314.65L415.089,1314.69L415.007,1314.73L414.924,1314.78L414.841,1314.82L414.756,1314.87L414.671,1314.92L414.586,1314.98L414.501,1315.03L414.415,1315.09L414.329,1315.15L414.243,1315.21L414.157,1315.27L414.072,1315.33L413.987,1315.4L413.945,1315.43L413.903,1315.47L413.861,1315.5L413.819,1315.54L413.777,1315.57L413.736,1315.61L413.695,1315.64L413.654,1315.68L413.613,1315.72L413.573,1315.76L413.533,1315.8L413.493,1315.83L413.453,1315.87L413.414,1315.91L413.375,1315.95L413.336,1315.99L413.298,1316.03L413.26,1316.07L413.223,1316.11L413.186,1316.16L413.149,1316.2L413.113,1316.24L413.078,1316.28L413.042,1316.33L413.008,1316.37L412.973,1316.41L412.94,1316.46L412.906,1316.51L412.874,1316.55L412.842,1316.6L412.81,1316.64L412.779,1316.69L412.749,1316.74L412.719,1316.78L412.69,1316.83L412.662,1316.88L412.634,1316.93L412.607,1316.98L412.58,1317.02L412.554,1317.07L412.529,1317.12L412.505,1317.17L412.482,1317.22L412.459,1317.28L412.437,1317.33L412.416,1317.38L412.395,1317.43L412.376,1317.48L412.357,1317.53L412.339,1317.59L412.322,1317.64L412.306,1317.69L412.29,1317.75L412.276,1317.8L412.263,1317.86L412.25,1317.91L412.239,1317.97L412.228,1318.02L412.218,1318.08L412.21,1318.13L412.202,1318.19L412.196,1318.25L412.19,1318.3L412.186,1318.36L412.179,1318.47L412.173,1318.58L412.169,1318.7L412.166,1318.81L412.163,1318.93L412.162,1319.06L412.162,1319.19L412.163,1319.32L412.164,1319.45L412.167,1319.58L412.17,1319.72L412.174,1319.86L412.179,1320.01L412.185,1320.15L412.191,1320.3L412.198,1320.45L412.206,1320.6L412.214,1320.76L412.232,1321.07L412.253,1321.39L412.275,1321.72L412.298,1322.05L412.323,1322.39L412.375,1323.09L412.429,1323.79L412.455,1324.15L412.481,1324.51L412.507,1324.87L412.531,1325.23L412.554,1325.58L412.576,1325.94L412.586,1326.12L412.596,1326.3L412.605,1326.48L412.613,1326.65L412.621,1326.83L412.628,1327L412.635,1327.18L412.641,1327.35L412.646,1327.52L412.651,1327.69L412.654,1327.86L412.657,1328.03L412.659,1328.2L412.66,1328.36L412.66,1328.53L412.659,1328.69L412.647,1330.07L412.642,1330.67L412.638,1331.21L412.636,1331.71L412.635,1331.94L412.635,1332.16L412.635,1332.38L412.636,1332.59L412.637,1332.79L412.639,1332.99L412.642,1333.18L412.645,1333.38L412.649,1333.56L412.653,1333.75L412.659,1333.94L412.665,1334.12L412.672,1334.32L412.679,1334.51L412.688,1334.7L412.698,1334.9L412.708,1335.11L412.72,1335.32L412.733,1335.54L412.746,1335.77L412.761,1336.01L412.777,1336.25L412.781,1336.31L412.786,1336.37L412.792,1336.42L412.799,1336.48L412.806,1336.54L412.815,1336.59L412.824,1336.65L412.834,1336.7L412.844,1336.76L412.856,1336.81L412.868,1336.87L412.881,1336.92L412.894,1336.97L412.909,1337.03L412.924,1337.08L412.94,1337.13L412.956,1337.18L412.973,1337.24L412.991,1337.29L413.009,1337.34L413.028,1337.39L413.048,1337.44L413.068,1337.49L413.089,1337.54L413.11,1337.59L413.132,1337.64L413.155,1337.69L413.178,1337.74L413.202,1337.79L413.226,1337.83L413.251,1337.88L413.276,1337.93L413.302,1337.97L413.328,1338.02L413.355,1338.07L413.382,1338.11L413.409,1338.16L413.438,1338.2L413.466,1338.25L413.495,1338.29L413.524,1338.33L413.554,1338.38L413.584,1338.42L413.614,1338.46L413.645,1338.5L413.676,1338.54L413.708,1338.58L413.74,1338.62L413.772,1338.66L413.804,1338.7L413.837,1338.74L413.87,1338.78L413.903,1338.82L413.937,1338.86L413.971,1338.9L414.005,1338.93L414.039,1338.97L414.073,1339.01L414.108,1339.04L414.143,1339.08L414.178,1339.11L414.213,1339.14L414.248,1339.18L414.284,1339.21L414.355,1339.28L414.427,1339.34L414.499,1339.4L414.571,1339.46L414.643,1339.52L414.716,1339.57L414.789,1339.63L414.861,1339.68L414.933,1339.73L415.005,1339.78L415.076,1339.82L415.147,1339.86L415.218,1339.9L415.288,1339.94L415.357,1339.98L415.425,1340.01L415.492,1340.04L415.558,1340.07L415.623,1340.1L415.687,1340.13L415.719,1340.14L415.75,1340.15L415.78,1340.16L415.811,1340.17L415.841,1340.18L415.87,1340.19L415.9,1340.19L415.928,1340.2L415.957,1340.21L415.985,1340.21L416.012,1340.22L416.039,1340.22L416.066,1340.23L416.092,1340.23L416.118,1340.24L416.143,1340.24L416.168,1340.24L416.192,1340.24L416.215,1340.24L416.238,1340.24L416.261,1340.24L416.283,1340.24L416.304,1340.24L416.325,1340.23L416.383,1340.22L416.444,1340.22L416.506,1340.21L416.57,1340.2L416.636,1340.2L416.704,1340.19L416.773,1340.19L416.845,1340.18L416.918,1340.18L416.993,1340.17L417.069,1340.17L417.148,1340.17L417.228,1340.17L417.31,1340.17L417.393,1340.17L417.478,1340.17L417.654,1340.17L417.835,1340.17L418.023,1340.17L418.218,1340.18L418.418,1340.18L418.624,1340.19L418.836,1340.2L419.054,1340.21L419.505,1340.23L419.978,1340.25L420.47,1340.27L420.724,1340.28L420.981,1340.29L421.244,1340.3L421.51,1340.3L421.781,1340.31L422.056,1340.32L422.335,1340.32L422.617,1340.33L422.903,1340.33L423.192,1340.33L423.307,1340.34L423.42,1340.33L423.533,1340.33L423.645,1340.33L423.757,1340.33L423.867,1340.33L423.977,1340.32L424.086,1340.32L424.194,1340.32L424.302,1340.31L424.515,1340.3L424.724,1340.29L424.931,1340.28L425.135,1340.27L425.337,1340.25L425.535,1340.24L425.731,1340.22L426.114,1340.19L426.486,1340.16L426.668,1340.14L426.848,1340.13L427.025,1340.12L427.199,1340.11L427.371,1340.1L427.541,1340.09L427.708,1340.08L427.791,1340.08L427.873,1340.07L427.955,1340.07L428.036,1340.07L428.116,1340.07L428.196,1340.07L428.275,1340.07L428.354,1340.07L428.432,1340.07L428.51,1340.07L428.587,1340.08L428.663,1340.08L428.739,1340.08L428.815,1340.09L428.89,1340.09L428.964,1340.1L429.038,1340.11L429.111,1340.12L429.143,1340.13L429.176,1340.15L429.209,1340.17L429.242,1340.19L429.275,1340.22L429.309,1340.24L429.343,1340.26L429.377,1340.29L429.412,1340.31L429.446,1340.34L429.481,1340.37L429.517,1340.39L429.553,1340.42L429.588,1340.45L429.625,1340.48L429.661,1340.52L429.735,1340.58L429.81,1340.65L429.886,1340.72L429.963,1340.8L430.041,1340.87L430.121,1340.95L430.201,1341.04L430.283,1341.12L430.365,1341.21L430.449,1341.3L430.533,1341.39L430.619,1341.49L430.706,1341.58L430.793,1341.68L430.972,1341.88L431.154,1342.09L431.341,1342.31L431.726,1342.76L431.924,1342.99L432.125,1343.22L432.331,1343.45L432.435,1343.57L432.54,1343.69L432.646,1343.8L432.753,1343.92L432.861,1344.04L432.97,1344.16L433.079,1344.28L433.189,1344.39L433.301,1344.51L433.413,1344.62L433.526,1344.74L433.64,1344.86L433.754,1344.97L433.87,1345.08L433.986,1345.19L434.103,1345.31L434.221,1345.41L434.34,1345.52L434.459,1345.63L434.58,1345.74L434.64,1345.79L434.701,1345.84L434.761,1345.89L434.822,1345.94L434.884,1345.99L434.945,1346.04L435.007,1346.09L435.068,1346.14L435.13,1346.19L435.193,1346.24L435.255,1346.28L435.318,1346.33L435.328,1346.34L435.34,1346.34L435.355,1346.35L435.371,1346.36L435.389,1346.37L435.408,1346.37L435.43,1346.38L435.453,1346.39L435.477,1346.39L435.503,1346.4L435.53,1346.41L435.559,1346.41L435.588,1346.42L435.619,1346.42L435.651,1346.43L435.684,1346.43L435.718,1346.44L435.753,1346.44L435.789,1346.44L435.825,1346.45L435.863,1346.45L435.9,1346.45L435.939,1346.45L435.977,1346.45L436.017,1346.45L436.056,1346.45L436.096,1346.45L436.136,1346.45L436.177,1346.44L436.217,1346.44L436.257,1346.43L436.297,1346.43L436.338,1346.42L436.377,1346.41L436.417,1346.4L436.457,1346.39L436.495,1346.38L436.534,1346.37L436.572,1346.36L436.609,1346.34L436.646,1346.33L436.682,1346.31L436.717,1346.29L436.751,1346.27L436.785,1346.25L436.817,1346.23L436.833,1346.22L436.848,1346.21L436.863,1346.19L436.878,1346.18L436.893,1346.17L436.907,1346.15L436.921,1346.14L436.935,1346.13L436.948,1346.11L436.961,1346.1L436.973,1346.08L436.986,1346.07L436.998,1346.05L437.009,1346.03L437.02,1346.02L437.031,1346L437.041,1345.98L437.051,1345.96L437.06,1345.94L437.069,1345.92L437.078,1345.91L437.086,1345.89L437.094,1345.87L437.101,1345.84L437.108,1345.82L437.114,1345.8L437.12,1345.78L437.125,1345.76L437.13,1345.73L437.134,1345.71L437.138,1345.68L437.141,1345.66L437.143,1345.63L437.146,1345.61L437.147,1345.58L437.148,1345.56L437.15,1345.48L437.153,1345.39L437.157,1345.31L437.162,1345.22L437.167,1345.13L437.172,1345.04L437.179,1344.94L437.186,1344.85L437.201,1344.65L437.219,1344.44L437.239,1344.23L437.26,1344.01L437.283,1343.79L437.306,1343.57L437.331,1343.34L437.357,1343.12L437.384,1342.89L437.411,1342.67L437.438,1342.45L437.466,1342.23L437.493,1342.02L437.52,1341.81L437.572,1341.42L437.62,1341.07L437.664,1340.76L437.7,1340.5L437.728,1340.31L437.752,1340.15L437.864,1340.15L438.18,1340.16L438.67,1340.17L438.97,1340.18L439.303,1340.19L439.664,1340.2L440.049,1340.21L440.456,1340.21L440.88,1340.22L441.317,1340.23L441.763,1340.23L442.216,1340.23L442.443,1340.23L442.67,1340.23L442.712,1340.23L442.753,1340.23L442.794,1340.23L442.835,1340.23L442.876,1340.23L442.917,1340.22L442.958,1340.22L442.999,1340.22L443.04,1340.21L443.081,1340.21L443.121,1340.2L443.162,1340.2L443.202,1340.19L443.243,1340.18L443.283,1340.17L443.323,1340.17L443.363,1340.16L443.403,1340.15L443.442,1340.14L443.482,1340.13L443.521,1340.12L443.56,1340.11L443.6,1340.1L443.639,1340.09L443.677,1340.08L443.716,1340.06L443.755,1340.05L443.793,1340.04L443.831,1340.02L443.869,1340.01L443.907,1339.99L443.944,1339.98L443.982,1339.96L444.019,1339.95L444.056,1339.93L444.093,1339.91L444.13,1339.89L444.166,1339.88L444.202,1339.86L444.238,1339.84L444.274,1339.82L444.309,1339.8L444.345,1339.78L444.38,1339.76L444.415,1339.74L444.449,1339.71L444.483,1339.69L444.518,1339.67L444.551,1339.65L444.585,1339.62L444.618,1339.6L444.651,1339.58L444.684,1339.55L444.716,1339.53L444.749,1339.5L444.78,1339.48L444.812,1339.45L444.843,1339.42L444.874,1339.39L444.905,1339.37L444.935,1339.34L444.966,1339.31L444.995,1339.28L445.025,1339.25L445.054,1339.22L445.082,1339.19L445.111,1339.16L445.139,1339.13L445.166,1339.1L445.193,1339.07L445.22,1339.04L445.246,1339.01L445.272,1338.98L445.297,1338.94L445.322,1338.91L445.347,1338.88L445.371,1338.84L445.394,1338.81L445.418,1338.78L445.441,1338.74L445.463,1338.71L445.485,1338.67L445.507,1338.64L445.528,1338.61L445.548,1338.57L445.569,1338.53L445.588,1338.5L445.608,1338.46L445.627,1338.43L445.645,1338.39L445.663,1338.35L445.681,1338.32L445.698,1338.28L445.715,1338.24L445.731,1338.2L445.747,1338.17L445.762,1338.13L445.777,1338.09L445.791,1338.05L445.805,1338.02L445.818,1337.98L445.831,1337.94L445.844,1337.9L445.856,1337.86L445.868,1337.82L445.879,1337.78L445.889,1337.74L445.9,1337.7L445.909,1337.66L445.918,1337.62L445.927,1337.58L445.935,1337.54L445.943,1337.5L445.95,1337.46L445.957,1337.42L445.964,1337.38L445.969,1337.34L445.975,1337.3L445.979,1337.26L445.984,1337.22L445.988,1337.18L445.991,1337.13L445.994,1337.09L445.996,1337.05L445.998,1337.01L445.999,1336.97L446,1336.93L446,1336.89L446.001,1336.57L446.003,1336.26L446.006,1335.95L446.01,1335.64L446.015,1335.34L446.021,1335.03L446.028,1334.73L446.035,1334.42L446.044,1334.12L446.052,1333.81L446.071,1333.2L446.092,1332.57L446.113,1331.94L446.134,1331.29L446.154,1330.62L446.164,1330.28L446.174,1329.93L446.182,1329.57L446.191,1329.21L446.198,1328.84L446.205,1328.47L446.211,1328.08L446.216,1327.69L446.22,1327.29L446.223,1326.88L446.225,1326.46L446.226,1326.03L446.225,1325.81L446.223,1325.58L446.22,1325.34L446.216,1325.09L446.211,1324.83L446.205,1324.56L446.198,1324.29L446.191,1324L446.182,1323.71L446.174,1323.42L446.154,1322.82L446.134,1322.21L446.113,1321.6L446.071,1320.4L446.052,1319.84L446.035,1319.31L446.028,1319.05L446.021,1318.81L446.015,1318.58L446.01,1318.36L446.006,1318.15L446.003,1317.96L446.001,1317.78L446,1317.62L446,1317.58L445.998,1317.54L445.996,1317.5L445.993,1317.46L445.989,1317.41L445.984,1317.37L445.978,1317.33L445.971,1317.28L445.964,1317.24L445.956,1317.19L445.947,1317.15L445.937,1317.11L445.927,1317.06L445.915,1317.02L445.903,1316.97L445.891,1316.93L445.877,1316.88L445.863,1316.84L445.848,1316.79L445.833,1316.75L445.817,1316.7L445.8,1316.66L445.783,1316.61L445.765,1316.57L445.747,1316.53L445.728,1316.48L445.708,1316.44L445.688,1316.39L445.668,1316.35L445.647,1316.3L445.625,1316.26L445.603,1316.21L445.581,1316.17L445.558,1316.13L445.534,1316.08L445.511,1316.04L445.486,1316L445.462,1315.96L445.437,1315.91L445.412,1315.87L445.386,1315.83L445.36,1315.79L445.334,1315.75L445.307,1315.71L445.281,1315.67L445.253,1315.63L445.226,1315.59L445.199,1315.55L445.171,1315.51L445.143,1315.47L445.115,1315.44L445.086,1315.4L445.058,1315.36L445.029,1315.33L445,1315.29L444.971,1315.26L444.942,1315.22L444.913,1315.19L444.884,1315.15L444.855,1315.12L444.826,1315.09L444.797,1315.06L444.767,1315.03L444.738,1315L444.709,1314.97L444.68,1314.94L444.651,1314.91L444.622,1314.89L444.593,1314.86L444.564,1314.84L444.535,1314.81L444.506,1314.79L444.477,1314.77L444.448,1314.74L444.42,1314.72L444.391,1314.7L444.362,1314.68L444.333,1314.66L444.304,1314.64L444.276,1314.62L444.247,1314.6L444.218,1314.59L444.189,1314.57L444.16,1314.55L444.13,1314.54L444.101,1314.52L444.072,1314.51L444.042,1314.5L444.012,1314.48L443.983,1314.47L443.953,1314.46L443.923,1314.45L443.893,1314.43L443.862,1314.42L443.832,1314.41L443.801,1314.4L443.77,1314.39L443.739,1314.39L443.708,1314.38L443.676,1314.37L443.645,1314.36L443.613,1314.36L443.548,1314.34L443.482,1314.33L443.415,1314.32L443.347,1314.31L443.278,1314.3L443.207,1314.3ZM443.209,1315.48L443.252,1315.49L443.293,1315.49L443.33,1315.5L443.369,1315.51L443.382,1315.51L443.398,1315.51L443.413,1315.52L443.428,1315.52L443.442,1315.52L443.456,1315.53L443.47,1315.53L443.483,1315.54L443.496,1315.54L443.508,1315.55L443.521,1315.55L443.533,1315.56L443.545,1315.56L443.557,1315.57L443.568,1315.57L443.58,1315.58L443.592,1315.58L443.604,1315.59L443.617,1315.6L443.629,1315.6L443.642,1315.61L443.654,1315.62L443.667,1315.63L443.681,1315.64L443.694,1315.65L443.708,1315.66L443.723,1315.67L443.738,1315.68L443.753,1315.69L443.768,1315.7L443.784,1315.72L443.801,1315.73L443.818,1315.74L443.835,1315.76L443.853,1315.78L443.872,1315.79L443.891,1315.81L443.91,1315.83L443.93,1315.85L443.95,1315.87L443.97,1315.89L443.991,1315.92L444.012,1315.94L444.033,1315.96L444.054,1315.99L444.076,1316.01L444.097,1316.04L444.119,1316.07L444.14,1316.09L444.162,1316.12L444.183,1316.15L444.205,1316.18L444.226,1316.21L444.248,1316.24L444.269,1316.27L444.29,1316.3L444.311,1316.33L444.332,1316.36L444.353,1316.39L444.373,1316.42L444.393,1316.45L444.413,1316.49L444.433,1316.52L444.452,1316.55L444.471,1316.58L444.49,1316.62L444.508,1316.65L444.526,1316.68L444.543,1316.72L444.56,1316.75L444.577,1316.78L444.593,1316.82L444.609,1316.85L444.624,1316.88L444.639,1316.91L444.653,1316.95L444.667,1316.98L444.681,1317.01L444.693,1317.05L444.705,1317.08L444.717,1317.11L444.728,1317.14L444.739,1317.17L444.749,1317.2L444.758,1317.23L444.767,1317.26L444.775,1317.29L444.782,1317.32L444.789,1317.34L444.796,1317.37L444.801,1317.4L444.807,1317.42L444.811,1317.45L444.815,1317.47L444.819,1317.49L444.821,1317.52L444.824,1317.54L444.826,1317.56L444.827,1317.57L444.828,1317.59L444.829,1317.61L444.829,1317.63L444.83,1317.79L444.832,1317.98L444.835,1318.17L444.839,1318.38L444.844,1318.61L444.85,1318.84L444.857,1319.09L444.865,1319.34L444.882,1319.88L444.901,1320.44L444.943,1321.64L444.964,1322.25L444.984,1322.85L445.003,1323.45L445.012,1323.75L445.02,1324.04L445.028,1324.32L445.034,1324.59L445.04,1324.86L445.045,1325.11L445.049,1325.36L445.052,1325.6L445.054,1325.82L445.055,1326.03L445.054,1326.45L445.052,1326.87L445.049,1327.28L445.045,1327.68L445.04,1328.07L445.034,1328.45L445.027,1328.82L445.02,1329.18L445.012,1329.54L445.003,1329.9L444.994,1330.24L444.984,1330.58L444.964,1331.25L444.943,1331.9L444.921,1332.53L444.901,1333.16L444.882,1333.78L444.873,1334.09L444.865,1334.39L444.857,1334.7L444.85,1335.01L444.844,1335.32L444.839,1335.63L444.835,1335.94L444.832,1336.25L444.83,1336.57L444.829,1336.88L444.829,1336.91L444.828,1336.94L444.827,1336.97L444.826,1336.99L444.825,1337.02L444.823,1337.05L444.821,1337.08L444.818,1337.1L444.816,1337.13L444.812,1337.15L444.809,1337.18L444.805,1337.21L444.801,1337.23L444.797,1337.26L444.792,1337.29L444.787,1337.31L444.782,1337.34L444.776,1337.36L444.77,1337.39L444.764,1337.41L444.757,1337.44L444.75,1337.47L444.743,1337.49L444.736,1337.52L444.728,1337.54L444.72,1337.57L444.711,1337.59L444.703,1337.62L444.693,1337.64L444.684,1337.67L444.675,1337.69L444.665,1337.72L444.654,1337.74L444.644,1337.77L444.633,1337.79L444.622,1337.81L444.611,1337.84L444.599,1337.86L444.587,1337.88L444.575,1337.91L444.562,1337.93L444.549,1337.95L444.536,1337.98L444.523,1338L444.509,1338.02L444.495,1338.05L444.481,1338.07L444.466,1338.09L444.451,1338.11L444.436,1338.13L444.421,1338.16L444.405,1338.18L444.389,1338.2L444.373,1338.22L444.357,1338.24L444.34,1338.26L444.323,1338.28L444.306,1338.3L444.288,1338.32L444.27,1338.34L444.252,1338.36L444.234,1338.38L444.215,1338.4L444.197,1338.42L444.178,1338.44L444.158,1338.46L444.139,1338.48L444.119,1338.5L444.099,1338.51L444.079,1338.53L444.059,1338.55L444.038,1338.57L444.018,1338.58L443.997,1338.6L443.976,1338.61L443.954,1338.63L443.933,1338.65L443.912,1338.66L443.89,1338.68L443.868,1338.69L443.846,1338.71L443.824,1338.72L443.801,1338.73L443.779,1338.75L443.756,1338.76L443.733,1338.78L443.71,1338.79L443.687,1338.8L443.663,1338.81L443.64,1338.83L443.616,1338.84L443.593,1338.85L443.569,1338.86L443.545,1338.87L443.521,1338.88L443.496,1338.89L443.472,1338.9L443.447,1338.91L443.423,1338.92L443.398,1338.93L443.373,1338.94L443.348,1338.95L443.323,1338.95L443.298,1338.96L443.273,1338.97L443.247,1338.98L443.222,1338.98L443.196,1338.99L443.171,1339L443.145,1339L443.119,1339.01L443.093,1339.01L443.067,1339.02L443.041,1339.02L443.015,1339.03L442.989,1339.03L442.963,1339.04L442.936,1339.04L442.91,1339.04L442.883,1339.05L442.857,1339.05L442.831,1339.05L442.804,1339.05L442.777,1339.05L442.751,1339.05L442.724,1339.06L442.697,1339.06L442.667,1339.06L442.445,1339.06L442.221,1339.06L441.772,1339.05L441.329,1339.05L440.896,1339.04L440.475,1339.04L440.071,1339.03L439.688,1339.02L439.329,1339.01L438.999,1339.01L438.701,1339L438.214,1338.99L437.901,1338.98L437.79,1338.97L437.669,1338.97L437.548,1338.99L437.429,1339.02L437.314,1339.06L437.204,1339.11L437.099,1339.17L437.002,1339.24L436.913,1339.33L436.832,1339.42L436.762,1339.52L436.703,1339.63L436.654,1339.74L436.618,1339.86L436.594,1339.98L436.569,1340.14L436.541,1340.34L436.504,1340.59L436.461,1340.9L436.412,1341.26L436.359,1341.66L436.332,1341.87L436.304,1342.08L436.276,1342.3L436.249,1342.52L436.221,1342.75L436.194,1342.98L436.168,1343.21L436.142,1343.44L436.118,1343.67L436.095,1343.89L436.073,1344.12L436.053,1344.34L436.034,1344.55L436.018,1344.76L436.011,1344.86L436.004,1344.96L435.998,1345.06L435.992,1345.16L435.987,1345.25L435.986,1345.28L435.98,1345.28L435.962,1345.28L435.943,1345.28L435.925,1345.28L435.906,1345.27L435.889,1345.27L435.872,1345.27L435.864,1345.27L435.846,1345.26L435.79,1345.21L435.734,1345.17L435.678,1345.12L435.622,1345.08L435.567,1345.03L435.511,1344.99L435.455,1344.94L435.4,1344.89L435.345,1344.85L435.233,1344.75L435.122,1344.65L435.012,1344.55L434.902,1344.44L434.792,1344.34L434.683,1344.24L434.574,1344.13L434.466,1344.02L434.358,1343.91L434.251,1343.8L434.144,1343.69L434.037,1343.58L433.932,1343.47L433.826,1343.36L433.722,1343.24L433.617,1343.13L433.514,1343.01L433.411,1342.9L433.309,1342.79L433.207,1342.67L433.005,1342.44L432.806,1342.21L432.61,1341.99L432.226,1341.54L432.037,1341.32L431.851,1341.11L431.669,1340.9L431.578,1340.8L431.487,1340.7L431.398,1340.6L431.308,1340.5L431.22,1340.4L431.131,1340.31L431.043,1340.22L430.955,1340.13L430.867,1340.04L430.78,1339.95L430.692,1339.87L430.604,1339.78L430.516,1339.7L430.43,1339.63L430.383,1339.59L430.338,1339.55L430.293,1339.51L430.248,1339.48L430.202,1339.44L430.156,1339.4L430.11,1339.37L430.063,1339.33L430.016,1339.3L429.968,1339.27L429.92,1339.23L429.87,1339.2L429.821,1339.17L429.77,1339.14L429.718,1339.11L429.676,1339.09L429.573,1339.04L429.467,1339L429.356,1338.97L429.244,1338.95L429.163,1338.94L429.075,1338.93L428.987,1338.92L428.899,1338.91L428.812,1338.91L428.724,1338.9L428.636,1338.9L428.547,1338.9L428.459,1338.89L428.371,1338.89L428.283,1338.89L428.195,1338.89L428.106,1338.89L428.018,1338.89L427.929,1338.89L427.84,1338.9L427.751,1338.9L427.661,1338.9L427.484,1338.91L427.304,1338.92L427.124,1338.93L426.943,1338.94L426.76,1338.96L426.577,1338.97L426.392,1338.99L426.019,1339.02L425.638,1339.05L425.446,1339.06L425.252,1339.08L425.056,1339.09L424.858,1339.1L424.658,1339.12L424.456,1339.13L424.251,1339.14L424.149,1339.14L424.046,1339.14L423.942,1339.15L423.837,1339.15L423.732,1339.15L423.627,1339.15L423.52,1339.16L423.413,1339.16L423.306,1339.16L423.197,1339.16L422.914,1339.16L422.634,1339.15L422.357,1339.15L422.083,1339.14L421.812,1339.13L421.546,1339.13L421.283,1339.12L421.023,1339.11L420.768,1339.1L420.517,1339.09L420.027,1339.07L419.554,1339.05L419.101,1339.03L418.881,1339.02L418.665,1339.02L418.455,1339.01L418.25,1339L418.049,1339L417.854,1338.99L417.663,1338.99L417.479,1338.99L417.386,1338.99L417.296,1338.99L417.208,1338.99L417.12,1338.99L417.034,1339L416.948,1339L416.864,1339L416.781,1339.01L416.698,1339.01L416.617,1339.02L416.537,1339.02L416.457,1339.03L416.378,1339.04L416.3,1339.05L416.223,1339.06L416.214,1339.06L416.206,1339.06L416.196,1339.06L416.184,1339.05L416.172,1339.05L416.158,1339.04L416.144,1339.04L416.129,1339.04L416.113,1339.03L416.099,1339.02L416.059,1339.01L416.02,1338.99L415.978,1338.97L415.934,1338.95L415.889,1338.93L415.841,1338.9L415.791,1338.88L415.741,1338.85L415.689,1338.82L415.636,1338.78L415.582,1338.75L415.527,1338.71L415.472,1338.67L415.416,1338.63L415.36,1338.59L415.304,1338.54L415.248,1338.5L415.191,1338.45L415.135,1338.4L415.078,1338.35L415.052,1338.32L415.024,1338.3L414.997,1338.27L414.969,1338.24L414.942,1338.21L414.915,1338.19L414.888,1338.16L414.861,1338.13L414.835,1338.1L414.808,1338.07L414.782,1338.04L414.756,1338.01L414.731,1337.98L414.705,1337.95L414.68,1337.92L414.655,1337.89L414.631,1337.86L414.606,1337.83L414.582,1337.8L414.559,1337.76L414.535,1337.73L414.512,1337.7L414.49,1337.67L414.468,1337.63L414.446,1337.6L414.424,1337.57L414.403,1337.53L414.382,1337.5L414.362,1337.46L414.342,1337.43L414.322,1337.4L414.303,1337.36L414.284,1337.33L414.266,1337.29L414.248,1337.26L414.231,1337.22L414.214,1337.19L414.197,1337.15L414.181,1337.12L414.166,1337.08L414.151,1337.04L414.136,1337.01L414.122,1336.97L414.108,1336.93L414.095,1336.9L414.082,1336.86L414.07,1336.82L414.059,1336.79L414.048,1336.75L414.037,1336.71L414.027,1336.67L414.017,1336.64L414.008,1336.6L414,1336.56L413.992,1336.52L413.985,1336.49L413.978,1336.45L413.971,1336.41L413.966,1336.37L413.961,1336.33L413.956,1336.29L413.952,1336.25L413.948,1336.21L413.945,1336.17L413.93,1335.93L413.915,1335.7L413.902,1335.47L413.889,1335.26L413.878,1335.05L413.867,1334.84L413.858,1334.65L413.849,1334.46L413.842,1334.27L413.835,1334.09L413.829,1333.9L413.824,1333.72L413.819,1333.54L413.816,1333.35L413.813,1333.17L413.81,1332.98L413.808,1332.78L413.807,1332.58L413.806,1332.38L413.806,1332.16L413.806,1331.94L413.807,1331.71L413.809,1331.22L413.813,1330.68L413.818,1330.08L413.83,1328.69L413.831,1328.53L413.831,1328.36L413.83,1328.18L413.828,1328.01L413.825,1327.84L413.821,1327.66L413.817,1327.49L413.812,1327.31L413.805,1327.13L413.799,1326.95L413.791,1326.78L413.783,1326.6L413.774,1326.42L413.765,1326.24L413.755,1326.06L413.745,1325.87L413.723,1325.51L413.7,1325.15L413.675,1324.79L413.649,1324.42L413.623,1324.06L413.596,1323.7L413.543,1323L413.491,1322.31L413.466,1321.97L413.443,1321.64L413.421,1321.31L413.401,1321L413.383,1320.69L413.375,1320.54L413.368,1320.39L413.361,1320.25L413.355,1320.1L413.349,1319.96L413.345,1319.83L413.341,1319.69L413.337,1319.56L413.335,1319.43L413.334,1319.31L413.333,1319.18L413.333,1319.07L413.334,1318.95L413.336,1318.84L413.339,1318.74L413.343,1318.63L413.348,1318.54L413.354,1318.44L413.357,1318.41L413.36,1318.37L413.364,1318.34L413.369,1318.3L413.374,1318.27L413.38,1318.23L413.387,1318.2L413.394,1318.16L413.402,1318.13L413.41,1318.09L413.42,1318.06L413.429,1318.03L413.44,1317.99L413.451,1317.96L413.462,1317.92L413.475,1317.89L413.488,1317.85L413.501,1317.82L413.515,1317.78L413.53,1317.75L413.546,1317.71L413.562,1317.68L413.579,1317.65L413.596,1317.61L413.614,1317.58L413.632,1317.54L413.652,1317.51L413.671,1317.47L413.692,1317.44L413.713,1317.4L413.734,1317.37L413.757,1317.34L413.779,1317.3L413.803,1317.27L413.827,1317.23L413.851,1317.2L413.876,1317.17L413.901,1317.13L413.927,1317.1L413.954,1317.07L413.981,1317.03L414.008,1317L414.036,1316.97L414.065,1316.93L414.094,1316.9L414.123,1316.87L414.153,1316.84L414.183,1316.8L414.214,1316.77L414.245,1316.74L414.276,1316.71L414.308,1316.68L414.34,1316.65L414.372,1316.62L414.405,1316.59L414.438,1316.56L414.471,1316.53L414.505,1316.5L414.539,1316.47L414.573,1316.44L414.607,1316.41L414.642,1316.38L414.676,1316.35L414.709,1316.33L414.781,1316.27L414.852,1316.22L414.923,1316.16L414.995,1316.12L415.066,1316.07L415.137,1316.02L415.209,1315.97L415.279,1315.93L415.35,1315.89L415.42,1315.85L415.489,1315.81L415.557,1315.77L415.624,1315.74L415.689,1315.7L415.753,1315.67L415.816,1315.64L415.876,1315.62L415.935,1315.59L415.991,1315.57L416.044,1315.55L416.095,1315.53L416.142,1315.51L416.186,1315.5L416.226,1315.48L416.262,1315.47L416.293,1315.47L416.318,1315.46L416.341,1315.46L416.343,1315.46L416.344,1315.46L416.477,1315.46L416.627,1315.46L416.778,1315.46L416.927,1315.46L417.077,1315.47L417.226,1315.47L417.376,1315.48L417.526,1315.49L417.677,1315.49L417.828,1315.5L418.136,1315.52L418.765,1315.55L419.091,1315.57L419.258,1315.58L419.427,1315.59L419.598,1315.59L419.772,1315.6L419.949,1315.61L420.129,1315.61L420.313,1315.62L420.499,1315.62L420.689,1315.62L420.882,1315.62L421.079,1315.62L421.28,1315.62L421.485,1315.62L421.693,1315.61L422.023,1315.6L422.358,1315.59L422.697,1315.58L423.04,1315.57L423.388,1315.55L423.74,1315.53L424.096,1315.52L424.455,1315.5L425.183,1315.46L425.924,1315.42L426.674,1315.38L427.433,1315.34L427.814,1315.32L428.197,1315.3L428.581,1315.29L428.965,1315.27L429.35,1315.25L429.736,1315.23L430.121,1315.22L430.507,1315.2L430.891,1315.19L431.275,1315.18L431.658,1315.17L432.041,1315.16L432.231,1315.16L432.421,1315.15L432.61,1315.15L432.799,1315.15L432.988,1315.15L433.176,1315.14L433.363,1315.14L433.549,1315.14L433.809,1315.14L434.079,1315.15L434.357,1315.15L434.642,1315.16L434.936,1315.16L435.235,1315.17L435.54,1315.18L435.85,1315.19L436.163,1315.2L436.48,1315.21L436.799,1315.23L437.119,1315.24L437.761,1315.27L438.4,1315.3L439.642,1315.36L440.233,1315.38L440.52,1315.39L440.798,1315.41L441.068,1315.42L441.329,1315.43L441.58,1315.43L441.821,1315.44L442.051,1315.45L442.269,1315.45L442.476,1315.45L442.665,1315.46L442.743,1315.46L442.813,1315.46L442.88,1315.46L442.943,1315.46L443.003,1315.46L443.06,1315.47L443.113,1315.47L443.163,1315.47L443.209,1315.48Z" style="fill:rgb(0,204,179);"/>
            </g>
            <g transform="matrix(0.772796,0.0805609,-0.0872743,0.837195,2045.27,7175.05)">
                <path d="M110,2513C117.094,2511.24 129.725,2514.45 136,2513" style="fill:none;stroke:rgb(113,225,80);stroke-width:1.7px;"/>
            </g>
            <g transform="matrix(0.611797,0.0637773,-0.0872743,0.837195,2062.11,7185.27)">
                <path d="M110,2513C114.669,2512.3 121.032,2512.76 135.602,2513.26" style="fill:none;stroke:rgb(113,225,80);stroke-width:1.86px;"/>
            </g>
        </g>
    </g>
</svg>