<?xml version="1.0" encoding="utf-8"?>
<!-- Generator: Adobe Illustrator 18.1.1, SVG Export Plug-In . SVG Version: 6.00 Build 0)  -->
<!DOCTYPE svg PUBLIC "-//W3C//DTD SVG 1.1//EN" "http://www.w3.org/Graphics/SVG/1.1/DTD/svg11.dtd">
<svg version="1.1" id="Capa_1" xmlns="http://www.w3.org/2000/svg" xmlns:xlink="http://www.w3.org/1999/xlink" x="0px" y="0px"
	 viewBox="-426 227.9 106.1 106.1" enable-background="new -426 227.9 106.1 106.1" xml:space="preserve">
<g>
	<path fill="#C4C4C4" d="M-335.5,243.5c-20.7-20.7-54.3-20.7-75,0c-20.7,20.7-20.7,54.3,0,75c20.7,20.7,54.3,20.7,75,0
		C-314.8,297.8-314.8,264.1-335.5,243.5z M-341.2,312.7c-17.5,17.5-46,17.5-63.5,0c-17.5-17.5-17.5-46,0-63.5
		c17.5-17.5,46-17.5,63.5,0C-323.7,266.7-323.7,295.2-341.2,312.7z M-349,301.9c0.7,1.5,0,3.3-1.6,3.9c-1.5,0.7-3.3,0-3.9-1.6
		c-2.9-6.7-9.7-11-17.4-11c-7.9,0-14.7,4.3-17.5,11c-0.5,1.2-1.6,1.9-2.8,1.9c-0.4,0-0.8-0.1-1.1-0.2c-1.5-0.6-2.3-2.4-1.6-3.9
		c3.7-8.9,12.8-14.7,23.1-14.7C-361.8,287.3-352.8,293.1-349,301.9z M-392.8,266.6c0-3.4,2.8-6.2,6.2-6.2c3.4,0,6.2,2.8,6.2,6.2
		c0,3.4-2.8,6.2-6.2,6.2C-390,272.8-392.8,270-392.8,266.6z M-364.6,266.6c0-3.4,2.8-6.2,6.2-6.2c3.4,0,6.2,2.8,6.2,6.2
		c0,3.4-2.8,6.2-6.2,6.2S-364.6,270-364.6,266.6z"/>
</g>
</svg>
