<svg xmlns="http://www.w3.org/2000/svg" viewBox="-426 227.9 106.1 106.1"><path fill="#C4C4C4" d="M-335.5 243.5c-20.7-20.7-54.3-20.7-75 0-20.7 20.7-20.7 54.3 0 75 20.7 20.7 54.3 20.7 75 0 20.7-20.7 20.7-54.4 0-75zm-5.7 69.2c-17.5 17.5-46 17.5-63.5 0s-17.5-46 0-63.5 46-17.5 63.5 0 17.5 46 0 63.5zm-7.8-10.8c.7 1.5 0 3.3-1.6 3.9-1.5.7-3.3 0-3.9-1.6-2.9-6.7-9.7-11-17.4-11-7.9 0-14.7 4.3-17.5 11-.5 1.2-1.6 1.9-2.8 1.9-.4 0-.8-.1-1.1-.2-1.5-.6-2.3-2.4-1.6-3.9 3.7-8.9 12.8-14.7 23.1-14.7 10 0 19 5.8 22.8 14.6zm-43.8-35.3c0-3.4 2.8-6.2 6.2-6.2 3.4 0 6.2 2.8 6.2 6.2 0 3.4-2.8 6.2-6.2 6.2-3.4 0-6.2-2.8-6.2-6.2zm28.2 0c0-3.4 2.8-6.2 6.2-6.2 3.4 0 6.2 2.8 6.2 6.2 0 3.4-2.8 6.2-6.2 6.2s-6.2-2.8-6.2-6.2z"/></svg>