<svg aria-hidden="true" style="position: absolute; width: 0; height: 0; overflow: hidden;" version="1.1" xmlns="http://www.w3.org/2000/svg" xmlns:xlink="http://www.w3.org/1999/xlink">
<defs>
<symbol id="icon-star" viewBox="0 0 24 24">
<path d="M23.25 9.53h-8.608l-2.642-8.030-2.642 8.030h-8.608l7.041 4.941-2.742 8.030 6.951-4.976 6.951 4.976-2.747-8.030z"></path>
</symbol>
<symbol id="icon-pinterest" viewBox="0 0 24 24">
<path d="M12.002 1.5c-5.798 0-10.5 4.702-10.5 10.5 0 4.298 2.588 7.992 6.286 9.619-0.028-0.731-0.005-1.612 0.183-2.409 0.202-0.853 1.35-5.723 1.35-5.723s-0.338-0.67-0.338-1.659c0-1.556 0.9-2.719 2.025-2.719 0.956 0 1.416 0.717 1.416 1.575 0 0.961-0.614 2.395-0.928 3.727-0.262 1.116 0.558 2.020 1.659 2.020 1.987 0 3.328-2.555 3.328-5.583 0-2.302-1.552-4.022-4.369-4.022-3.183 0-5.17 2.377-5.17 5.030 0 0.914 0.272 1.561 0.694 2.058 0.192 0.23 0.22 0.323 0.15 0.586-0.052 0.192-0.164 0.656-0.216 0.844-0.070 0.267-0.286 0.361-0.525 0.263-1.467-0.6-2.152-2.203-2.152-4.012 0-2.981 2.517-6.558 7.505-6.558 4.008 0 6.647 2.902 6.647 6.014 0 4.12-2.292 7.195-5.667 7.195-1.134 0-2.198-0.614-2.564-1.308 0 0-0.609 2.419-0.741 2.888-0.22 0.811-0.656 1.617-1.055 2.25 0.891 0.273 1.915 0.43 2.976 0.431h0.001c5.798 0 10.5-4.702 10.5-10.5s-4.697-10.505-10.495-10.505z"></path>
</symbol>
<symbol id="icon-facebook" viewBox="0 0 24 24">
<path d="M22.5 12.063c0-5.798-4.702-10.5-10.5-10.5s-10.5 4.702-10.5 10.5c0 5.241 3.839 9.585 8.859 10.373v-7.337h-2.667v-3.036h2.667v-2.313c0-2.631 1.568-4.086 3.966-4.086 1.149 0 2.351 0.205 2.351 0.205v2.584h-1.325c-1.304 0-1.711 0.809-1.711 1.641v1.969h2.912l-0.465 3.036h-2.446v7.338c5.020-0.788 8.859-5.132 8.859-10.374z"></path>
</symbol>
<symbol id="icon-eart" viewBox="0 0 24 24">
<path d="M12 2.25c-5.385 0-9.75 4.365-9.75 9.75s4.365 9.75 9.75 9.75c5.385 0 9.75-4.365 9.75-9.75s-4.365-9.75-9.75-9.75zM10.99 20.297c-1.85-0.222-3.561-1.050-4.899-2.387-1.578-1.578-2.448-3.677-2.448-5.909 0-2.010 0.705-3.911 1.997-5.422 0.033 0.399 0.115 0.827 0.094 1.133-0.077 1.115-0.187 1.813 0.466 2.754 0.254 0.367 0.317 0.892 0.441 1.316 0.121 0.415 0.605 0.633 0.938 0.888 0.673 0.516 1.317 1.116 2.031 1.57 0.471 0.3 0.765 0.449 0.627 1.024-0.111 0.462-0.142 0.747-0.381 1.159-0.073 0.126 0.275 0.934 0.391 1.050 0.351 0.351 0.7 0.674 1.083 0.99 0.594 0.491-0.058 1.128-0.341 1.834zM17.909 17.909c-1.202 1.202-2.705 1.992-4.339 2.301 0.232-0.573 0.644-1.081 1.026-1.376 0.333-0.257 0.749-0.75 0.923-1.141s0.404-0.729 0.636-1.088c0.331-0.511-0.817-1.281-1.188-1.443-0.837-0.363-1.467-0.854-2.211-1.377-0.53-0.373-1.606 0.195-2.204-0.066-0.819-0.358-1.495-0.98-2.207-1.516-0.735-0.554-0.699-1.199-0.699-2.015 0.576 0.021 1.395-0.159 1.777 0.304 0.121 0.146 0.535 0.799 0.813 0.567 0.227-0.19-0.168-0.949-0.244-1.128-0.235-0.549 0.535-0.763 0.928-1.136 0.514-0.486 1.616-1.248 1.529-1.596s-1.103-1.335-1.699-1.181c-0.089 0.023-0.876 0.848-1.028 0.978 0.004-0.269 0.008-0.539 0.012-0.808 0.003-0.17-0.317-0.345-0.302-0.454 0.037-0.277 0.809-0.78 1.001-1.001-0.134-0.084-0.593-0.478-0.732-0.42-0.336 0.14-0.716 0.237-1.052 0.377 0-0.117-0.014-0.226-0.031-0.334 0.615-0.28 1.33-0.495 2.078-0.611l0.046-0.006 0.66 0.265 0.466 0.553 0.465 0.48 0.407 0.131 0.646-0.609-0.167-0.435v-0.391c1.277 0.186 2.484 0.662 3.54 1.397-0.189 0.017-0.397 0.045-0.631 0.075-0.097-0.057-0.221-0.083-0.326-0.123 0.306 0.658 0.625 1.307 0.95 1.957 0.347 0.694 1.115 1.438 1.25 2.17 0.159 0.863 0.049 1.647 0.136 2.663 0.084 0.978 1.103 2.089 1.103 2.089s0.47 0.16 0.862 0.104c-0.365 1.443-1.112 2.766-2.192 3.846z"></path>
</symbol>
<symbol id="icon-link" viewBox="0 0 24 24">
<path stroke-linejoin="round" stroke-linecap="round" stroke-miterlimit="4" stroke-width="1.6875" d="M9.75 16.5h-3c-2.485 0-4.5-2.015-4.5-4.5s2.015-4.5 4.5-4.5v0h3M14.25 7.5h3c2.485 0 4.5 2.015 4.5 4.5s-2.015 4.5-4.5 4.5v0h-3M7.654 12h8.785"></path>
</symbol>
<symbol id="icon-twitter" viewBox="0 0 24 24">
<path d="M23.063 5.133c-0.816 0.361-1.688 0.605-2.606 0.717 0.938-0.563 1.659-1.453 1.997-2.513-0.877 0.52-1.847 0.9-2.883 1.102-0.83-0.886-2.011-1.439-3.314-1.439-2.508 0-4.538 2.034-4.538 4.542 0 0.356 0.038 0.703 0.117 1.036-3.773-0.188-7.12-1.997-9.356-4.748-0.389 0.67-0.614 1.453-0.614 2.283 0 1.575 0.806 2.967 2.025 3.783-0.75-0.019-1.453-0.225-2.063-0.567v0.056c0 2.203 1.566 4.036 3.642 4.453-0.38 0.103-0.783 0.159-1.195 0.159-0.291 0-0.577-0.028-0.853-0.084 0.577 1.805 2.255 3.117 4.242 3.155-1.552 1.219-3.511 1.945-5.639 1.945-0.366 0-0.727-0.023-1.083-0.066 2.002 1.303 4.387 2.053 6.947 2.053 8.358 0 12.923-6.923 12.923-12.928 0-0.197-0.005-0.394-0.014-0.586 0.886-0.642 1.655-1.439 2.264-2.353z"></path>
</symbol>
<symbol id="icon-instagram" viewBox="0 0 24 24">
<path d="M15.75 4.5c0.994 0 1.936 0.394 2.648 1.102s1.102 1.655 1.102 2.648v7.5c0 0.994-0.394 1.936-1.102 2.648s-1.655 1.102-2.648 1.102h-7.5c-0.994 0-1.936-0.394-2.648-1.102s-1.102-1.655-1.102-2.648v-7.5c0-0.994 0.394-1.936 1.102-2.648s1.655-1.102 2.648-1.102h7.5zM15.75 3h-7.5c-2.887 0-5.25 2.363-5.25 5.25v7.5c0 2.888 2.363 5.25 5.25 5.25h7.5c2.888 0 5.25-2.362 5.25-5.25v-7.5c0-2.887-2.362-5.25-5.25-5.25z"></path>
<path d="M16.875 8.25c-0.623 0-1.125-0.502-1.125-1.125s0.502-1.125 1.125-1.125c0.619 0 1.125 0.502 1.125 1.125s-0.506 1.125-1.125 1.125zM12 9c1.655 0 3 1.345 3 3s-1.345 3-3 3-3-1.345-3-3 1.345-3 3-3zM12 7.5c-2.484 0-4.5 2.016-4.5 4.5s2.016 4.5 4.5 4.5 4.5-2.016 4.5-4.5-2.016-4.5-4.5-4.5z"></path>
</symbol>
<symbol id="icon-youtube" viewBox="0 0 24 24">
<path d="M23.841 6.975c0-2.109-1.552-3.806-3.469-3.806-2.597-0.122-5.245-0.169-7.95-0.169h-0.844c-2.7 0-5.353 0.047-7.95 0.169-1.912 0-3.464 1.706-3.464 3.816-0.117 1.669-0.169 3.337-0.164 5.006-0.005 1.669 0.047 3.337 0.159 5.011 0 2.109 1.552 3.82 3.464 3.82 2.728 0.127 5.527 0.183 8.372 0.178 2.85 0.009 5.639-0.047 8.372-0.178 1.917 0 3.469-1.711 3.469-3.82 0.112-1.673 0.164-3.342 0.159-5.016 0.009-1.669-0.042-3.337-0.155-5.011zM9.703 16.589v-9.211l6.797 4.603-6.797 4.608z"></path>
</symbol>
<symbol id="icon-whatsapp" viewBox="0 0 24 24">
<path d="M19.44 4.552c-1.885-1.885-4.488-3.052-7.365-3.052-0.011 0-0.022 0-0.033 0h0.002c-5.763 0-10.454 4.668-10.456 10.406 0 0.004 0 0.009 0 0.014 0 1.911 0.518 3.701 1.422 5.237l-0.026-0.048-1.484 5.391 5.543-1.447c1.443 0.797 3.163 1.266 4.993 1.266 0.001 0 0.003 0 0.004 0h0.004c5.762 0 10.453-4.668 10.456-10.406 0-0.008 0-0.017 0-0.026 0-2.868-1.17-5.463-3.059-7.334l-0.001-0.001zM12.044 20.562h-0.004c-0.001 0-0.002 0-0.003 0-1.63 0-3.156-0.448-4.46-1.228l0.040 0.022-0.317-0.188-3.289 0.859 0.878-3.192-0.207-0.328c-0.834-1.301-1.329-2.889-1.329-4.592 0-0.003 0-0.007 0-0.010v0.001c0-4.769 3.9-8.648 8.694-8.648 0.005 0 0.010-0 0.015-0 4.783 0 8.662 3.873 8.672 8.654v0.001c-0.002 4.769-3.9 8.649-8.691 8.649zM16.811 14.085c-0.261-0.13-1.547-0.759-1.785-0.846s-0.414-0.13-0.588 0.13-0.675 0.844-0.827 1.020-0.305 0.195-0.566 0.065-1.103-0.405-2.101-1.29c-0.777-0.69-1.301-1.541-1.453-1.801s-0.016-0.401 0.114-0.531c0.118-0.117 0.261-0.304 0.392-0.456s0.174-0.261 0.261-0.434 0.044-0.325-0.022-0.455-0.588-1.41-0.805-1.931c-0.212-0.507-0.428-0.438-0.588-0.446-0.152-0.007-0.328-0.009-0.501-0.009-0.278 0.007-0.525 0.131-0.696 0.324l-0.001 0.001c-0.24 0.261-0.915 0.891-0.915 2.169s0.938 2.516 1.067 2.69 1.842 2.8 4.463 3.926c0.383 0.172 0.877 0.358 1.382 0.518l0.107 0.029c0.626 0.198 1.195 0.17 1.645 0.103 0.502-0.075 1.547-0.629 1.764-1.237s0.217-1.128 0.152-1.236-0.24-0.174-0.501-0.304z"></path>
</symbol>
<symbol id="icon-next" viewBox="0 0 24 24">
<path stroke-linejoin="round" stroke-linecap="round" stroke-miterlimit="4" stroke-width="2.25" d="M12.563 5.25l6.75 6.75-6.75 6.75M18.375 12h-13.688"></path>
</symbol>
<symbol id="icon-forward" viewBox="0 0 24 24">
<path stroke-linejoin="round" stroke-linecap="round" stroke-miterlimit="4" stroke-width="2.25" d="M8.625 5.25l6.75 6.75-6.75 6.75"></path>
</symbol>
<symbol id="icon-heart" viewBox="0 0 24 24">
<path d="M12 21c-0.315-0-0.608-0.098-0.849-0.264l0.005 0.003c-3.684-2.501-5.279-4.215-6.159-5.287-1.875-2.285-2.773-4.631-2.747-7.172 0.030-2.911 2.365-5.28 5.207-5.28 2.066 0 3.497 1.164 4.331 2.133 0.052 0.059 0.128 0.097 0.212 0.097s0.161-0.037 0.212-0.096l0-0c0.833-0.97 2.265-2.133 4.331-2.133 2.842 0 5.177 2.368 5.207 5.28 0.025 2.541-0.873 4.887-2.747 7.172-0.88 1.072-2.475 2.787-6.159 5.287-0.236 0.163-0.529 0.26-0.844 0.261h-0z"></path>
</symbol>
<symbol id="icon-linkedin" viewBox="0 0 24 24">
<path d="M20.82 1.5h-17.526c-0.958 0-1.794 0.689-1.794 1.635v17.565c0 0.952 0.837 1.8 1.794 1.8h17.521c0.963 0 1.685-0.854 1.685-1.8v-17.565c0.006-0.946-0.722-1.635-1.68-1.635zM8.010 19.005h-3.008v-9.354h3.008zM6.609 8.228h-0.022c-0.963 0-1.586-0.717-1.586-1.614 0-0.914 0.64-1.613 1.624-1.613s1.587 0.695 1.608 1.613c-0 0.897-0.624 1.614-1.625 1.614zM19.005 19.005h-3.008v-5.115c0-1.225-0.438-2.063-1.526-2.063-0.832 0-1.324 0.563-1.543 1.11-0.082 0.197-0.104 0.465-0.104 0.739v5.328h-3.008v-9.354h3.008v1.302c0.438-0.623 1.122-1.521 2.713-1.521 1.975 0 3.469 1.302 3.469 4.108z"></path>
</symbol>
<symbol id="icon-close" viewBox="0 0 24 24">
<path d="M20.76 4.162l-0.922-0.922-7.838 7.838-7.838-7.838-0.922 0.922 7.838 7.838-7.838 7.838 0.922 0.922 7.838-7.838 7.838 7.838 0.922-0.922-7.838-7.838z"></path>
</symbol>
<symbol id="icon-user" viewBox="0 0 24 24">
<path d="M12 0.581q-1.877 0-3.643 0.586-1.704 0.571-3.158 1.637-1.44 1.056-2.496 2.491-1.066 1.459-1.637 3.163-0.586 1.766-0.586 3.643t0.586 3.638q0.571 1.709 1.637 3.163 1.056 1.44 2.496 2.496 1.454 1.066 3.158 1.632 1.766 0.59 3.643 0.59t3.643-0.59q1.704-0.566 3.158-1.632 1.44-1.056 2.496-2.496 1.066-1.454 1.637-3.163 0.586-1.762 0.586-3.638 0-1.522-0.394-2.99-0.394-1.454-1.147-2.765-0.758-1.315-1.834-2.39t-2.395-1.838q-1.306-0.749-2.76-1.142-1.469-0.394-2.99-0.394zM19.478 19.699l-0.206-0.211q-0.653-0.514-1.397-0.89t-1.546-0.598q-0.259-0.13-0.84-0.389-0.509-0.23-0.739-0.341-0.245-0.11-0.379-0.346t-0.101-0.504v-1.171q0.043-0.389 0.24-0.73 0.394-0.451 0.586-1.018t0.154-1.162q0.029-0.336 0.23-0.6l0.36-0.37q0.067-0.259 0.202-0.706 0.115-0.398 0.178-0.624 0.067-0.245 0.041-0.379t-0.156-0.216q-0.115-0.072-0.374-0.134v-1.003q0.048-0.614-0.122-1.2t-0.538-1.073-0.89-0.818q-0.634-0.418-1.382-0.566-0.734-0.144-1.474 0-0.749 0.149-1.382 0.571-0.518 0.341-0.883 0.835t-0.545 1.082-0.151 1.212v0.998q-0.163 0.082-0.23 0.125-0.12 0.072-0.182 0.154-0.067 0.096-0.067 0.211-0.082 0.542 0.077 1.066t0.523 0.936q0.072 0.072 0.106 0.168t0.024 0.202q-0.005 0.59 0.18 1.15t0.54 1.030q0.269 0.365 0.365 0.809t0.005 0.89v0.24q0.024 0.322-0.144 0.598t-0.466 0.401l-1.45 0.73q-1.699 0.562-3.101 1.67-1.147-1.118-1.91-2.52-0.749-1.378-1.070-2.911t-0.187-3.094q0.134-1.594 0.732-3.079t1.606-2.729q0.984-1.214 2.278-2.1t2.786-1.361q1.522-0.48 3.125-0.497t3.134 0.434q1.502 0.446 2.813 1.306t2.318 2.054q1.032 1.224 1.658 2.698t0.794 3.062q0.163 1.555-0.127 3.096t-1.015 2.928q-0.734 1.421-1.858 2.563l-0.139 0.149v-0.029z"></path>
</symbol>
<symbol id="icon-moon" viewBox="0 0 24 24">
<path d="M12 23.491q-1.781-0.005-3.461-0.538-1.632-0.518-3.043-1.498-1.397-0.97-2.453-2.299-1.066-1.344-1.69-2.938-0.643-1.642-0.761-3.418t0.305-3.49q0.413-1.661 1.291-3.134 0.874-1.454 2.131-2.597 1.272-1.157 2.818-1.886 1.598-0.749 3.36-0.984l1.55-0.202-1.147 1.061q-0.835 0.773-1.435 1.735t-0.931 2.045-0.365 2.22v0.269q-0.005 1.651 0.605 3.182 0.595 1.502 1.699 2.688 1.128 1.205 2.618 1.908t3.137 0.799q1.618 0.096 3.158-0.403 1.565-0.509 2.832-1.565l1.21-0.998-0.427 1.55q-0.442 1.661-1.349 3.115-0.888 1.421-2.15 2.53t-2.789 1.805q-1.56 0.71-3.264 0.931-0.72 0.101-1.45 0.11zM9.158 2.002q-1.728 0.49-3.192 1.522-1.421 1.008-2.443 2.426t-1.522 3.089q-0.518 1.714-0.432 3.511t0.768 3.454q0.658 1.613 1.812 2.928t2.666 2.179q1.555 0.888 3.324 1.21t3.54 0.034q1.718-0.283 3.259-1.111t2.726-2.105q1.214-1.315 1.925-2.966-1.45 0.84-3.096 1.142-1.627 0.293-3.259 0.029-1.651-0.269-3.118-1.082t-2.566-2.076q-1.085-1.243-1.694-2.779-0.614-1.56-0.667-3.235v-0.278q-0.010-1.598 0.494-3.11t1.474-2.779z"></path>
</symbol>
<symbol id="icon-menu" viewBox="0 0 24 24">
<path d="M0.499 3.97h23.002v2.002h-23.002v-2.002zM0.499 11.002h23.002v1.997h-23.002v-1.997zM0.499 18.029h23.002v2.002h-23.002v-2.002z"></path>
</symbol>
<symbol id="icon-sunny" viewBox="0 0 24 24">
<path d="M5.15 6.418q0.13 0.13 0.295 0.197t0.343 0.067 0.341-0.067 0.288-0.192q0.173-0.178 0.235-0.41t0-0.466-0.23-0.406l-1.574-1.57q-0.173-0.173-0.406-0.233t-0.466 0-0.406 0.233-0.233 0.403 0 0.461 0.233 0.403zM12 4.099q0.245 0 0.451-0.12t0.326-0.326 0.12-0.451v-2.203q0.005-0.245-0.118-0.451t-0.329-0.326-0.451-0.12-0.451 0.12-0.326 0.326-0.12 0.451v2.203q-0.005 0.245 0.118 0.451t0.329 0.326 0.451 0.12zM4.109 12q0-0.245-0.12-0.451t-0.326-0.326-0.451-0.12h-2.213q-0.245-0.005-0.451 0.118t-0.326 0.329-0.12 0.451 0.12 0.451 0.326 0.326 0.451 0.12h2.213q0.245 0 0.451-0.12t0.326-0.326 0.12-0.451zM18.23 6.682q0.178 0 0.343-0.070t0.286-0.204l1.579-1.57q0.173-0.173 0.233-0.403t0-0.461-0.233-0.403-0.406-0.233-0.466 0-0.406 0.233l-1.57 1.57q-0.197 0.192-0.252 0.461t0.050 0.523 0.336 0.406 0.504 0.151zM18.859 17.578q-0.173-0.173-0.403-0.233t-0.463 0-0.408 0.23-0.235 0.403 0 0.466 0.228 0.406l1.584 1.57q0.12 0.13 0.286 0.202t0.343 0.070 0.343-0.070 0.295-0.192q0.173-0.173 0.233-0.406t0-0.466-0.233-0.406zM23.002 11.098h-2.213q-0.245 0-0.451 0.122t-0.326 0.329-0.12 0.451 0.12 0.451 0.326 0.326 0.451 0.12h2.213q0.245 0.005 0.451-0.118t0.326-0.329 0.12-0.451-0.12-0.451-0.326-0.326-0.451-0.12v-0.005zM12 5.832q-1.258 0-2.4 0.485-1.109 0.466-1.963 1.32t-1.32 1.963q-0.485 1.142-0.485 2.4t0.485 2.4q0.466 1.109 1.32 1.963t1.963 1.32q1.142 0.485 2.4 0.485t2.4-0.485q1.109-0.466 1.963-1.32t1.32-1.963q0.485-1.142 0.485-2.4t-0.485-2.4q-0.466-1.109-1.32-1.963t-1.963-1.32q-1.142-0.485-2.4-0.485zM12 19.901q-0.245 0-0.451 0.12t-0.326 0.326-0.12 0.451v2.203q0 0.245 0.12 0.451t0.326 0.326 0.451 0.12 0.451-0.12 0.326-0.326 0.12-0.451v-2.203q0.005-0.245-0.118-0.451t-0.329-0.326-0.451-0.12zM5.131 17.578l-1.57 1.584q-0.192 0.192-0.242 0.458t0.053 0.516 0.329 0.401 0.499 0.151q0.178 0.005 0.343-0.062t0.286-0.197l1.579-1.579q0.173-0.173 0.233-0.403t0-0.463-0.233-0.403-0.406-0.233-0.466 0-0.406 0.23z"></path>
</symbol>
<symbol id="icon-search" viewBox="0 0 24 24">
<path d="M22.848 21.912l-5.218-5.222q0.96-1.142 1.522-2.51 0.542-1.325 0.662-2.76 0.125-1.416-0.178-2.803-0.302-1.406-1.008-2.654-0.73-1.286-1.829-2.294t-2.443-1.627q-1.301-0.6-2.726-0.782-1.411-0.182-2.813 0.062-1.416 0.24-2.693 0.893-1.315 0.677-2.371 1.73t-1.728 2.374q-0.653 1.272-0.898 2.693-0.24 1.397-0.058 2.808 0.182 1.426 0.778 2.731 0.619 1.344 1.627 2.443t2.299 1.824q1.243 0.71 2.65 1.013 1.392 0.298 2.808 0.178 1.43-0.12 2.76-0.662 1.368-0.562 2.51-1.526l5.218 5.184zM10.45 18.442q-1.589 0-3.034-0.614-1.402-0.59-2.482-1.67t-1.67-2.482q-0.614-1.45-0.614-3.036t0.614-3.036q0.59-1.397 1.67-2.477t2.482-1.675q1.445-0.61 3.034-0.61t3.038 0.61q1.397 0.595 2.477 1.675t1.67 2.477q0.614 1.45 0.614 3.036t-0.614 3.036q-0.59 1.402-1.67 2.482t-2.477 1.67q-1.45 0.614-3.038 0.614z"></path>
</symbol>
<symbol id="icon-rss" viewBox="0 0 24 24">
<path d="M6.432 15.538q-0.547 0.005-1.013 0.274-0.451 0.269-0.715 0.72-0.274 0.466-0.274 1.008t0.274 1.008q0.264 0.456 0.715 0.72 0.466 0.274 1.010 0.274t1.010-0.274q0.451-0.264 0.715-0.72 0.274-0.466 0.274-1.008t-0.274-1.008q-0.264-0.451-0.715-0.72-0.466-0.274-1.008-0.274zM4.43 9.538v2.914q1.416 0 2.722 0.542t2.304 1.543 1.538 2.309 0.535 2.724h2.918q0-1.325-0.341-2.602-0.341-1.267-0.998-2.405-0.662-1.142-1.601-2.078t-2.086-1.594q-1.142-0.653-2.41-0.989-1.277-0.336-2.602-0.331zM4.43 4.368v2.952q1.997 0.005 3.874 0.634 1.814 0.61 3.36 1.747 1.531 1.128 2.65 2.659 1.138 1.55 1.742 3.365 0.624 1.877 0.624 3.874h2.918q0-2.472-0.778-4.8-0.749-2.246-2.155-4.166-1.392-1.896-3.288-3.288-1.92-1.411-4.166-2.16-2.328-0.778-4.8-0.782z"></path>
</symbol>
<symbol id="icon-reddit" viewBox="0 0 24 24">
<path d="M24 11.33c0 1.045-0.589 1.942-1.46 2.384 0.107 0.415 0.161 0.844 0.161 1.286 0 4.232-4.781 7.661-10.674 7.661-5.879 0-10.661-3.429-10.661-7.661 0-0.429 0.054-0.857 0.147-1.259-0.897-0.442-1.513-1.353-1.513-2.411 0-1.473 1.192-2.665 2.665-2.665 0.763 0 1.446 0.321 1.942 0.844 1.808-1.259 4.219-2.076 6.897-2.17l1.554-6.978c0.054-0.241 0.308-0.402 0.549-0.348l4.942 1.085c0.321-0.643 1.004-1.098 1.781-1.098 1.112 0 2.009 0.897 2.009 1.996 0 1.112-0.897 2.009-2.009 2.009-1.098 0-1.996-0.897-1.996-1.996l-4.473-0.991-1.393 6.321c2.692 0.080 5.129 0.884 6.951 2.143 0.482-0.509 1.165-0.817 1.915-0.817 1.473 0 2.665 1.192 2.665 2.665zM5.598 13.996c0 1.112 0.897 2.009 1.996 2.009 1.112 0 2.009-0.897 2.009-2.009 0-1.098-0.897-1.996-2.009-1.996-1.098 0-1.996 0.897-1.996 1.996zM16.446 18.75c0.201-0.201 0.201-0.496 0-0.696-0.188-0.188-0.496-0.188-0.683 0-0.804 0.817-2.531 1.098-3.763 1.098s-2.96-0.281-3.763-1.098c-0.188-0.188-0.496-0.188-0.683 0-0.201 0.188-0.201 0.496 0 0.696 1.272 1.272 3.723 1.366 4.446 1.366s3.174-0.094 4.446-1.366zM16.406 16.004c1.098 0 1.996-0.897 1.996-2.009 0-1.098-0.897-1.996-1.996-1.996-1.112 0-2.009 0.897-2.009 1.996 0 1.112 0.897 2.009 2.009 2.009z"></path>
</symbol>
</defs>
</svg>
